Aleo-Black Italic.ufo
<glyph name="exclam" format="2">
	<advance width="302"/>
	<unicode hex="0021"/>
	<note>
		exclam
	</note>
	<outline>
		<contour>
			<point x="137.647" y="729" type="line"/>
			<point x="102.531" y="443" type="line" smooth="yes"/>
			<point x="95.041" y="382"/>
			<point x="95.674" y="322"/>
			<point x="99.939" y="259" type="curve"/>
			<point x="204.939" y="259" type="line"/>
			<point x="224.674" y="322"/>
			<point x="240.041" y="382"/>
			<point x="247.531" y="443" type="curve" smooth="yes"/>
			<point x="282.647" y="729" type="line"/>
			<point x="137.647" y="729" type="line"/>
		</contour>
		<contour>
			<point x="40.837" y="79" type="curve"/>
			<point x="40.837" y="79" type="line"/>
			<point x="34.821" y="30"/>
			<point x="69.278" y="-7"/>
			<point x="118.278" y="-7" type="curve" smooth="yes"/>
			<point x="169.278" y="-7"/>
			<point x="210.821" y="30"/>
			<point x="216.837" y="79" type="curve" smooth="yes"/>
			<point x="222.731" y="127"/>
			<point x="189.274" y="164"/>
			<point x="139.274" y="164" type="curve" smooth="yes"/>
			<point x="90.274" y="164"/>
			<point x="46.731" y="127"/>
		</contour>
	</outline>
</glyph>
<glyph name="quotedbl" format="2">
	<advance width="443"/>
	<unicode hex="0022"/>
	<note>
		quotedbl
	</note>
	<outline>
		<contour>
			<point x="111.647" y="729" type="line"/>
			<point x="94.089" y="586" type="line"/>
			<point x="98.389" y="507" type="line" smooth="yes"/>
			<point x="100.969" y="471"/>
			<point x="115.513" y="451"/>
			<point x="144.513" y="451" type="curve" smooth="yes"/>
			<point x="180.513" y="451"/>
			<point x="195.969" y="471"/>
			<point x="205.389" y="507" type="curve" smooth="yes"/>
			<point x="229.089" y="586" type="line"/>
			<point x="246.647" y="729" type="line"/>
			<point x="111.647" y="729" type="line"/>
		</contour>
		<contour>
			<point x="311.647" y="729" type="line"/>
			<point x="294.089" y="586" type="line"/>
			<point x="298.389" y="507" type="line" smooth="yes"/>
			<point x="300.969" y="471"/>
			<point x="315.513" y="451"/>
			<point x="344.513" y="451" type="curve" smooth="yes"/>
			<point x="380.513" y="451"/>
			<point x="395.969" y="471"/>
			<point x="405.389" y="507" type="curve" smooth="yes"/>
			<point x="429.089" y="586" type="line"/>
			<point x="446.647" y="729" type="line"/>
			<point x="311.647" y="729" type="line"/>
		</contour>
	</outline>
</glyph>
<glyph name="numbersign" format="2">
	<advance width="640"/>
	<unicode hex="0023"/>
	<note>
		numbersign
	</note>
	<outline>
		<contour>
			<point x="53.137" y="0" type="line"/>
			<point x="122.137" y="0" type="line" smooth="yes"/>
			<point x="156.137" y="0"/>
			<point x="187.348" y="18"/>
			<point x="197.768" y="54" type="curve" smooth="yes"/>
			<point x="240.449" y="198" type="line"/>
			<point x="322.449" y="198" type="line"/>
			<point x="279.399" y="51" type="line" smooth="yes"/>
			<point x="272.575" y="28"/>
			<point x="293.137" y="0"/>
			<point x="318.137" y="0" type="curve" smooth="yes"/>
			<point x="390.137" y="0" type="line"/>
			<point x="449.449" y="198" type="line"/>
			<point x="548.449" y="198" type="line"/>
			<point x="562.342" y="246" type="line" smooth="yes"/>
			<point x="572.885" y="283"/>
			<point x="566.709" y="306"/>
			<point x="531.709" y="306" type="curve" smooth="yes"/>
			<point x="477.709" y="306" type="line"/>
			<point x="513.198" y="424" type="line"/>
			<point x="544.198" y="424" type="line" smooth="yes"/>
			<point x="588.198" y="424"/>
			<point x="607.917" y="438"/>
			<point x="617.723" y="469" type="curve" smooth="yes"/>
			<point x="637.459" y="532" type="line"/>
			<point x="540.459" y="532" type="line"/>
			<point x="584.876" y="682" type="line" smooth="yes"/>
			<point x="593.437" y="711"/>
			<point x="571.647" y="729"/>
			<point x="541.647" y="729" type="curve" smooth="yes"/>
			<point x="472.647" y="729" type="line"/>
			<point x="413.459" y="532" type="line"/>
			<point x="330.459" y="532" type="line"/>
			<point x="389.647" y="729" type="line"/>
			<point x="318.647" y="729" type="line" smooth="yes"/>
			<point x="286.647" y="729"/>
			<point x="256.314" y="710"/>
			<point x="247.508" y="679" type="curve" smooth="yes"/>
			<point x="203.459" y="532" type="line"/>
			<point x="169.459" y="532" type="line" smooth="yes"/>
			<point x="125.459" y="532"/>
			<point x="105.74" y="518"/>
			<point x="95.933" y="487" type="curve" smooth="yes"/>
			<point x="76.198" y="424" type="line"/>
			<point x="176.198" y="424" type="line"/>
			<point x="140.709" y="306" type="line"/>
			<point x="51.709" y="306" type="line"/>
			<point x="37.816" y="258" type="line" smooth="yes"/>
			<point x="27.273" y="221"/>
			<point x="33.449" y="198"/>
			<point x="68.449" y="198" type="curve" smooth="yes"/>
			<point x="112.449" y="198" type="line"/>
		</contour>
		<contour>
			<point x="267.709" y="306" type="line"/>
			<point x="303.198" y="424" type="line"/>
			<point x="386.198" y="424" type="line"/>
			<point x="350.709" y="306" type="line"/>
		</contour>
	</outline>
</glyph>
<glyph name="dollar" format="2">
	<advance width="574"/>
	<unicode hex="0024"/>
	<anchor x="344.647" y="729" name="top"/>
	<anchor x="255.137" y="0" name="bottom"/>
	<note>
		dollar
	</note>
	<outline>
		<contour>
			<point x="138.122" y="-106" type="line"/>
			<point x="195.122" y="-106" type="line" smooth="yes"/>
			<point x="219.122" y="-106"/>
			<point x="236.332" y="-88"/>
			<point x="240.665" y="-69" type="curve" smooth="yes"/>
			<point x="438.68" y="827" type="line"/>
			<point x="381.68" y="827" type="line" smooth="yes"/>
			<point x="358.68" y="827"/>
			<point x="340.47" y="809"/>
			<point x="336.26" y="791" type="curve" smooth="yes"/>
		</contour>
		<contour>
			<point x="240.155" y="-8" type="curve" smooth="yes"/>
			<point x="400.155" y="-8"/>
			<point x="513.556" y="93"/>
			<point x="530.869" y="234" type="curve" smooth="yes"/>
			<point x="545.112" y="350"/>
			<point x="478.883" y="397"/>
			<point x="392.812" y="429" type="curve" smooth="yes"/>
			<point x="320.882" y="454"/>
			<point x="234.846" y="470"/>
			<point x="242.09" y="529" type="curve" smooth="yes"/>
			<point x="247.616" y="574"/>
			<point x="282.299" y="604"/>
			<point x="345.299" y="604" type="curve" smooth="yes"/>
			<point x="405.299" y="604"/>
			<point x="444.703" y="591"/>
			<point x="483.616" y="574" type="curve"/>
			<point x="553.844" y="584" type="line"/>
			<point x="564.157" y="668" type="line"/>
			<point x="516.56" y="712"/>
			<point x="436.63" y="737"/>
			<point x="359.63" y="737" type="curve" smooth="yes"/>
			<point x="209.63" y="737"/>
			<point x="97.597" y="639"/>
			<point x="82.985" y="520" type="curve" smooth="yes"/>
			<point x="67.515" y="394"/>
			<point x="131.498" y="345"/>
			<point x="220.815" y="315" type="curve" smooth="yes"/>
			<point x="293.745" y="290"/>
			<point x="377.394" y="279"/>
			<point x="369.045" y="211" type="curve" smooth="yes"/>
			<point x="361.801" y="152"/>
			<point x="322.608" y="126"/>
			<point x="261.608" y="126" type="curve" smooth="yes"/>
			<point x="203.608" y="126"/>
			<point x="141.222" y="131"/>
			<point x="87.151" y="163" type="curve"/>
			<point x="28.959" y="137" type="line"/>
			<point x="15.821" y="30" type="line"/>
			<point x="90.383" y="2"/>
			<point x="152.155" y="-8"/>
		</contour>
		<contour>
			<point x="447.545" y="606" type="line"/>
			<point x="454.073" y="537" type="line" smooth="yes"/>
			<point x="456.126" y="513"/>
			<point x="464.284" y="498"/>
			<point x="487.284" y="498" type="curve" smooth="yes"/>
			<point x="543.284" y="498" type="line"/>
			<point x="553.844" y="584" type="line"/>
			<point x="447.545" y="606" type="line"/>
		</contour>
		<contour>
			<point x="135.258" y="115" type="line"/>
			<point x="128.73" y="184" type="line" smooth="yes"/>
			<point x="126.677" y="208"/>
			<point x="118.518" y="223"/>
			<point x="95.518" y="223" type="curve" smooth="yes"/>
			<point x="39.518" y="223" type="line"/>
			<point x="28.959" y="137" type="line"/>
			<point x="135.258" y="115" type="line"/>
		</contour>
	</outline>
</glyph>
<glyph name="ampersand" format="2">
	<advance width="746"/>
	<unicode hex="0026"/>
	<note>
		ampersand
	</note>
	<outline>
		<contour>
			<point x="218.155" y="-8" type="curve" smooth="yes"/>
			<point x="303.155" y="-8"/>
			<point x="381.225" y="17"/>
			<point x="450.627" y="61" type="curve"/>
			<point x="477.575" y="28" type="line" smooth="yes"/>
			<point x="494.997" y="7"/>
			<point x="511.137" y="0"/>
			<point x="541.137" y="0" type="curve" smooth="yes"/>
			<point x="694.137" y="0" type="line"/>
			<point x="560.906" y="161" type="line"/>
			<point x="617.623" y="232"/>
			<point x="654.937" y="316"/>
			<point x="666.847" y="413" type="curve"/>
			<point x="568.847" y="413" type="line" smooth="yes"/>
			<point x="551.847" y="413"/>
			<point x="537.497" y="402"/>
			<point x="534.164" y="383" type="curve" smooth="yes"/>
			<point x="524.393" y="336"/>
			<point x="509.113" y="293"/>
			<point x="485.202" y="253" type="curve"/>
			<point x="328.531" y="443" type="line" smooth="yes"/>
			<point x="298.951" y="479"/>
			<point x="288.635" y="509"/>
			<point x="293.178" y="546" type="curve" smooth="yes"/>
			<point x="298.212" y="587"/>
			<point x="328.632" y="623"/>
			<point x="372.632" y="623" type="curve" smooth="yes"/>
			<point x="405.632" y="623"/>
			<point x="422.422" y="605"/>
			<point x="433.125" y="570" type="curve" smooth="yes"/>
			<point x="438.283" y="555"/>
			<point x="448.055" y="545"/>
			<point x="461.423" y="548" type="curve" smooth="yes"/>
			<point x="572.002" y="569" type="line"/>
			<point x="574.421" y="662"/>
			<point x="507.63" y="737"/>
			<point x="386.63" y="737" type="curve"/>
			<point x="257.63" y="737"/>
			<point x="162.439" y="654"/>
			<point x="149.055" y="545" type="curve" smooth="yes"/>
			<point x="143.652" y="501"/>
			<point x="150.882" y="454"/>
			<point x="176.865" y="405" type="curve"/>
			<point x="91.077" y="366"/>
			<point x="22.99" y="292"/>
			<point x="12.431" y="206" type="curve" smooth="yes"/>
			<point x="-3.285" y="78"/>
			<point x="99.155" y="-8"/>
		</contour>
		<contour>
			<point x="260.889" y="112" type="curve" smooth="yes"/>
			<point x="199.889" y="112"/>
			<point x="164.169" y="155"/>
			<point x="171.904" y="218" type="curve"/>
			<point x="171.904" y="218" type="line"/>
			<point x="176.693" y="257"/>
			<point x="194.99" y="292"/>
			<point x="235.797" y="323" type="curve"/>
			<point x="380.941" y="145" type="line"/>
			<point x="345.363" y="124"/>
			<point x="305.889" y="112"/>
		</contour>
	</outline>
</glyph>
<glyph name="quotesingle" format="2">
	<advance width="243"/>
	<unicode hex="0027"/>
	<note>
		quotesingle
	</note>
	<outline>
		<contour>
			<point x="144.513" y="451" type="curve" smooth="yes"/>
			<point x="180.513" y="451"/>
			<point x="195.969" y="471"/>
			<point x="205.389" y="507" type="curve" smooth="yes"/>
			<point x="229.089" y="586" type="line"/>
			<point x="246.647" y="729" type="line"/>
			<point x="111.647" y="729" type="line"/>
			<point x="94.089" y="586" type="line"/>
			<point x="98.389" y="507" type="line" smooth="yes"/>
			<point x="100.969" y="471"/>
			<point x="115.513" y="451"/>
		</contour>
	</outline>
</glyph>
<glyph name="parenleft" format="2">
	<advance width="269"/>
	<unicode hex="0028"/>
	<note>
		parenleft
	</note>
	<outline>
		<contour>
			<point x="109.632" y="-167" type="curve"/>
			<point x="183.544" y="-127" type="line" smooth="yes"/>
			<point x="196.526" y="-119"/>
			<point x="207.631" y="-110"/>
			<point x="209.596" y="-94" type="curve" smooth="yes"/>
			<point x="210.578" y="-86"/>
			<point x="209.683" y="-77"/>
			<point x="205.788" y="-68" type="curve" smooth="yes"/>
			<point x="165.663" y="45"/>
			<point x="149.607" y="183"/>
			<point x="165.569" y="313" type="curve" smooth="yes"/>
			<point x="181.531" y="443"/>
			<point x="228.844" y="584"/>
			<point x="298.473" y="695" type="curve" smooth="yes"/>
			<point x="304.823" y="706"/>
			<point x="308.806" y="714"/>
			<point x="309.665" y="721" type="curve" smooth="yes"/>
			<point x="311.63" y="737"/>
			<point x="302.735" y="746"/>
			<point x="291.594" y="753" type="curve" smooth="yes"/>
			<point x="227.506" y="793" type="line"/>
			<point x="170.297" y="718"/>
			<point x="126.842" y="641"/>
			<point x="95.02" y="561" type="curve" smooth="yes"/>
			<point x="63.197" y="481"/>
			<point x="42.006" y="398"/>
			<point x="31.569" y="313" type="curve" smooth="yes"/>
			<point x="21.132" y="228"/>
			<point x="21.941" y="145"/>
			<point x="34.241" y="66" type="curve" smooth="yes"/>
			<point x="46.418" y="-14"/>
			<point x="70.841" y="-92"/>
		</contour>
	</outline>
</glyph>
<glyph name="parenright" format="2">
	<advance width="268"/>
	<unicode hex="0029"/>
	<note>
		parenright
	</note>
	<outline>
		<contour>
			<point x="53.632" y="-167" type="line"/>
			<point x="110.841" y="-92"/>
			<point x="155.418" y="-14"/>
			<point x="187.241" y="66" type="curve" smooth="yes"/>
			<point x="218.941" y="145"/>
			<point x="239.132" y="228"/>
			<point x="249.569" y="313" type="curve" smooth="yes"/>
			<point x="260.006" y="398"/>
			<point x="260.197" y="481"/>
			<point x="248.02" y="561" type="curve" smooth="yes"/>
			<point x="235.842" y="641"/>
			<point x="210.297" y="718"/>
			<point x="171.506" y="793" type="curve"/>
			<point x="97.594" y="753" type="line" smooth="yes"/>
			<point x="84.735" y="746"/>
			<point x="73.63" y="737"/>
			<point x="71.665" y="721" type="curve" smooth="yes"/>
			<point x="70.806" y="714"/>
			<point x="72.823" y="706"/>
			<point x="76.473" y="695" type="curve" smooth="yes"/>
			<point x="118.844" y="584"/>
			<point x="131.531" y="443"/>
			<point x="115.569" y="313" type="curve" smooth="yes"/>
			<point x="99.607" y="183"/>
			<point x="49.663" y="45"/>
			<point x="-18.212" y="-68" type="curve" smooth="yes"/>
			<point x="-24.317" y="-77"/>
			<point x="-27.422" y="-86"/>
			<point x="-28.404" y="-94" type="curve" smooth="yes"/>
			<point x="-30.369" y="-110"/>
			<point x="-21.474" y="-119"/>
			<point x="-10.456" y="-127" type="curve" smooth="yes"/>
		</contour>
	</outline>
</glyph>
<glyph name="asterisk" format="2">
	<advance width="427"/>
	<unicode hex="002A"/>
	<note>
		asterisk
	</note>
	<outline>
		<contour>
			<point x="195.234" y="408" type="line"/>
			<point x="268.234" y="408" type="line"/>
			<point x="268.234" y="408" type="line"/>
			<point x="278.916" y="495" type="line" smooth="yes"/>
			<point x="280.635" y="509"/>
			<point x="280.231" y="522"/>
			<point x="277.704" y="534" type="curve"/>
			<point x="285.599" y="525"/>
			<point x="295.617" y="517"/>
			<point x="306.758" y="510" type="curve" smooth="yes"/>
			<point x="374.355" y="466" type="line"/>
			<point x="417.722" y="526" type="line"/>
			<point x="350.002" y="569" type="line" smooth="yes"/>
			<point x="338.984" y="577"/>
			<point x="325.598" y="582"/>
			<point x="312.966" y="585" type="curve"/>
			<point x="326.335" y="588"/>
			<point x="339.949" y="593"/>
			<point x="353.931" y="601" type="curve" smooth="yes"/>
			<point x="432.088" y="643" type="line"/>
			<point x="403.455" y="703" type="line"/>
			<point x="325.175" y="660" type="line" smooth="yes"/>
			<point x="312.316" y="653"/>
			<point x="300.333" y="645"/>
			<point x="291.228" y="636" type="curve"/>
			<point x="296.702" y="648"/>
			<point x="299.298" y="661"/>
			<point x="301.14" y="676" type="curve" smooth="yes"/>
			<point x="311.699" y="762" type="line"/>
			<point x="238.699" y="762" type="line"/>
			<point x="228.017" y="675" type="line" smooth="yes"/>
			<point x="226.175" y="660"/>
			<point x="226.579" y="647"/>
			<point x="229.228" y="636" type="curve"/>
			<point x="222.333" y="645"/>
			<point x="211.316" y="653"/>
			<point x="200.175" y="660" type="curve" smooth="yes"/>
			<point x="132.578" y="704" type="line"/>
			<point x="89.211" y="644" type="line"/>
			<point x="156.931" y="601" type="line" smooth="yes"/>
			<point x="168.949" y="593"/>
			<point x="181.335" y="588"/>
			<point x="193.966" y="585" type="curve"/>
			<point x="180.598" y="582"/>
			<point x="166.984" y="577"/>
			<point x="153.002" y="569" type="curve" smooth="yes"/>
			<point x="74.845" y="527" type="line"/>
			<point x="103.478" y="467" type="line"/>
			<point x="181.758" y="510" type="line" smooth="yes"/>
			<point x="194.617" y="517"/>
			<point x="206.477" y="524"/>
			<point x="216.582" y="533" type="curve"/>
			<point x="211.231" y="522"/>
			<point x="207.389" y="507"/>
			<point x="205.793" y="494" type="curve" smooth="yes"/>
		</contour>
	</outline>
</glyph>
<glyph name="comma" format="2">
	<advance width="222"/>
	<unicode hex="002C"/>
	<note>
		comma
	</note>
	<outline>
		<contour>
			<point x="21.965" y="-148" type="line"/>
			<point x="105.964" y="-91"/>
			<point x="164.769" y="-3"/>
			<point x="173.61" y="69" type="curve" smooth="yes"/>
			<point x="180.117" y="122"/>
			<point x="156.274" y="164"/>
			<point x="97.274" y="164" type="curve" smooth="yes"/>
			<point x="48.274" y="164"/>
			<point x="9.222" y="131"/>
			<point x="3.942" y="88" type="curve" smooth="yes"/>
			<point x="-1.583" y="43"/>
			<point x="24.997" y="7"/>
			<point x="68.506" y="3" type="curve" smooth="yes"/>
			<point x="68.506" y="3"/>
			<point x="69.506" y="3"/>
			<point x="69.506" y="3" type="curve"/>
			<point x="58.331" y="-31"/>
			<point x="22.156" y="-65"/>
			<point x="4.192" y="-81" type="curve" smooth="yes"/>
			<point x="-3.422" y="-86"/>
			<point x="-9.527" y="-95"/>
			<point x="-10.387" y="-102" type="curve" smooth="yes"/>
			<point x="-11.492" y="-111"/>
			<point x="-8.106" y="-116"/>
			<point x="-2.088" y="-124" type="curve"/>
		</contour>
	</outline>
</glyph>
<glyph name="hyphen" format="2">
	<advance width="370"/>
	<unicode hex="002D"/>
	<note>
		hyphen
	</note>
	<outline>
		<contour>
			<point x="47.851" y="242" type="line"/>
			<point x="317.851" y="242" type="line"/>
			<point x="333.199" y="367" type="line"/>
			<point x="63.199" y="367" type="line"/>
			<point x="47.851" y="242" type="line"/>
		</contour>
	</outline>
</glyph>
<glyph name="period" format="2">
	<advance width="226"/>
	<unicode hex="002E"/>
	<note>
		period
	</note>
	<outline>
		<contour>
			<point x="80.278" y="-7" type="curve" smooth="yes"/>
			<point x="131.278" y="-7"/>
			<point x="172.821" y="30"/>
			<point x="178.837" y="79" type="curve" smooth="yes"/>
			<point x="184.731" y="127"/>
			<point x="151.274" y="164"/>
			<point x="101.274" y="164" type="curve" smooth="yes"/>
			<point x="52.274" y="164"/>
			<point x="8.731" y="127"/>
			<point x="2.837" y="79" type="curve" smooth="yes"/>
			<point x="-3.179" y="30"/>
			<point x="31.278" y="-7"/>
		</contour>
	</outline>
</glyph>
<glyph name="zero" format="2">
	<advance width="572"/>
	<unicode hex="0030"/>
	<note>
		zero
	</note>
	<outline>
		<contour>
			<point x="567.954" y="365" type="curve"/>
			<point x="567.954" y="365" type="line"/>
			<point x="583.547" y="492"/>
			<point x="565.966" y="585"/>
			<point x="525.456" y="646" type="curve" smooth="yes"/>
			<point x="484.946" y="707"/>
			<point x="419.63" y="737"/>
			<point x="342.63" y="737" type="curve" smooth="yes"/>
			<point x="265.63" y="737"/>
			<point x="194.946" y="707"/>
			<point x="139.456" y="646" type="curve" smooth="yes"/>
			<point x="83.966" y="585"/>
			<point x="43.547" y="492"/>
			<point x="27.954" y="365" type="curve" smooth="yes"/>
			<point x="12.237" y="237"/>
			<point x="29.818" y="144"/>
			<point x="70.329" y="83" type="curve" smooth="yes"/>
			<point x="110.839" y="22"/>
			<point x="174.155" y="-8"/>
			<point x="251.155" y="-8" type="curve" smooth="yes"/>
			<point x="328.155" y="-8"/>
			<point x="400.839" y="22"/>
			<point x="456.329" y="83" type="curve" smooth="yes"/>
			<point x="511.818" y="144"/>
			<point x="552.237" y="237"/>
		</contour>
		<contour>
			<point x="407.954" y="365" type="curve"/>
			<point x="407.954" y="365" type="line"/>
			<point x="395.553" y="264"/>
			<point x="373.94" y="202"/>
			<point x="349.397" y="165" type="curve" smooth="yes"/>
			<point x="323.854" y="128"/>
			<point x="294.503" y="117"/>
			<point x="266.503" y="117" type="curve" smooth="yes"/>
			<point x="239.503" y="117"/>
			<point x="212.854" y="128"/>
			<point x="197.397" y="165" type="curve" smooth="yes"/>
			<point x="181.94" y="202"/>
			<point x="175.553" y="264"/>
			<point x="187.954" y="365" type="curve" smooth="yes"/>
			<point x="200.232" y="465"/>
			<point x="221.968" y="528"/>
			<point x="246.511" y="565" type="curve" smooth="yes"/>
			<point x="270.931" y="601"/>
			<point x="300.282" y="612"/>
			<point x="327.282" y="612" type="curve" smooth="yes"/>
			<point x="355.282" y="612"/>
			<point x="381.931" y="601"/>
			<point x="398.511" y="565" type="curve" smooth="yes"/>
			<point x="413.968" y="528"/>
			<point x="420.232" y="465"/>
		</contour>
	</outline>
</glyph>
<glyph name="one" format="2">
	<advance width="571"/>
	<unicode hex="0031"/>
	<note>
		one
	</note>
	<outline>
		<contour>
			<point x="78.137" y="0" type="line"/>
			<point x="493.137" y="0" type="line"/>
			<point x="500.873" y="63" type="line" smooth="yes"/>
			<point x="503.451" y="84"/>
			<point x="494.17" y="98"/>
			<point x="473.539" y="101" type="curve" smooth="yes"/>
			<point x="387.135" y="114" type="line"/>
			<point x="462.647" y="729" type="line"/>
			<point x="334.647" y="729" type="line"/>
			<point x="84.318" y="539" type="line"/>
			<point x="125.337" y="474" type="line" smooth="yes"/>
			<point x="131.232" y="465"/>
			<point x="145.127" y="456"/>
			<point x="162.127" y="456" type="curve" smooth="yes"/>
			<point x="171.127" y="456"/>
			<point x="182.496" y="459"/>
			<point x="194.601" y="468" type="curve" smooth="yes"/>
			<point x="285.95" y="536" type="line"/>
			<point x="282.617" y="517"/>
			<point x="279.284" y="498"/>
			<point x="277.074" y="480" type="curve" smooth="yes"/>
			<point x="232.135" y="114" type="line"/>
			<point x="123.416" y="100" type="line" smooth="yes"/>
			<point x="102.048" y="97"/>
			<point x="88.451" y="84"/>
			<point x="85.873" y="63" type="curve" smooth="yes"/>
		</contour>
	</outline>
</glyph>
<glyph name="two" format="2">
	<advance width="601"/>
	<unicode hex="0032"/>
	<note>
		two
	</note>
	<outline>
		<contour>
			<point x="10.137" y="0" type="line"/>
			<point x="522.137" y="0" type="line"/>
			<point x="539.327" y="140" type="line"/>
			<point x="349.327" y="140" type="line" smooth="yes"/>
			<point x="318.327" y="140"/>
			<point x="280.591" y="134"/>
			<point x="243.24" y="123" type="curve"/>
			<point x="403.166" y="269" type="line" smooth="yes"/>
			<point x="489.866" y="348"/>
			<point x="563.707" y="420"/>
			<point x="576.599" y="525" type="curve" smooth="yes"/>
			<point x="592.193" y="652"/>
			<point x="509.63" y="737"/>
			<point x="368.63" y="737" type="curve" smooth="yes"/>
			<point x="233.63" y="737"/>
			<point x="122.421" y="662"/>
			<point x="84.108" y="521" type="curve"/>
			<point x="151.512" y="508"/>
			<point x="173.021" y="504"/>
			<point x="187.021" y="504" type="curve" smooth="yes"/>
			<point x="215.021" y="504"/>
			<point x="230.494" y="516"/>
			<point x="245.301" y="547" type="curve" smooth="yes"/>
			<point x="263.721" y="583"/>
			<point x="301.036" y="610"/>
			<point x="344.036" y="610" type="curve" smooth="yes"/>
			<point x="401.036" y="610"/>
			<point x="424.23" y="579"/>
			<point x="416.985" y="520" type="curve" smooth="yes"/>
			<point x="408.145" y="448"/>
			<point x="361.023" y="390"/>
			<point x="286.797" y="323" type="curve" smooth="yes"/>
			<point x="50.766" y="111" type="line"/>
			<point x="28.679" y="94"/>
			<point x="18.732" y="70"/>
			<point x="16.277" y="50" type="curve" smooth="yes"/>
		</contour>
		<contour>
			<point x="427.766" y="111" type="line"/>
			<point x="539.327" y="140" type="line"/>
			<point x="548.904" y="218" type="line"/>
			<point x="492.904" y="218" type="line" smooth="yes"/>
			<point x="469.904" y="218"/>
			<point x="458.063" y="203"/>
			<point x="450.116" y="179" type="curve" smooth="yes"/>
			<point x="427.766" y="111" type="line"/>
		</contour>
	</outline>
</glyph>
<glyph name="three" format="2">
	<advance width="575"/>
	<unicode hex="0033"/>
	<note>
		three
	</note>
	<outline>
		<contour>
			<point x="251.155" y="-8" type="curve" smooth="yes"/>
			<point x="392.155" y="-8"/>
			<point x="517.101" y="73"/>
			<point x="535.396" y="222" type="curve" smooth="yes"/>
			<point x="545.341" y="303"/>
			<point x="512.094" y="358"/>
			<point x="434.532" y="386" type="curve"/>
			<point x="510.602" y="411"/>
			<point x="551.496" y="459"/>
			<point x="562.423" y="548" type="curve" smooth="yes"/>
			<point x="575.561" y="655"/>
			<point x="494.63" y="737"/>
			<point x="359.63" y="737" type="curve" smooth="yes"/>
			<point x="224.63" y="737"/>
			<point x="113.421" y="662"/>
			<point x="75.108" y="521" type="curve"/>
			<point x="144.512" y="508"/>
			<point x="164.021" y="504"/>
			<point x="178.021" y="504" type="curve" smooth="yes"/>
			<point x="206.021" y="504"/>
			<point x="221.494" y="516"/>
			<point x="236.301" y="547" type="curve" smooth="yes"/>
			<point x="254.721" y="583"/>
			<point x="292.036" y="610"/>
			<point x="335.036" y="610" type="curve" smooth="yes"/>
			<point x="392.036" y="610"/>
			<point x="415.107" y="578"/>
			<point x="408.108" y="521" type="curve" smooth="yes"/>
			<point x="399.882" y="454"/>
			<point x="362.444" y="426"/>
			<point x="254.444" y="426" type="curve"/>
			<point x="241.306" y="319" type="line"/>
			<point x="369.306" y="319"/>
			<point x="389.236" y="294"/>
			<point x="379.782" y="217" type="curve" smooth="yes"/>
			<point x="373.274" y="164"/>
			<point x="329.749" y="119"/>
			<point x="264.749" y="119" type="curve" smooth="yes"/>
			<point x="219.749" y="119"/>
			<point x="191.573" y="142"/>
			<point x="167.449" y="198" type="curve" smooth="yes"/>
			<point x="161.413" y="214"/>
			<point x="143.396" y="222"/>
			<point x="122.396" y="222" type="curve" smooth="yes"/>
			<point x="100.396" y="222"/>
			<point x="88.659" y="216"/>
			<point x="14.098" y="187" type="curve"/>
			<point x="44.645" y="53"/>
			<point x="112.155" y="-8"/>
		</contour>
	</outline>
</glyph>
<glyph name="four" format="2">
	<advance width="582"/>
	<unicode hex="0034"/>
	<note>
		four
	</note>
	<outline>
		<contour>
			<point x="326.137" y="0" type="line"/>
			<point x="461.137" y="0" type="line"/>
			<point x="481.765" y="168" type="line"/>
			<point x="526.765" y="168" type="line" smooth="yes"/>
			<point x="546.765" y="168"/>
			<point x="558.361" y="181"/>
			<point x="560.203" y="196" type="curve" smooth="yes"/>
			<point x="570.885" y="283" type="line"/>
			<point x="495.885" y="283" type="line"/>
			<point x="550.647" y="729" type="line"/>
			<point x="550.647" y="729" type="line"/>
			<point x="402.647" y="729" type="line"/>
			<point x="10.026" y="276" type="line"/>
			<point x="16.572" y="199" type="line" smooth="yes"/>
			<point x="18.484" y="182"/>
			<point x="34.765" y="168"/>
			<point x="53.765" y="168" type="curve" smooth="yes"/>
			<point x="346.765" y="168" type="line"/>
		</contour>
		<contour>
			<point x="173.885" y="283" type="line"/>
			<point x="399.037" y="553" type="line"/>
			<point x="392.477" y="524"/>
			<point x="387.161" y="497"/>
			<point x="384.215" y="473" type="curve" smooth="yes"/>
			<point x="360.885" y="283" type="line"/>
		</contour>
	</outline>
</glyph>
<glyph name="five" format="2">
	<advance width="581"/>
	<unicode hex="0035"/>
	<note>
		five
	</note>
	<outline>
		<contour>
			<point x="570.647" y="729" type="line"/>
			<point x="197.647" y="729" type="line"/>
			<point x="90.831" y="364" type="line"/>
			<point x="183.639" y="338" type="line"/>
			<point x="216.235" y="351"/>
			<point x="248.971" y="357"/>
			<point x="281.971" y="357" type="curve" smooth="yes"/>
			<point x="354.971" y="357"/>
			<point x="392.306" y="319"/>
			<point x="383.588" y="248" type="curve" smooth="yes"/>
			<point x="374.379" y="173"/>
			<point x="333.626" y="118"/>
			<point x="252.626" y="118" type="curve" smooth="yes"/>
			<point x="197.626" y="118"/>
			<point x="149.011" y="170"/>
			<point x="113.011" y="170" type="curve" smooth="yes"/>
			<point x="98.011" y="170"/>
			<point x="84.029" y="162"/>
			<point x="71.432" y="149" type="curve" smooth="yes"/>
			<point x="15.574" y="85" type="line"/>
			<point x="64.189" y="33"/>
			<point x="138.155" y="-8"/>
			<point x="228.155" y="-8" type="curve" smooth="yes"/>
			<point x="390.155" y="-8"/>
			<point x="520.416" y="100"/>
			<point x="539.57" y="256" type="curve" smooth="yes"/>
			<point x="555.409" y="385"/>
			<point x="479.951" y="479"/>
			<point x="330.951" y="479" type="curve" smooth="yes"/>
			<point x="306.951" y="479"/>
			<point x="281.706" y="477"/>
			<point x="254.092" y="472" type="curve"/>
			<point x="288.949" y="593" type="line"/>
			<point x="462.949" y="593" type="line" smooth="yes"/>
			<point x="522.949" y="593"/>
			<point x="556.895" y="617"/>
			<point x="562.789" y="665" type="curve" smooth="yes"/>
			<point x="570.647" y="729" type="line"/>
		</contour>
	</outline>
</glyph>
<glyph name="six" format="2">
	<advance width="560"/>
	<unicode hex="0036"/>
	<note>
		six
	</note>
	<outline>
		<contour>
			<point x="246.155" y="-8" type="curve" smooth="yes"/>
			<point x="401.155" y="-8"/>
			<point x="524.661" y="102"/>
			<point x="541.974" y="243" type="curve" smooth="yes"/>
			<point x="559.287" y="384"/>
			<point x="469.864" y="462"/>
			<point x="353.864" y="462" type="curve" smooth="yes"/>
			<point x="324.864" y="462"/>
			<point x="299.25" y="457"/>
			<point x="274.145" y="448" type="curve"/>
			<point x="277.513" y="451"/>
			<point x="293.723" y="469"/>
			<point x="295.969" y="471" type="curve" smooth="yes"/>
			<point x="543.647" y="729" type="line"/>
			<point x="405.647" y="729" type="line" smooth="yes"/>
			<point x="368.647" y="729"/>
			<point x="335.683" y="713"/>
			<point x="318.227" y="693" type="curve" smooth="yes"/>
			<point x="127.092" y="472" type="line" smooth="yes"/>
			<point x="62.883" y="397"/>
			<point x="26.165" y="326"/>
			<point x="17.202" y="253" type="curve" smooth="yes"/>
			<point x="-1.707" y="99"/>
			<point x="86.155" y="-8"/>
		</contour>
		<contour>
			<point x="258.258" y="115" type="curve" smooth="yes"/>
			<point x="185.258" y="115"/>
			<point x="154.66" y="159"/>
			<point x="163.623" y="232" type="curve" smooth="yes"/>
			<point x="172.096" y="301"/>
			<point x="222.112" y="350"/>
			<point x="285.112" y="350" type="curve" smooth="yes"/>
			<point x="356.112" y="350"/>
			<point x="394.587" y="305"/>
			<point x="385.623" y="232" type="curve" smooth="yes"/>
			<point x="377.52" y="166"/>
			<point x="323.258" y="115"/>
		</contour>
	</outline>
</glyph>
<glyph name="seven" format="2">
	<advance width="563"/>
	<unicode hex="0037"/>
	<note>
		seven
	</note>
	<outline>
		<contour>
			<point x="46.137" y="0" type="line"/>
			<point x="159.137" y="0" type="line" smooth="yes"/>
			<point x="202.137" y="0"/>
			<point x="229.961" y="23"/>
			<point x="246.399" y="51" type="curve" smooth="yes"/>
			<point x="567.58" y="590" type="line" smooth="yes"/>
			<point x="576.545" y="606"/>
			<point x="589.123" y="627"/>
			<point x="593.666" y="664" type="curve" smooth="yes"/>
			<point x="601.647" y="729" type="line"/>
			<point x="89.647" y="729" type="line"/>
			<point x="77.123" y="627" type="line" smooth="yes"/>
			<point x="74.79" y="608"/>
			<point x="90.949" y="593"/>
			<point x="107.949" y="593" type="curve" smooth="yes"/>
			<point x="428.949" y="593" type="line"/>
			<point x="406.37" y="572"/>
			<point x="387.669" y="550"/>
			<point x="370.231" y="522" type="curve" smooth="yes"/>
		</contour>
		<contour>
			<point x="69.511" y="565" type="line"/>
			<point x="122.511" y="565" type="line"/>
			<point x="131.106" y="635" type="line"/>
			<point x="78.106" y="635" type="line"/>
		</contour>
		<contour>
			<point x="184.65" y="615" type="line"/>
			<point x="72.949" y="593" type="line"/>
			<point x="62.389" y="507" type="line"/>
			<point x="118.389" y="507" type="line" smooth="yes"/>
			<point x="141.389" y="507"/>
			<point x="153.231" y="522"/>
			<point x="161.178" y="546" type="curve" smooth="yes"/>
		</contour>
	</outline>
</glyph>
<glyph name="eight" format="2">
	<advance width="555"/>
	<unicode hex="0038"/>
	<note>
		eight
	</note>
	<outline>
		<contour>
			<point x="244.155" y="-8" type="curve"/>
			<point x="396.155" y="-8"/>
			<point x="514.346" y="75"/>
			<point x="530.799" y="209" type="curve" smooth="yes"/>
			<point x="540.868" y="291"/>
			<point x="509.989" y="349"/>
			<point x="429.796" y="380" type="curve"/>
			<point x="498.356" y="409"/>
			<point x="537.987" y="463"/>
			<point x="547.196" y="538" type="curve" smooth="yes"/>
			<point x="561.316" y="653"/>
			<point x="468.63" y="737"/>
			<point x="335.63" y="737" type="curve" smooth="yes"/>
			<point x="202.63" y="737"/>
			<point x="89.316" y="653"/>
			<point x="75.196" y="538" type="curve" smooth="yes"/>
			<point x="65.987" y="463"/>
			<point x="91.356" y="409"/>
			<point x="154.796" y="380" type="curve"/>
			<point x="65.989" y="349"/>
			<point x="20.868" y="291"/>
			<point x="10.799" y="209" type="curve" smooth="yes"/>
			<point x="-5.654" y="75"/>
			<point x="94.155" y="-8"/>
		</contour>
		<contour>
			<point x="258.521" y="109" type="curve"/>
			<point x="192.521" y="109"/>
			<point x="163.678" y="151"/>
			<point x="171.168" y="212" type="curve" smooth="yes"/>
			<point x="179.272" y="278"/>
			<point x="212.06" y="317"/>
			<point x="284.06" y="317" type="curve" smooth="yes"/>
			<point x="357.06" y="317"/>
			<point x="379.272" y="278"/>
			<point x="371.168" y="212" type="curve" smooth="yes"/>
			<point x="363.801" y="152"/>
			<point x="326.521" y="109"/>
		</contour>
		<contour>
			<point x="298.549" y="435" type="curve"/>
			<point x="233.549" y="435"/>
			<point x="219.074" y="480"/>
			<point x="225.827" y="535" type="curve" smooth="yes"/>
			<point x="231.844" y="584"/>
			<point x="263.755" y="624"/>
			<point x="321.755" y="624" type="curve" smooth="yes"/>
			<point x="380.755" y="624"/>
			<point x="401.966" y="585"/>
			<point x="395.827" y="535" type="curve" smooth="yes"/>
			<point x="389.074" y="480"/>
			<point x="363.549" y="435"/>
		</contour>
	</outline>
</glyph>
<glyph name="nine" format="2">
	<advance width="541"/>
	<unicode hex="0039"/>
	<note>
		nine
	</note>
	<outline>
		<contour>
			<point x="31.137" y="0" type="line"/>
			<point x="174.137" y="0" type="line" smooth="yes"/>
			<point x="210.137" y="0"/>
			<point x="242.979" y="15"/>
			<point x="258.435" y="35" type="curve" smooth="yes"/>
			<point x="442.816" y="258" type="line" smooth="yes"/>
			<point x="500.165" y="326"/>
			<point x="539.374" y="401"/>
			<point x="550.547" y="492" type="curve" smooth="yes"/>
			<point x="568.474" y="638"/>
			<point x="484.63" y="737"/>
			<point x="329.63" y="737" type="curve" smooth="yes"/>
			<point x="180.63" y="737"/>
			<point x="60.369" y="629"/>
			<point x="43.916" y="495" type="curve" smooth="yes"/>
			<point x="27.585" y="362"/>
			<point x="115.008" y="284"/>
			<point x="218.008" y="284" type="curve" smooth="yes"/>
			<point x="257.008" y="284"/>
			<point x="292.99" y="292"/>
			<point x="325.955" y="308" type="curve"/>
			<point x="321.341" y="303"/>
			<point x="316.727" y="298"/>
			<point x="312.113" y="293" type="curve" smooth="yes"/>
		</contour>
		<contour>
			<point x="287.883" y="397" type="curve" smooth="yes"/>
			<point x="220.883" y="397"/>
			<point x="191.303" y="433"/>
			<point x="200.266" y="506" type="curve" smooth="yes"/>
			<point x="208.002" y="569"/>
			<point x="251.527" y="614"/>
			<point x="312.527" y="614" type="curve" smooth="yes"/>
			<point x="376.527" y="614"/>
			<point x="412.739" y="575"/>
			<point x="404.266" y="506" type="curve" smooth="yes"/>
			<point x="396.285" y="441"/>
			<point x="354.883" y="397"/>
		</contour>
	</outline>
</glyph>
<glyph name="colon" format="2">
	<advance width="226"/>
	<unicode hex="003A"/>
	<note>
		colon
	</note>
	<outline>
		<contour>
			<point x="2.837" y="79" type="curve"/>
			<point x="2.837" y="79" type="line"/>
			<point x="-3.179" y="30"/>
			<point x="31.278" y="-7"/>
			<point x="80.278" y="-7" type="curve" smooth="yes"/>
			<point x="131.278" y="-7"/>
			<point x="172.821" y="30"/>
			<point x="178.837" y="79" type="curve" smooth="yes"/>
			<point x="184.731" y="127"/>
			<point x="151.274" y="164"/>
			<point x="101.274" y="164" type="curve" smooth="yes"/>
			<point x="52.274" y="164"/>
			<point x="8.731" y="127"/>
		</contour>
		<contour>
			<point x="44.707" y="420" type="curve"/>
			<point x="44.707" y="420" type="line"/>
			<point x="38.813" y="372"/>
			<point x="73.27" y="335"/>
			<point x="122.27" y="335" type="curve" smooth="yes"/>
			<point x="172.27" y="335"/>
			<point x="214.813" y="372"/>
			<point x="220.707" y="420" type="curve" smooth="yes"/>
			<point x="226.478" y="467"/>
			<point x="193.266" y="506"/>
			<point x="143.266" y="506" type="curve" smooth="yes"/>
			<point x="94.266" y="506"/>
			<point x="50.478" y="467"/>
		</contour>
	</outline>
</glyph>
<glyph name="semicolon" format="2">
	<advance width="231"/>
	<unicode hex="003B"/>
	<note>
		semicolon
	</note>
	<outline>
		<contour>
			<point x="127.27" y="335" type="curve" smooth="yes"/>
			<point x="177.27" y="335"/>
			<point x="219.813" y="372"/>
			<point x="225.707" y="420" type="curve" smooth="yes"/>
			<point x="231.478" y="467"/>
			<point x="198.266" y="506"/>
			<point x="148.266" y="506" type="curve" smooth="yes"/>
			<point x="99.266" y="506"/>
			<point x="55.478" y="467"/>
			<point x="49.707" y="420" type="curve" smooth="yes"/>
			<point x="43.813" y="372"/>
			<point x="78.27" y="335"/>
		</contour>
		<contour>
			<point x="21.965" y="-148" type="line"/>
			<point x="105.964" y="-91"/>
			<point x="164.769" y="-3"/>
			<point x="173.61" y="69" type="curve" smooth="yes"/>
			<point x="180.117" y="122"/>
			<point x="156.274" y="164"/>
			<point x="97.274" y="164" type="curve" smooth="yes"/>
			<point x="48.274" y="164"/>
			<point x="9.222" y="131"/>
			<point x="3.942" y="88" type="curve" smooth="yes"/>
			<point x="-1.583" y="43"/>
			<point x="24.997" y="7"/>
			<point x="68.506" y="3" type="curve" smooth="yes"/>
			<point x="68.506" y="3"/>
			<point x="69.506" y="3"/>
			<point x="69.506" y="3" type="curve"/>
			<point x="58.331" y="-31"/>
			<point x="22.156" y="-65"/>
			<point x="4.192" y="-81" type="curve" smooth="yes"/>
			<point x="-3.422" y="-86"/>
			<point x="-9.527" y="-95"/>
			<point x="-10.387" y="-102" type="curve" smooth="yes"/>
			<point x="-11.492" y="-111"/>
			<point x="-8.106" y="-116"/>
			<point x="-2.088" y="-124" type="curve"/>
		</contour>
	</outline>
</glyph>
<glyph name="less" format="2">
	<advance width="502"/>
	<unicode hex="003C"/>
	<note>
		less
	</note>
	<outline>
		<contour>
			<point x="36.832" y="307" type="line"/>
			<point x="415.925" y="96" type="line"/>
			<point x="429.063" y="203" type="line" smooth="yes"/>
			<point x="431.027" y="219"/>
			<point x="424.623" y="232"/>
			<point x="408.728" y="241" type="curve" smooth="yes"/>
			<point x="276.183" y="318" type="line" smooth="yes"/>
			<point x="260.288" y="327"/>
			<point x="240.902" y="332"/>
			<point x="220.516" y="337" type="curve"/>
			<point x="242.13" y="342"/>
			<point x="262.989" y="349"/>
			<point x="281.094" y="358" type="curve" smooth="yes"/>
			<point x="432.426" y="434" type="line" smooth="yes"/>
			<point x="450.531" y="443"/>
			<point x="460.25" y="457"/>
			<point x="462.092" y="472" type="curve" smooth="yes"/>
			<point x="475.352" y="580" type="line"/>
			<point x="44.322" y="368" type="line"/>
			<point x="36.832" y="307" type="line"/>
		</contour>
	</outline>
</glyph>
<glyph name="equal" format="2">
	<advance width="565"/>
	<unicode hex="003D"/>
	<note>
		equal
	</note>
	<outline>
		<contour>
			<point x="46.344" y="189" type="line"/>
			<point x="501.344" y="189" type="line"/>
			<point x="514.973" y="300" type="line"/>
			<point x="59.973" y="300" type="line"/>
			<point x="46.344" y="189" type="line"/>
		</contour>
		<contour>
			<point x="68.813" y="372" type="line"/>
			<point x="523.813" y="372" type="line"/>
			<point x="537.442" y="483" type="line"/>
			<point x="82.442" y="483" type="line"/>
			<point x="68.813" y="372" type="line"/>
		</contour>
	</outline>
</glyph>
<glyph name="greater" format="2">
	<advance width="502"/>
	<unicode hex="003E"/>
	<note>
		greater
	</note>
	<outline>
		<contour>
			<point x="484.322" y="368" type="line"/>
			<point x="105.23" y="579" type="line"/>
			<point x="92.092" y="472" type="line" smooth="yes"/>
			<point x="90.127" y="456"/>
			<point x="96.531" y="443"/>
			<point x="112.426" y="434" type="curve" smooth="yes"/>
			<point x="244.971" y="357" type="line" smooth="yes"/>
			<point x="260.866" y="348"/>
			<point x="280.253" y="343"/>
			<point x="300.639" y="338" type="curve"/>
			<point x="279.025" y="333"/>
			<point x="258.165" y="326"/>
			<point x="240.06" y="317" type="curve" smooth="yes"/>
			<point x="88.728" y="241" type="line" smooth="yes"/>
			<point x="70.623" y="232"/>
			<point x="60.904" y="218"/>
			<point x="59.063" y="203" type="curve" smooth="yes"/>
			<point x="45.802" y="95" type="line"/>
			<point x="476.832" y="307" type="line"/>
			<point x="484.322" y="368" type="line"/>
		</contour>
	</outline>
</glyph>
<glyph name="question" format="2">
	<advance width="472"/>
	<unicode hex="003F"/>
	<note>
		question
	</note>
	<outline>
		<contour>
			<point x="153.939" y="259" type="line"/>
			<point x="259.939" y="259" type="line"/>
			<point x="282.534" y="329" type="line" smooth="yes"/>
			<point x="292.094" y="358"/>
			<point x="339.532" y="386"/>
			<point x="375.602" y="411" type="curve" smooth="yes"/>
			<point x="420.285" y="441"/>
			<point x="457.425" y="491"/>
			<point x="465.897" y="560" type="curve" smooth="yes"/>
			<point x="479.403" y="670"/>
			<point x="405.63" y="737"/>
			<point x="283.63" y="737" type="curve" smooth="yes"/>
			<point x="200.63" y="737"/>
			<point x="127.701" y="705"/>
			<point x="71.421" y="662" type="curve"/>
			<point x="104.685" y="599" type="line" smooth="yes"/>
			<point x="110.212" y="587"/>
			<point x="120.475" y="581"/>
			<point x="134.475" y="581" type="curve" smooth="yes"/>
			<point x="154.475" y="581"/>
			<point x="214.773" y="616"/>
			<point x="254.773" y="616" type="curve" smooth="yes"/>
			<point x="301.773" y="616"/>
			<point x="325.703" y="591"/>
			<point x="320.792" y="551" type="curve" smooth="yes"/>
			<point x="314.898" y="503"/>
			<point x="276.215" y="473"/>
			<point x="237.022" y="447" type="curve" smooth="yes"/>
			<point x="197.952" y="422"/>
			<point x="158.515" y="394"/>
			<point x="153.358" y="352" type="curve" smooth="yes"/>
			<point x="153.235" y="351"/>
			<point x="153.13" y="342"/>
			<point x="152.884" y="340" type="curve" smooth="yes"/>
		</contour>
		<contour>
			<point x="164.278" y="-7" type="curve" smooth="yes"/>
			<point x="215.278" y="-7"/>
			<point x="256.821" y="30"/>
			<point x="262.837" y="79" type="curve" smooth="yes"/>
			<point x="268.731" y="127"/>
			<point x="235.274" y="164"/>
			<point x="185.274" y="164" type="curve" smooth="yes"/>
			<point x="136.274" y="164"/>
			<point x="92.731" y="127"/>
			<point x="86.837" y="79" type="curve" smooth="yes"/>
			<point x="80.821" y="30"/>
			<point x="115.278" y="-7"/>
		</contour>
	</outline>
</glyph>
<glyph name="at" format="2">
	<advance width="807"/>
	<unicode hex="0040"/>
	<note>
		at
	</note>
	<outline>
		<contour>
			<point x="400.28" y="-121" type="curve" smooth="yes"/>
			<point x="513.28" y="-121"/>
			<point x="615.841" y="-92"/>
			<point x="692.735" y="-44" type="curve"/>
			<point x="678.365" y="10" type="line" smooth="yes"/>
			<point x="674.961" y="23"/>
			<point x="667.698" y="29"/>
			<point x="656.698" y="29" type="curve" smooth="yes"/>
			<point x="649.698" y="29"/>
			<point x="642.453" y="27"/>
			<point x="634.961" y="23" type="curve" smooth="yes"/>
			<point x="585.523" y="-5"/>
			<point x="504.068" y="-25"/>
			<point x="412.068" y="-25" type="curve" smooth="yes"/>
			<point x="321.068" y="-25"/>
			<point x="243.506" y="3"/>
			<point x="194.136" y="57" type="curve" smooth="yes"/>
			<point x="143.766" y="111"/>
			<point x="118.589" y="191"/>
			<point x="131.727" y="298" type="curve" smooth="yes"/>
			<point x="142.409" y="385"/>
			<point x="185.109" y="464"/>
			<point x="246.863" y="519" type="curve" smooth="yes"/>
			<point x="305.37" y="572"/>
			<point x="380.299" y="604"/>
			<point x="463.299" y="604" type="curve" smooth="yes"/>
			<point x="561.299" y="604"/>
			<point x="634.125" y="570"/>
			<point x="670.144" y="505" type="curve" smooth="yes"/>
			<point x="692.232" y="465"/>
			<point x="700.847" y="413"/>
			<point x="693.235" y="351" type="curve" smooth="yes"/>
			<point x="682.675" y="265"/>
			<point x="639.607" y="183"/>
			<point x="586.607" y="183" type="curve" smooth="yes"/>
			<point x="561.607" y="183"/>
			<point x="546.958" y="194"/>
			<point x="551.01" y="227" type="curve" smooth="yes"/>
			<point x="552.483" y="239"/>
			<point x="556.447" y="255"/>
			<point x="563.78" y="274" type="curve" smooth="yes"/>
			<point x="636.109" y="464" type="line"/>
			<point x="602.951" y="479"/>
			<point x="558.179" y="489"/>
			<point x="508.179" y="489" type="curve" smooth="yes"/>
			<point x="355.179" y="489"/>
			<point x="224.655" y="387"/>
			<point x="206.851" y="242" type="curve" smooth="yes"/>
			<point x="196.046" y="154"/>
			<point x="234.434" y="92"/>
			<point x="319.434" y="92" type="curve" smooth="yes"/>
			<point x="370.434" y="92"/>
			<point x="414.521" y="109"/>
			<point x="459.923" y="153" type="curve"/>
			<point x="469.644" y="110"/>
			<point x="510.311" y="91"/>
			<point x="552.311" y="91" type="curve" smooth="yes"/>
			<point x="682.311" y="91"/>
			<point x="786.045" y="211"/>
			<point x="803.235" y="351" type="curve" smooth="yes"/>
			<point x="811.952" y="422"/>
			<point x="799.565" y="484"/>
			<point x="772.95" y="536" type="curve" smooth="yes"/>
			<point x="718.72" y="640"/>
			<point x="602.087" y="700"/>
			<point x="475.087" y="700" type="curve" smooth="yes"/>
			<point x="398.087" y="700"/>
			<point x="324.508" y="679"/>
			<point x="260.088" y="643" type="curve" smooth="yes"/>
			<point x="131.002" y="569"/>
			<point x="36.794" y="437"/>
			<point x="19.727" y="298" type="curve" smooth="yes"/>
			<point x="4.011" y="170"/>
			<point x="37.118" y="65"/>
			<point x="105.155" y="-8" type="curve" smooth="yes"/>
			<point x="172.192" y="-81"/>
			<point x="275.28" y="-121"/>
		</contour>
		<contour>
			<point x="362.098" y="187" type="curve"/>
			<point x="335.098" y="187"/>
			<point x="321.431" y="206"/>
			<point x="326.342" y="246" type="curve" smooth="yes"/>
			<point x="336.042" y="325"/>
			<point x="402.76" y="396"/>
			<point x="470.76" y="396" type="curve" smooth="yes"/>
			<point x="478.76" y="396"/>
			<point x="486.637" y="395"/>
			<point x="494.515" y="394" type="curve"/>
			<point x="442.816" y="258" type="line" smooth="yes"/>
			<point x="424.922" y="210"/>
			<point x="396.098" y="187"/>
		</contour>
	</outline>
</glyph>
<glyph name="A" format="2">
	<advance width="813"/>
	<unicode hex="0041"/>
	<anchor x="613.383" y="2" name="ogonek"/>
	<anchor x="375.137" y="0" name="bottom"/>
	<anchor x="464.647" y="729" name="top"/>
	<note>
		A
	</note>
	<outline>
		<contour>
			<point x="6.137" y="0" type="line"/>
			<point x="138.137" y="0" type="line" smooth="yes"/>
			<point x="166.137" y="0"/>
			<point x="188.348" y="18"/>
			<point x="197.68" y="37" type="curve"/>
			<point x="400.706" y="477" type="line" smooth="yes"/>
			<point x="415.758" y="510"/>
			<point x="430.073" y="537"/>
			<point x="446.23" y="579" type="curve"/>
			<point x="451.196" y="538"/>
			<point x="459.389" y="507"/>
			<point x="465.828" y="478" type="curve" smooth="yes"/>
			<point x="560.68" y="37" type="line" smooth="yes"/>
			<point x="565.102" y="16"/>
			<point x="582.137" y="0"/>
			<point x="612.137" y="0" type="curve" smooth="yes"/>
			<point x="743.137" y="0" type="line"/>
			<point x="550.647" y="729" type="line"/>
			<point x="377.647" y="729" type="line"/>
		</contour>
		<contour>
			<point x="106.137" y="0" type="line"/>
			<point x="228.137" y="0" type="line"/>
			<point x="236.855" y="71" type="line"/>
			<point x="114.855" y="71" type="line"/>
		</contour>
		<contour>
			<point x="219.466" y="190" type="line"/>
			<point x="565.466" y="190" type="line"/>
			<point x="569.587" y="305" type="line"/>
			<point x="243.587" y="305" type="line"/>
		</contour>
		<contour>
			<point x="501.137" y="0" type="line"/>
			<point x="633.137" y="0" type="line"/>
			<point x="641.855" y="71" type="line"/>
			<point x="509.855" y="71" type="line"/>
		</contour>
		<contour>
			<point x="-23.863" y="0" type="line"/>
			<point x="73.137" y="0" type="line"/>
			<point x="73.626" y="118" type="line"/>
			<point x="28.521" y="109" type="line" smooth="yes"/>
			<point x="3.907" y="104"/>
			<point x="-12.321" y="94"/>
			<point x="-15.145" y="71" type="curve" smooth="yes"/>
		</contour>
		<contour>
			<point x="190.137" y="0" type="line"/>
			<point x="287.137" y="0" type="line"/>
			<point x="295.855" y="71" type="line" smooth="yes"/>
			<point x="298.679" y="94"/>
			<point x="284.907" y="104"/>
			<point x="261.521" y="109" type="curve" smooth="yes"/>
			<point x="218.626" y="118" type="line"/>
		</contour>
		<contour>
			<point x="462.137" y="0" type="line"/>
			<point x="559.137" y="0" type="line"/>
			<point x="559.626" y="118" type="line"/>
			<point x="514.521" y="109" type="line" smooth="yes"/>
			<point x="489.907" y="104"/>
			<point x="473.679" y="94"/>
			<point x="470.855" y="71" type="curve" smooth="yes"/>
		</contour>
		<contour>
			<point x="676.137" y="0" type="line"/>
			<point x="773.137" y="0" type="line"/>
			<point x="781.855" y="71" type="line" smooth="yes"/>
			<point x="784.679" y="94"/>
			<point x="770.907" y="104"/>
			<point x="747.521" y="109" type="curve" smooth="yes"/>
			<point x="704.626" y="118" type="line"/>
		</contour>
	</outline>
</glyph>
<glyph name="B" format="2">
	<advance width="685"/>
	<unicode hex="0042"/>
	<anchor x="403.103" y="749" name="top"/>
	<anchor x="311.137" y="0" name="bottom"/>
	<note>
		B
	</note>
	<outline>
		<contour>
			<point x="65.137" y="0" type="line"/>
			<point x="356.137" y="0" type="line" smooth="yes"/>
			<point x="522.137" y="0"/>
			<point x="639.82" y="87"/>
			<point x="656.15" y="220" type="curve" smooth="yes"/>
			<point x="666.096" y="301"/>
			<point x="627.603" y="354"/>
			<point x="534.427" y="377" type="curve"/>
			<point x="621.111" y="407"/>
			<point x="668.864" y="462"/>
			<point x="677.459" y="532" type="curve" smooth="yes"/>
			<point x="695.385" y="678"/>
			<point x="590.647" y="729"/>
			<point x="422.647" y="729" type="curve" smooth="yes"/>
			<point x="154.647" y="729" type="line"/>
		</contour>
		<contour>
			<point x="249.854" y="128" type="line"/>
			<point x="272.078" y="309" type="line"/>
			<point x="390.078" y="309" type="line" smooth="yes"/>
			<point x="469.078" y="309"/>
			<point x="496.64" y="281"/>
			<point x="489.518" y="223" type="curve" smooth="yes"/>
			<point x="482.888" y="169"/>
			<point x="449.854" y="128"/>
			<point x="368.854" y="128" type="curve" smooth="yes"/>
		</contour>
		<contour>
			<point x="285.952" y="422" type="line"/>
			<point x="308.054" y="602" type="line"/>
			<point x="407.054" y="602" type="line" smooth="yes"/>
			<point x="482.054" y="602"/>
			<point x="514.475" y="581"/>
			<point x="506.003" y="512" type="curve" smooth="yes"/>
			<point x="497.285" y="441"/>
			<point x="450.952" y="422"/>
			<point x="373.952" y="422" type="curve" smooth="yes"/>
		</contour>
		<contour>
			<point x="-11.863" y="0" type="line"/>
			<point x="85.137" y="0" type="line"/>
			<point x="85.626" y="118" type="line"/>
			<point x="40.521" y="109" type="line" smooth="yes"/>
			<point x="15.907" y="104"/>
			<point x="-0.321" y="94"/>
			<point x="-3.145" y="71" type="curve" smooth="yes"/>
		</contour>
		<contour>
			<point x="174.647" y="729" type="line"/>
			<point x="77.647" y="729" type="line"/>
			<point x="68.93" y="658" type="line" smooth="yes"/>
			<point x="66.106" y="635"/>
			<point x="79.878" y="625"/>
			<point x="103.264" y="620" type="curve" smooth="yes"/>
			<point x="146.159" y="611" type="line"/>
		</contour>
	</outline>
</glyph>
<glyph name="D" format="2">
	<advance width="773"/>
	<unicode hex="0044"/>
	<anchor x="196.831" y="364" name="center"/>
	<anchor x="321.137" y="0" name="bottom"/>
	<anchor x="424.647" y="729" name="top"/>
	<note>
		D
	</note>
	<outline>
		<contour>
			<point x="65.137" y="0" type="line"/>
			<point x="348.137" y="0" type="line" smooth="yes"/>
			<point x="461.137" y="0"/>
			<point x="561.926" y="39"/>
			<point x="635.907" y="104" type="curve" smooth="yes"/>
			<point x="709.765" y="168"/>
			<point x="758.061" y="260"/>
			<point x="770.954" y="365" type="curve" smooth="yes"/>
			<point x="783.723" y="469"/>
			<point x="758.02" y="561"/>
			<point x="700" y="626" type="curve" smooth="yes"/>
			<point x="641.859" y="690"/>
			<point x="550.647" y="729"/>
			<point x="437.647" y="729" type="curve" smooth="yes"/>
			<point x="154.647" y="729" type="line"/>
		</contour>
		<contour>
			<point x="251.099" y="130" type="line"/>
			<point x="308.685" y="599" type="line"/>
			<point x="421.685" y="599" type="line" smooth="yes"/>
			<point x="552.685" y="599"/>
			<point x="615.266" y="506"/>
			<point x="597.954" y="365" type="curve" smooth="yes"/>
			<point x="580.518" y="223"/>
			<point x="495.099" y="130"/>
			<point x="364.099" y="130" type="curve" smooth="yes"/>
		</contour>
		<contour>
			<point x="-11.863" y="0" type="line"/>
			<point x="85.137" y="0" type="line"/>
			<point x="85.626" y="118" type="line"/>
			<point x="40.521" y="109" type="line" smooth="yes"/>
			<point x="15.907" y="104"/>
			<point x="-0.321" y="94"/>
			<point x="-3.145" y="71" type="curve" smooth="yes"/>
		</contour>
		<contour>
			<point x="174.647" y="729" type="line"/>
			<point x="77.647" y="729" type="line"/>
			<point x="68.93" y="658" type="line" smooth="yes"/>
			<point x="66.106" y="635"/>
			<point x="79.878" y="625"/>
			<point x="103.264" y="620" type="curve" smooth="yes"/>
			<point x="146.159" y="611" type="line"/>
		</contour>
	</outline>
</glyph>
<glyph name="E" format="2">
	<advance width="599"/>
	<unicode hex="0045"/>
	<anchor x="404.506" y="3" name="ogonek"/>
	<anchor x="271.137" y="0" name="bottom"/>
	<anchor x="360.647" y="729" name="top"/>
	<note>
		E
	</note>
	<outline>
		<contour>
			<point x="65.137" y="0" type="line"/>
			<point x="534.137" y="0" type="line"/>
			<point x="550.099" y="130" type="line"/>
			<point x="251.099" y="130" type="line"/>
			<point x="272.464" y="304" type="line"/>
			<point x="496.464" y="304" type="line"/>
			<point x="511.812" y="429" type="line"/>
			<point x="287.812" y="429" type="line"/>
			<point x="308.685" y="599" type="line"/>
			<point x="607.685" y="599" type="line"/>
			<point x="623.647" y="729" type="line"/>
			<point x="154.647" y="729" type="line"/>
		</contour>
		<contour>
			<point x="438.398" y="108" type="line"/>
			<point x="550.099" y="130" type="line"/>
			<point x="560.659" y="216" type="line"/>
			<point x="504.659" y="216" type="line" smooth="yes"/>
			<point x="481.659" y="216"/>
			<point x="469.817" y="201"/>
			<point x="461.87" y="177" type="curve" smooth="yes"/>
		</contour>
		<contour>
			<point x="501.387" y="621" type="line"/>
			<point x="507.914" y="552" type="line" smooth="yes"/>
			<point x="509.968" y="528"/>
			<point x="518.126" y="513"/>
			<point x="541.126" y="513" type="curve" smooth="yes"/>
			<point x="597.126" y="513" type="line"/>
			<point x="607.685" y="599" type="line"/>
			<point x="501.387" y="621" type="line"/>
		</contour>
		<contour>
			<point x="175.647" y="729" type="line"/>
			<point x="78.647" y="729" type="line"/>
			<point x="69.93" y="658" type="line" smooth="yes"/>
			<point x="67.106" y="635"/>
			<point x="80.878" y="625"/>
			<point x="104.264" y="620" type="curve" smooth="yes"/>
			<point x="147.159" y="611" type="line"/>
		</contour>
		<contour>
			<point x="-11.863" y="0" type="line"/>
			<point x="85.137" y="0" type="line"/>
			<point x="85.626" y="118" type="line"/>
			<point x="40.521" y="109" type="line" smooth="yes"/>
			<point x="15.907" y="104"/>
			<point x="-0.321" y="94"/>
			<point x="-3.145" y="71" type="curve" smooth="yes"/>
		</contour>
	</outline>
</glyph>
<glyph name="F" format="2">
	<advance width="597"/>
	<unicode hex="0046"/>
	<note>
		F
	</note>
	<outline>
		<contour>
			<point x="65.137" y="0" type="line"/>
			<point x="235.137" y="0" type="line"/>
			<point x="270.008" y="284" type="line"/>
			<point x="519.008" y="284" type="line"/>
			<point x="534.97" y="414" type="line"/>
			<point x="285.97" y="414" type="line"/>
			<point x="308.685" y="599" type="line"/>
			<point x="607.685" y="599" type="line"/>
			<point x="623.647" y="729" type="line"/>
			<point x="154.647" y="729" type="line"/>
		</contour>
		<contour>
			<point x="501.387" y="621" type="line"/>
			<point x="507.914" y="552" type="line" smooth="yes"/>
			<point x="509.968" y="528"/>
			<point x="518.126" y="513"/>
			<point x="541.126" y="513" type="curve" smooth="yes"/>
			<point x="597.126" y="513" type="line"/>
			<point x="607.685" y="599" type="line"/>
			<point x="501.387" y="621" type="line"/>
		</contour>
		<contour>
			<point x="174.647" y="729" type="line"/>
			<point x="77.647" y="729" type="line"/>
			<point x="68.93" y="658" type="line" smooth="yes"/>
			<point x="66.106" y="635"/>
			<point x="79.878" y="625"/>
			<point x="103.264" y="620" type="curve" smooth="yes"/>
			<point x="146.159" y="611" type="line"/>
		</contour>
		<contour>
			<point x="-11.863" y="0" type="line"/>
			<point x="85.137" y="0" type="line"/>
			<point x="85.626" y="118" type="line"/>
			<point x="40.521" y="109" type="line" smooth="yes"/>
			<point x="15.907" y="104"/>
			<point x="-0.321" y="94"/>
			<point x="-3.145" y="71" type="curve" smooth="yes"/>
		</contour>
		<contour>
			<point x="215.137" y="0" type="line"/>
			<point x="312.137" y="0" type="line"/>
			<point x="320.855" y="71" type="line" smooth="yes"/>
			<point x="323.679" y="94"/>
			<point x="309.907" y="104"/>
			<point x="286.521" y="109" type="curve" smooth="yes"/>
			<point x="243.626" y="118" type="line"/>
		</contour>
	</outline>
</glyph>
<glyph name="H" format="2">
	<advance width="830"/>
	<unicode hex="0048"/>
	<anchor x="428.322" y="368" name="center"/>
	<anchor x="472.647" y="729" name="top"/>
	<anchor x="87.647" y="729" name="topleft"/>
	<anchor x="383.137" y="0" name="bottom"/>
	<note>
		H
	</note>
	<outline>
		<contour>
			<point x="65.137" y="0" type="line"/>
			<point x="235.137" y="0" type="line"/>
			<point x="272.955" y="308" type="line"/>
			<point x="568.955" y="308" type="line"/>
			<point x="531.137" y="0" type="line"/>
			<point x="701.137" y="0" type="line"/>
			<point x="790.647" y="729" type="line"/>
			<point x="620.647" y="729" type="line"/>
			<point x="583.198" y="424" type="line"/>
			<point x="287.198" y="424" type="line"/>
			<point x="324.647" y="729" type="line"/>
			<point x="154.647" y="729" type="line"/>
		</contour>
		<contour>
			<point x="-11.863" y="0" type="line"/>
			<point x="85.137" y="0" type="line"/>
			<point x="85.626" y="118" type="line"/>
			<point x="40.521" y="109" type="line" smooth="yes"/>
			<point x="15.907" y="104"/>
			<point x="-0.321" y="94"/>
			<point x="-3.145" y="71" type="curve" smooth="yes"/>
		</contour>
		<contour>
			<point x="215.137" y="0" type="line"/>
			<point x="312.137" y="0" type="line"/>
			<point x="320.855" y="71" type="line" smooth="yes"/>
			<point x="323.679" y="94"/>
			<point x="309.907" y="104"/>
			<point x="286.521" y="109" type="curve" smooth="yes"/>
			<point x="243.626" y="118" type="line"/>
		</contour>
		<contour>
			<point x="174.647" y="729" type="line"/>
			<point x="77.647" y="729" type="line"/>
			<point x="68.93" y="658" type="line" smooth="yes"/>
			<point x="66.106" y="635"/>
			<point x="79.878" y="625"/>
			<point x="103.264" y="620" type="curve" smooth="yes"/>
			<point x="146.159" y="611" type="line"/>
		</contour>
		<contour>
			<point x="401.647" y="729" type="line"/>
			<point x="304.647" y="729" type="line"/>
			<point x="304.159" y="611" type="line"/>
			<point x="349.264" y="620" type="line" smooth="yes"/>
			<point x="373.878" y="625"/>
			<point x="390.106" y="635"/>
			<point x="392.93" y="658" type="curve" smooth="yes"/>
		</contour>
		<contour>
			<point x="454.137" y="0" type="line"/>
			<point x="551.137" y="0" type="line"/>
			<point x="551.626" y="118" type="line"/>
			<point x="506.521" y="109" type="line" smooth="yes"/>
			<point x="481.907" y="104"/>
			<point x="465.679" y="94"/>
			<point x="462.855" y="71" type="curve" smooth="yes"/>
		</contour>
		<contour>
			<point x="681.137" y="0" type="line"/>
			<point x="778.137" y="0" type="line"/>
			<point x="786.855" y="71" type="line" smooth="yes"/>
			<point x="789.679" y="94"/>
			<point x="775.907" y="104"/>
			<point x="752.521" y="109" type="curve" smooth="yes"/>
			<point x="709.626" y="118" type="line"/>
		</contour>
		<contour>
			<point x="640.647" y="729" type="line"/>
			<point x="543.647" y="729" type="line"/>
			<point x="534.93" y="658" type="line" smooth="yes"/>
			<point x="532.106" y="635"/>
			<point x="545.878" y="625"/>
			<point x="569.264" y="620" type="curve" smooth="yes"/>
			<point x="612.159" y="611" type="line"/>
		</contour>
		<contour>
			<point x="867.647" y="729" type="line"/>
			<point x="770.647" y="729" type="line"/>
			<point x="770.159" y="611" type="line"/>
			<point x="815.264" y="620" type="line" smooth="yes"/>
			<point x="839.878" y="625"/>
			<point x="856.106" y="635"/>
			<point x="858.93" y="658" type="curve" smooth="yes"/>
		</contour>
	</outline>
</glyph>
<glyph name="I" format="2">
	<advance width="364"/>
	<unicode hex="0049"/>
	<anchor x="142.383" y="2" name="ogonek"/>
	<anchor x="150.137" y="0" name="bottom"/>
	<anchor x="239.647" y="729" name="top"/>
	<note>
		I
	</note>
	<outline>
		<contour>
			<point x="65.137" y="0" type="line"/>
			<point x="235.137" y="0" type="line"/>
			<point x="324.647" y="729" type="line"/>
			<point x="154.647" y="729" type="line"/>
		</contour>
		<contour>
			<point x="-11.863" y="0" type="line"/>
			<point x="85.137" y="0" type="line"/>
			<point x="85.626" y="118" type="line"/>
			<point x="40.521" y="109" type="line" smooth="yes"/>
			<point x="15.907" y="104"/>
			<point x="-0.321" y="94"/>
			<point x="-3.145" y="71" type="curve" smooth="yes"/>
		</contour>
		<contour>
			<point x="215.137" y="0" type="line"/>
			<point x="312.137" y="0" type="line"/>
			<point x="320.855" y="71" type="line" smooth="yes"/>
			<point x="323.679" y="94"/>
			<point x="309.907" y="104"/>
			<point x="286.521" y="109" type="curve" smooth="yes"/>
			<point x="243.626" y="118" type="line"/>
		</contour>
		<contour>
			<point x="174.647" y="729" type="line"/>
			<point x="77.647" y="729" type="line"/>
			<point x="68.93" y="658" type="line" smooth="yes"/>
			<point x="66.106" y="635"/>
			<point x="79.878" y="625"/>
			<point x="103.264" y="620" type="curve" smooth="yes"/>
			<point x="146.159" y="611" type="line"/>
		</contour>
		<contour>
			<point x="401.647" y="729" type="line"/>
			<point x="304.647" y="729" type="line"/>
			<point x="304.159" y="611" type="line"/>
			<point x="349.264" y="620" type="line" smooth="yes"/>
			<point x="373.878" y="625"/>
			<point x="390.106" y="635"/>
			<point x="392.93" y="658" type="curve" smooth="yes"/>
		</contour>
	</outline>
</glyph>
<glyph name="J" format="2">
	<advance width="460"/>
	<unicode hex="004A"/>
	<anchor x="336.647" y="729" name="top"/>
	<note>
		J
	</note>
	<outline>
		<contour>
			<point x="78.155" y="-8" type="curve" smooth="yes"/>
			<point x="250.155" y="-8"/>
			<point x="344.539" y="101"/>
			<point x="364.553" y="264" type="curve" smooth="yes"/>
			<point x="421.647" y="729" type="line"/>
			<point x="251.647" y="729" type="line"/>
			<point x="194.184" y="261" type="line" smooth="yes"/>
			<point x="182.274" y="164"/>
			<point x="150.731" y="127"/>
			<point x="73.731" y="127" type="curve" smooth="yes"/>
			<point x="71.731" y="127"/>
			<point x="66.731" y="127"/>
			<point x="52.099" y="130" type="curve" smooth="yes"/>
			<point x="36.468" y="133"/>
			<point x="36.468" y="133"/>
			<point x="30.468" y="133" type="curve" smooth="yes"/>
			<point x="9.468" y="133"/>
			<point x="-4.76" y="123"/>
			<point x="-9.093" y="104" type="curve" smooth="yes"/>
			<point x="-30.249" y="5" type="line"/>
			<point x="8.646" y="-4"/>
			<point x="42.155" y="-8"/>
		</contour>
		<contour>
			<point x="271.647" y="729" type="line"/>
			<point x="174.647" y="729" type="line"/>
			<point x="165.93" y="658" type="line" smooth="yes"/>
			<point x="163.106" y="635"/>
			<point x="176.878" y="625"/>
			<point x="200.264" y="620" type="curve" smooth="yes"/>
			<point x="243.159" y="611" type="line"/>
		</contour>
		<contour>
			<point x="498.647" y="729" type="line"/>
			<point x="401.647" y="729" type="line"/>
			<point x="401.159" y="611" type="line"/>
			<point x="446.264" y="620" type="line" smooth="yes"/>
			<point x="470.878" y="625"/>
			<point x="487.106" y="635"/>
			<point x="489.93" y="658" type="curve" smooth="yes"/>
		</contour>
	</outline>
</glyph>
<glyph name="L" format="2">
	<advance width="557"/>
	<unicode hex="004C"/>
	<anchor x="191.971" y="357" name="center"/>
	<anchor x="271.137" y="0" name="bottom"/>
	<anchor x="246.647" y="729" name="top"/>
	<note>
		L
	</note>
	<outline>
		<contour>
			<point x="65.137" y="0" type="line"/>
			<point x="515.137" y="0" type="line"/>
			<point x="531.713" y="135" type="line"/>
			<point x="251.713" y="135" type="line"/>
			<point x="324.647" y="729" type="line"/>
			<point x="154.647" y="729" type="line"/>
		</contour>
		<contour>
			<point x="420.012" y="113" type="line"/>
			<point x="531.713" y="135" type="line"/>
			<point x="542.273" y="221" type="line"/>
			<point x="486.273" y="221" type="line" smooth="yes"/>
			<point x="463.273" y="221"/>
			<point x="451.431" y="206"/>
			<point x="443.484" y="182" type="curve" smooth="yes"/>
		</contour>
		<contour>
			<point x="-11.863" y="0" type="line"/>
			<point x="85.137" y="0" type="line"/>
			<point x="85.626" y="118" type="line"/>
			<point x="40.521" y="109" type="line" smooth="yes"/>
			<point x="15.907" y="104"/>
			<point x="-0.321" y="94"/>
			<point x="-3.145" y="71" type="curve" smooth="yes"/>
		</contour>
		<contour>
			<point x="174.647" y="729" type="line"/>
			<point x="77.647" y="729" type="line"/>
			<point x="68.93" y="658" type="line" smooth="yes"/>
			<point x="66.106" y="635"/>
			<point x="79.878" y="625"/>
			<point x="103.264" y="620" type="curve" smooth="yes"/>
			<point x="146.159" y="611" type="line"/>
		</contour>
		<contour>
			<point x="401.647" y="729" type="line"/>
			<point x="304.647" y="729" type="line"/>
			<point x="304.159" y="611" type="line"/>
			<point x="349.264" y="620" type="line" smooth="yes"/>
			<point x="373.878" y="625"/>
			<point x="390.106" y="635"/>
			<point x="392.93" y="658" type="curve" smooth="yes"/>
		</contour>
	</outline>
</glyph>
<glyph name="M" format="2">
	<advance width="1013"/>
	<unicode hex="004D"/>
	<anchor x="567.103" y="749" name="top"/>
	<anchor x="475.137" y="0" name="bottom"/>
	<note>
		M
	</note>
	<outline>
		<contour>
			<point x="65.137" y="0" type="line"/>
			<point x="214.137" y="0" type="line"/>
			<point x="265.584" y="419" type="line" smooth="yes"/>
			<point x="268.04" y="439"/>
			<point x="269.864" y="462"/>
			<point x="269.811" y="486" type="curve"/>
			<point x="417.766" y="111" type="line" smooth="yes"/>
			<point x="426.942" y="88"/>
			<point x="446.346" y="75"/>
			<point x="472.346" y="75" type="curve" smooth="yes"/>
			<point x="495.346" y="75" type="line" smooth="yes"/>
			<point x="521.346" y="75"/>
			<point x="543.82" y="87"/>
			<point x="558.766" y="111" type="curve" smooth="yes"/>
			<point x="797.688" y="485" type="line"/>
			<point x="792.864" y="462"/>
			<point x="789.163" y="440"/>
			<point x="786.584" y="419" type="curve" smooth="yes"/>
			<point x="735.137" y="0" type="line"/>
			<point x="884.137" y="0" type="line"/>
			<point x="973.647" y="729" type="line"/>
			<point x="844.647" y="729" type="line" smooth="yes"/>
			<point x="815.647" y="729"/>
			<point x="801.525" y="728"/>
			<point x="785.455" y="703" type="curve" smooth="yes"/>
			<point x="553.27" y="335" type="line" smooth="yes"/>
			<point x="535.955" y="308"/>
			<point x="517.903" y="275"/>
			<point x="506.079" y="252" type="curve"/>
			<point x="497.517" y="280"/>
			<point x="488.955" y="308"/>
			<point x="479.025" y="333" type="curve"/>
			<point x="336.455" y="703" type="line" smooth="yes"/>
			<point x="326.525" y="728"/>
			<point x="314.647" y="729"/>
			<point x="283.647" y="729" type="curve" smooth="yes"/>
			<point x="154.647" y="729" type="line"/>
		</contour>
		<contour>
			<point x="-11.863" y="0" type="line"/>
			<point x="85.137" y="0" type="line"/>
			<point x="85.626" y="118" type="line"/>
			<point x="40.521" y="109" type="line" smooth="yes"/>
			<point x="15.907" y="104"/>
			<point x="-0.321" y="94"/>
			<point x="-3.145" y="71" type="curve" smooth="yes"/>
		</contour>
		<contour>
			<point x="195.137" y="0" type="line"/>
			<point x="292.137" y="0" type="line"/>
			<point x="300.855" y="71" type="line" smooth="yes"/>
			<point x="303.679" y="94"/>
			<point x="289.907" y="104"/>
			<point x="266.521" y="109" type="curve" smooth="yes"/>
			<point x="223.626" y="118" type="line"/>
		</contour>
		<contour>
			<point x="174.647" y="729" type="line"/>
			<point x="77.647" y="729" type="line"/>
			<point x="68.93" y="658" type="line" smooth="yes"/>
			<point x="66.106" y="635"/>
			<point x="79.878" y="625"/>
			<point x="103.264" y="620" type="curve" smooth="yes"/>
			<point x="146.159" y="611" type="line"/>
		</contour>
		<contour>
			<point x="657.137" y="0" type="line"/>
			<point x="754.137" y="0" type="line"/>
			<point x="754.626" y="118" type="line"/>
			<point x="709.521" y="109" type="line" smooth="yes"/>
			<point x="684.907" y="104"/>
			<point x="668.679" y="94"/>
			<point x="665.855" y="71" type="curve" smooth="yes"/>
		</contour>
		<contour>
			<point x="864.137" y="0" type="line"/>
			<point x="961.137" y="0" type="line"/>
			<point x="969.855" y="71" type="line" smooth="yes"/>
			<point x="972.679" y="94"/>
			<point x="958.907" y="104"/>
			<point x="935.521" y="109" type="curve" smooth="yes"/>
			<point x="892.626" y="118" type="line"/>
		</contour>
		<contour>
			<point x="1050.647" y="729" type="line"/>
			<point x="953.647" y="729" type="line"/>
			<point x="953.159" y="611" type="line"/>
			<point x="998.264" y="620" type="line" smooth="yes"/>
			<point x="1022.878" y="625"/>
			<point x="1039.106" y="635"/>
			<point x="1041.93" y="658" type="curve" smooth="yes"/>
		</contour>
	</outline>
</glyph>
<glyph name="N" format="2">
	<advance width="839"/>
	<unicode hex="004E"/>
	<anchor x="467.647" y="729" name="top"/>
	<anchor x="378.137" y="0" name="bottom"/>
	<note>
		N
	</note>
	<outline>
		<contour>
			<point x="65.137" y="0" type="line"/>
			<point x="214.137" y="0" type="line"/>
			<point x="262.146" y="391" type="line" smooth="yes"/>
			<point x="266.321" y="425"/>
			<point x="267.426" y="434"/>
			<point x="267.864" y="462" type="curve"/>
			<point x="557.575" y="28" type="line" smooth="yes"/>
			<point x="571.874" y="6"/>
			<point x="588.137" y="0"/>
			<point x="613.137" y="0" type="curve" smooth="yes"/>
			<point x="701.137" y="0" type="line"/>
			<point x="790.647" y="729" type="line"/>
			<point x="641.647" y="729" type="line"/>
			<point x="594.253" y="343" type="line" smooth="yes"/>
			<point x="591.428" y="320"/>
			<point x="589.113" y="293"/>
			<point x="588.675" y="265" type="curve"/>
			<point x="296.455" y="703" type="line"/>
			<point x="281.033" y="724"/>
			<point x="271.647" y="729"/>
			<point x="243.647" y="729" type="curve"/>
			<point x="154.647" y="729" type="line"/>
		</contour>
		<contour>
			<point x="-11.863" y="0" type="line"/>
			<point x="85.137" y="0" type="line"/>
			<point x="85.626" y="118" type="line"/>
			<point x="40.521" y="109" type="line" smooth="yes"/>
			<point x="15.907" y="104"/>
			<point x="-0.321" y="94"/>
			<point x="-3.145" y="71" type="curve" smooth="yes"/>
		</contour>
		<contour>
			<point x="195.137" y="0" type="line"/>
			<point x="292.137" y="0" type="line"/>
			<point x="300.855" y="71" type="line" smooth="yes"/>
			<point x="303.679" y="94"/>
			<point x="289.907" y="104"/>
			<point x="266.521" y="109" type="curve" smooth="yes"/>
			<point x="223.626" y="118" type="line"/>
		</contour>
		<contour>
			<point x="174.647" y="729" type="line"/>
			<point x="77.647" y="729" type="line"/>
			<point x="68.93" y="658" type="line" smooth="yes"/>
			<point x="66.106" y="635"/>
			<point x="79.878" y="625"/>
			<point x="103.264" y="620" type="curve" smooth="yes"/>
			<point x="146.159" y="611" type="line"/>
		</contour>
		<contour>
			<point x="660.647" y="729" type="line"/>
			<point x="563.647" y="729" type="line"/>
			<point x="554.93" y="658" type="line" smooth="yes"/>
			<point x="552.106" y="635"/>
			<point x="565.878" y="625"/>
			<point x="589.264" y="620" type="curve" smooth="yes"/>
			<point x="632.159" y="611" type="line"/>
		</contour>
		<contour>
			<point x="868.647" y="729" type="line"/>
			<point x="771.647" y="729" type="line"/>
			<point x="771.159" y="611" type="line"/>
			<point x="816.264" y="620" type="line" smooth="yes"/>
			<point x="840.878" y="625"/>
			<point x="857.106" y="635"/>
			<point x="859.93" y="658" type="curve" smooth="yes"/>
		</contour>
	</outline>
</glyph>
<glyph name="O" format="2">
	<advance width="787"/>
	<unicode hex="004F"/>
	<anchor x="407.182" y="375" name="center"/>
	<anchor x="365.506" y="3" name="ogonek"/>
	<anchor x="453.103" y="749" name="top"/>
	<anchor x="833.103" y="749" name="topright"/>
	<anchor x="73.103" y="749" name="topleft"/>
	<anchor x="361.137" y="0" name="bottom"/>
	<note>
		O
	</note>
	<outline>
		<contour>
			<point x="361.155" y="-8" type="curve" smooth="yes"/>
			<point x="474.155" y="-8"/>
			<point x="575.067" y="32"/>
			<point x="649.416" y="100" type="curve" smooth="yes"/>
			<point x="723.642" y="167"/>
			<point x="772.061" y="260"/>
			<point x="784.954" y="365" type="curve" smooth="yes"/>
			<point x="797.723" y="469"/>
			<point x="772.142" y="562"/>
			<point x="714.369" y="629" type="curve" smooth="yes"/>
			<point x="656.595" y="696"/>
			<point x="565.63" y="737"/>
			<point x="452.63" y="737" type="curve" smooth="yes"/>
			<point x="339.63" y="737"/>
			<point x="239.718" y="697"/>
			<point x="165.492" y="630" type="curve" smooth="yes"/>
			<point x="91.265" y="563"/>
			<point x="40.846" y="470"/>
			<point x="27.954" y="365" type="curve" smooth="yes"/>
			<point x="15.061" y="260"/>
			<point x="42.642" y="167"/>
			<point x="100.416" y="100" type="curve" smooth="yes"/>
			<point x="158.067" y="32"/>
			<point x="248.155" y="-8"/>
		</contour>
		<contour>
			<point x="378.345" y="132" type="curve" smooth="yes"/>
			<point x="247.345" y="132"/>
			<point x="183.518" y="223"/>
			<point x="200.954" y="365" type="curve" smooth="yes"/>
			<point x="218.266" y="506"/>
			<point x="304.44" y="597"/>
			<point x="435.44" y="597" type="curve" smooth="yes"/>
			<point x="566.44" y="597"/>
			<point x="629.389" y="507"/>
			<point x="611.954" y="365" type="curve" smooth="yes"/>
			<point x="594.396" y="222"/>
			<point x="509.345" y="132"/>
		</contour>
	</outline>
</glyph>
<glyph name="P" format="2">
	<advance width="666"/>
	<unicode hex="0050"/>
	<note>
		P
	</note>
	<outline>
		<contour>
			<point x="65.137" y="0" type="line"/>
			<point x="234.137" y="0" type="line"/>
			<point x="264.097" y="244" type="line"/>
			<point x="352.097" y="244" type="line" smooth="yes"/>
			<point x="528.097" y="244"/>
			<point x="654.797" y="323"/>
			<point x="675.425" y="491" type="curve" smooth="yes"/>
			<point x="694.825" y="649"/>
			<point x="586.647" y="729"/>
			<point x="411.647" y="729" type="curve" smooth="yes"/>
			<point x="154.647" y="729" type="line"/>
		</contour>
		<contour>
			<point x="279.69" y="371" type="line"/>
			<point x="308.054" y="602" type="line"/>
			<point x="396.054" y="602" type="line" smooth="yes"/>
			<point x="477.054" y="602"/>
			<point x="515.02" y="561"/>
			<point x="506.425" y="491" type="curve" smooth="yes"/>
			<point x="497.093" y="415"/>
			<point x="455.69" y="371"/>
			<point x="367.69" y="371" type="curve" smooth="yes"/>
		</contour>
		<contour>
			<point x="-11.863" y="0" type="line"/>
			<point x="85.137" y="0" type="line"/>
			<point x="85.626" y="118" type="line"/>
			<point x="40.521" y="109" type="line" smooth="yes"/>
			<point x="15.907" y="104"/>
			<point x="-0.321" y="94"/>
			<point x="-3.145" y="71" type="curve" smooth="yes"/>
		</contour>
		<contour>
			<point x="174.647" y="729" type="line"/>
			<point x="77.647" y="729" type="line"/>
			<point x="68.93" y="658" type="line" smooth="yes"/>
			<point x="66.106" y="635"/>
			<point x="79.878" y="625"/>
			<point x="103.264" y="620" type="curve" smooth="yes"/>
			<point x="146.159" y="611" type="line"/>
		</contour>
		<contour>
			<point x="214.137" y="0" type="line"/>
			<point x="311.137" y="0" type="line"/>
			<point x="319.855" y="71" type="line" smooth="yes"/>
			<point x="322.679" y="94"/>
			<point x="308.907" y="104"/>
			<point x="285.521" y="109" type="curve" smooth="yes"/>
			<point x="242.626" y="118" type="line"/>
		</contour>
	</outline>
</glyph>
<glyph name="Q" format="2">
	<advance width="791"/>
	<unicode hex="0051"/>
	<note>
		Q
	</note>
	<outline>
		<contour>
			<point x="625.316" y="-137" type="curve" smooth="yes"/>
			<point x="764.316" y="-137" type="line"/>
			<point x="605.118" y="65" type="line"/>
			<point x="705.468" y="133"/>
			<point x="769.974" y="243"/>
			<point x="784.954" y="365" type="curve" smooth="yes"/>
			<point x="797.723" y="469"/>
			<point x="772.142" y="562"/>
			<point x="714.369" y="629" type="curve" smooth="yes"/>
			<point x="656.595" y="696"/>
			<point x="565.63" y="737"/>
			<point x="452.63" y="737" type="curve" smooth="yes"/>
			<point x="339.63" y="737"/>
			<point x="239.718" y="697"/>
			<point x="165.492" y="630" type="curve" smooth="yes"/>
			<point x="91.265" y="563"/>
			<point x="40.846" y="470"/>
			<point x="27.954" y="365" type="curve" smooth="yes"/>
			<point x="15.061" y="260"/>
			<point x="42.642" y="167"/>
			<point x="100.416" y="100" type="curve" smooth="yes"/>
			<point x="158.067" y="32"/>
			<point x="248.155" y="-8"/>
			<point x="361.155" y="-8" type="curve" smooth="yes"/>
			<point x="393.155" y="-8"/>
			<point x="424.523" y="-5"/>
			<point x="454.383" y="2" type="curve"/>
			<point x="531.859" y="-100" type="line" smooth="yes"/>
			<point x="553.298" y="-129"/>
			<point x="585.316" y="-137"/>
		</contour>
		<contour>
			<point x="378.345" y="132" type="curve" smooth="yes"/>
			<point x="247.345" y="132"/>
			<point x="183.518" y="223"/>
			<point x="200.954" y="365" type="curve" smooth="yes"/>
			<point x="218.266" y="506"/>
			<point x="304.44" y="597"/>
			<point x="435.44" y="597" type="curve" smooth="yes"/>
			<point x="566.44" y="597"/>
			<point x="629.389" y="507"/>
			<point x="611.954" y="365" type="curve" smooth="yes"/>
			<point x="594.396" y="222"/>
			<point x="509.345" y="132"/>
		</contour>
	</outline>
</glyph>
<glyph name="S" format="2">
	<advance width="574"/>
	<unicode hex="0053"/>
	<anchor x="344.647" y="729" name="top"/>
	<anchor x="255.137" y="0" name="bottom"/>
	<note>
		S
	</note>
	<outline>
		<contour>
			<point x="240.155" y="-8" type="curve" smooth="yes"/>
			<point x="400.155" y="-8"/>
			<point x="513.556" y="93"/>
			<point x="530.869" y="234" type="curve" smooth="yes"/>
			<point x="545.112" y="350"/>
			<point x="478.883" y="397"/>
			<point x="392.812" y="429" type="curve" smooth="yes"/>
			<point x="320.882" y="454"/>
			<point x="234.846" y="470"/>
			<point x="242.09" y="529" type="curve" smooth="yes"/>
			<point x="247.616" y="574"/>
			<point x="282.299" y="604"/>
			<point x="345.299" y="604" type="curve" smooth="yes"/>
			<point x="405.299" y="604"/>
			<point x="444.703" y="591"/>
			<point x="483.616" y="574" type="curve"/>
			<point x="553.844" y="584" type="line"/>
			<point x="564.157" y="668" type="line"/>
			<point x="516.56" y="712"/>
			<point x="436.63" y="737"/>
			<point x="359.63" y="737" type="curve" smooth="yes"/>
			<point x="209.63" y="737"/>
			<point x="97.597" y="639"/>
			<point x="82.985" y="520" type="curve" smooth="yes"/>
			<point x="67.515" y="394"/>
			<point x="131.498" y="345"/>
			<point x="220.815" y="315" type="curve" smooth="yes"/>
			<point x="293.745" y="290"/>
			<point x="377.394" y="279"/>
			<point x="369.045" y="211" type="curve" smooth="yes"/>
			<point x="361.801" y="152"/>
			<point x="322.608" y="126"/>
			<point x="261.608" y="126" type="curve" smooth="yes"/>
			<point x="203.608" y="126"/>
			<point x="141.222" y="131"/>
			<point x="87.151" y="163" type="curve"/>
			<point x="28.959" y="137" type="line"/>
			<point x="15.821" y="30" type="line"/>
			<point x="90.383" y="2"/>
			<point x="152.155" y="-8"/>
		</contour>
		<contour>
			<point x="447.545" y="606" type="line"/>
			<point x="454.073" y="537" type="line" smooth="yes"/>
			<point x="456.126" y="513"/>
			<point x="464.284" y="498"/>
			<point x="487.284" y="498" type="curve" smooth="yes"/>
			<point x="543.284" y="498" type="line"/>
			<point x="553.844" y="584" type="line"/>
			<point x="447.545" y="606" type="line"/>
		</contour>
		<contour>
			<point x="135.258" y="115" type="line"/>
			<point x="128.73" y="184" type="line" smooth="yes"/>
			<point x="126.677" y="208"/>
			<point x="118.518" y="223"/>
			<point x="95.518" y="223" type="curve" smooth="yes"/>
			<point x="39.518" y="223" type="line"/>
			<point x="28.959" y="137" type="line"/>
			<point x="135.258" y="115" type="line"/>
		</contour>
	</outline>
</glyph>
<glyph name="T" format="2">
	<advance width="603"/>
	<unicode hex="0054"/>
	<anchor x="314.954" y="365" name="center"/>
	<anchor x="270.137" y="0" name="bottom"/>
	<anchor x="359.647" y="729" name="top"/>
	<note>
		T
	</note>
	<outline>
		<contour>
			<point x="185.137" y="0" type="line"/>
			<point x="354.137" y="0" type="line"/>
			<point x="427.194" y="595" type="line"/>
			<point x="632.194" y="595" type="line"/>
			<point x="648.647" y="729" type="line"/>
			<point x="69.647" y="729" type="line"/>
			<point x="53.194" y="595" type="line"/>
			<point x="258.194" y="595" type="line"/>
		</contour>
		<contour>
			<point x="108.137" y="0" type="line"/>
			<point x="205.137" y="0" type="line"/>
			<point x="205.626" y="118" type="line"/>
			<point x="160.521" y="109" type="line" smooth="yes"/>
			<point x="135.907" y="104"/>
			<point x="119.679" y="94"/>
			<point x="116.855" y="71" type="curve" smooth="yes"/>
		</contour>
		<contour>
			<point x="334.137" y="0" type="line"/>
			<point x="431.137" y="0" type="line"/>
			<point x="439.855" y="71" type="line" smooth="yes"/>
			<point x="442.679" y="94"/>
			<point x="428.907" y="104"/>
			<point x="405.521" y="109" type="curve" smooth="yes"/>
			<point x="362.626" y="118" type="line"/>
		</contour>
		<contour>
			<point x="525.895" y="617" type="line"/>
			<point x="532.423" y="548" type="line" smooth="yes"/>
			<point x="534.477" y="524"/>
			<point x="542.635" y="509"/>
			<point x="565.635" y="509" type="curve" smooth="yes"/>
			<point x="621.635" y="509" type="line"/>
			<point x="632.194" y="595" type="line"/>
			<point x="525.895" y="617" type="line"/>
		</contour>
		<contour>
			<point x="164.895" y="617" type="line"/>
			<point x="53.194" y="595" type="line"/>
			<point x="42.635" y="509" type="line"/>
			<point x="98.635" y="509" type="line" smooth="yes"/>
			<point x="121.635" y="509"/>
			<point x="133.477" y="524"/>
			<point x="141.423" y="548" type="curve" smooth="yes"/>
		</contour>
	</outline>
</glyph>
<glyph name="V" format="2">
	<advance width="815"/>
	<unicode hex="0056"/>
	<anchor x="465.647" y="729" name="top"/>
	<anchor x="376.137" y="0" name="bottom"/>
	<note>
		V
	</note>
	<outline>
		<contour>
			<point x="299.137" y="0" type="line"/>
			<point x="452.137" y="0" type="line"/>
			<point x="833.647" y="729" type="line"/>
			<point x="696.647" y="729" type="line" smooth="yes"/>
			<point x="668.647" y="729"/>
			<point x="646.437" y="711"/>
			<point x="637.104" y="692" type="curve" smooth="yes"/>
			<point x="449.218" y="302" type="line" smooth="yes"/>
			<point x="433.166" y="269"/>
			<point x="415.132" y="228"/>
			<point x="400.73" y="184" type="curve"/>
			<point x="394.132" y="228"/>
			<point x="385.044" y="268"/>
			<point x="377.218" y="302" type="curve" smooth="yes"/>
			<point x="284.104" y="692" type="line" smooth="yes"/>
			<point x="278.928" y="715"/>
			<point x="261.647" y="729"/>
			<point x="232.647" y="729" type="curve" smooth="yes"/>
			<point x="96.647" y="729" type="line"/>
		</contour>
		<contour>
			<point x="220.982" y="691" type="line"/>
			<point x="294.982" y="691" type="line"/>
			<point x="299.647" y="729" type="line"/>
			<point x="225.647" y="729" type="line"/>
		</contour>
		<contour>
			<point x="643.982" y="691" type="line"/>
			<point x="717.982" y="691" type="line"/>
			<point x="722.647" y="729" type="line"/>
			<point x="648.647" y="729" type="line"/>
		</contour>
		<contour>
			<point x="162.647" y="729" type="line"/>
			<point x="65.647" y="729" type="line"/>
			<point x="56.93" y="658" type="line" smooth="yes"/>
			<point x="54.106" y="635"/>
			<point x="67.878" y="625"/>
			<point x="91.264" y="620" type="curve" smooth="yes"/>
			<point x="134.159" y="611" type="line"/>
		</contour>
		<contour>
			<point x="366.647" y="729" type="line"/>
			<point x="269.647" y="729" type="line"/>
			<point x="269.159" y="611" type="line"/>
			<point x="314.264" y="620" type="line" smooth="yes"/>
			<point x="338.878" y="625"/>
			<point x="355.106" y="635"/>
			<point x="357.93" y="658" type="curve" smooth="yes"/>
		</contour>
		<contour>
			<point x="660.647" y="729" type="line"/>
			<point x="563.647" y="729" type="line"/>
			<point x="554.93" y="658" type="line" smooth="yes"/>
			<point x="552.106" y="635"/>
			<point x="565.878" y="625"/>
			<point x="589.264" y="620" type="curve" smooth="yes"/>
			<point x="632.159" y="611" type="line"/>
		</contour>
		<contour>
			<point x="864.647" y="729" type="line"/>
			<point x="767.647" y="729" type="line"/>
			<point x="767.159" y="611" type="line"/>
			<point x="812.264" y="620" type="line" smooth="yes"/>
			<point x="836.878" y="625"/>
			<point x="853.106" y="635"/>
			<point x="855.93" y="658" type="curve" smooth="yes"/>
		</contour>
	</outline>
</glyph>
<glyph name="X" format="2">
	<advance width="718"/>
	<unicode hex="0058"/>
	<anchor x="416.647" y="729" name="top"/>
	<anchor x="327.137" y="0" name="bottom"/>
	<note>
		X
	</note>
	<outline>
		<contour>
			<point x="-23.863" y="0" type="line"/>
			<point x="134.137" y="0" type="line" smooth="yes"/>
			<point x="154.137" y="0"/>
			<point x="168.856" y="14"/>
			<point x="178.453" y="27" type="curve" smooth="yes"/>
			<point x="343.43" y="263" type="line" smooth="yes"/>
			<point x="347.044" y="268"/>
			<point x="350.903" y="275"/>
			<point x="354.763" y="282" type="curve"/>
			<point x="469.453" y="27" type="line" smooth="yes"/>
			<point x="475.734" y="13"/>
			<point x="488.137" y="0"/>
			<point x="509.137" y="0" type="curve" smooth="yes"/>
			<point x="678.137" y="0" type="line"/>
			<point x="492.041" y="382" type="line"/>
			<point x="762.647" y="729" type="line"/>
			<point x="600.647" y="729" type="line" smooth="yes"/>
			<point x="586.647" y="729"/>
			<point x="573.788" y="722"/>
			<point x="564.069" y="708" type="curve" smooth="yes"/>
			<point x="410.302" y="490" type="line" smooth="yes"/>
			<point x="407.811" y="486"/>
			<point x="400.46" y="475"/>
			<point x="394.232" y="465" type="curve"/>
			<point x="279.314" y="710" type="line" smooth="yes"/>
			<point x="272.911" y="723"/>
			<point x="266.647" y="729"/>
			<point x="243.647" y="729" type="curve" smooth="yes"/>
			<point x="74.647" y="729" type="line"/>
			<point x="257.182" y="375" type="line"/>
		</contour>
		<contour>
			<point x="130.137" y="0" type="line"/>
			<point x="204.137" y="0" type="line"/>
			<point x="213.715" y="78" type="line"/>
			<point x="139.715" y="78" type="line"/>
		</contour>
		<contour>
			<point x="446.137" y="0" type="line"/>
			<point x="520.137" y="0" type="line"/>
			<point x="529.715" y="78" type="line"/>
			<point x="455.715" y="78" type="line"/>
		</contour>
		<contour>
			<point x="229.982" y="691" type="line"/>
			<point x="303.982" y="691" type="line"/>
			<point x="308.647" y="729" type="line"/>
			<point x="234.647" y="729" type="line"/>
		</contour>
		<contour>
			<point x="527.912" y="666" type="line"/>
			<point x="601.912" y="666" type="line"/>
			<point x="609.647" y="729" type="line"/>
			<point x="535.647" y="729" type="line"/>
		</contour>
		<contour>
			<point x="171.647" y="729" type="line"/>
			<point x="74.647" y="729" type="line"/>
			<point x="65.93" y="658" type="line" smooth="yes"/>
			<point x="63.106" y="635"/>
			<point x="76.878" y="625"/>
			<point x="100.264" y="620" type="curve" smooth="yes"/>
			<point x="143.159" y="611" type="line"/>
		</contour>
		<contour>
			<point x="375.647" y="729" type="line"/>
			<point x="278.647" y="729" type="line"/>
			<point x="278.159" y="611" type="line"/>
			<point x="323.264" y="620" type="line" smooth="yes"/>
			<point x="347.878" y="625"/>
			<point x="364.106" y="635"/>
			<point x="366.93" y="658" type="curve" smooth="yes"/>
		</contour>
		<contour>
			<point x="558.647" y="729" type="line"/>
			<point x="461.647" y="729" type="line"/>
			<point x="452.93" y="658" type="line" smooth="yes"/>
			<point x="450.106" y="635"/>
			<point x="463.878" y="625"/>
			<point x="487.264" y="620" type="curve" smooth="yes"/>
			<point x="530.159" y="611" type="line"/>
		</contour>
		<contour>
			<point x="762.647" y="729" type="line"/>
			<point x="665.647" y="729" type="line"/>
			<point x="665.159" y="611" type="line"/>
			<point x="710.264" y="620" type="line" smooth="yes"/>
			<point x="734.878" y="625"/>
			<point x="751.106" y="635"/>
			<point x="753.93" y="658" type="curve" smooth="yes"/>
		</contour>
		<contour>
			<point x="-23.863" y="0" type="line"/>
			<point x="73.137" y="0" type="line"/>
			<point x="73.626" y="118" type="line"/>
			<point x="28.521" y="109" type="line" smooth="yes"/>
			<point x="3.907" y="104"/>
			<point x="-12.321" y="94"/>
			<point x="-15.145" y="71" type="curve" smooth="yes"/>
		</contour>
		<contour>
			<point x="180.137" y="0" type="line"/>
			<point x="277.137" y="0" type="line"/>
			<point x="285.855" y="71" type="line" smooth="yes"/>
			<point x="288.679" y="94"/>
			<point x="274.907" y="104"/>
			<point x="251.521" y="109" type="curve" smooth="yes"/>
			<point x="208.626" y="118" type="line"/>
		</contour>
		<contour>
			<point x="581.137" y="0" type="line"/>
			<point x="678.137" y="0" type="line"/>
			<point x="686.855" y="71" type="line" smooth="yes"/>
			<point x="689.679" y="94"/>
			<point x="675.907" y="104"/>
			<point x="652.521" y="109" type="curve" smooth="yes"/>
			<point x="609.626" y="118" type="line"/>
		</contour>
		<contour>
			<point x="377.137" y="0" type="line"/>
			<point x="474.137" y="0" type="line"/>
			<point x="474.626" y="118" type="line"/>
			<point x="429.521" y="109" type="line" smooth="yes"/>
			<point x="404.907" y="104"/>
			<point x="388.679" y="94"/>
			<point x="385.855" y="71" type="curve" smooth="yes"/>
		</contour>
	</outline>
</glyph>
<glyph name="Y" format="2">
	<advance width="713"/>
	<unicode hex="0059"/>
	<anchor x="414.647" y="729" name="top"/>
	<anchor x="325.137" y="0" name="bottom"/>
	<anchor x="135.647" y="729" name="topleft"/>
	<note>
		Y
	</note>
	<outline>
		<contour>
			<point x="240.137" y="0" type="line"/>
			<point x="409.137" y="0" type="line"/>
			<point x="443.149" y="277" type="line"/>
			<point x="762.647" y="729" type="line"/>
			<point x="612.647" y="729" type="line" smooth="yes"/>
			<point x="588.647" y="729"/>
			<point x="564.314" y="710"/>
			<point x="553.104" y="692" type="curve" smooth="yes"/>
			<point x="425.074" y="480" type="line" smooth="yes"/>
			<point x="401.285" y="441"/>
			<point x="383.725" y="412"/>
			<point x="374.146" y="391" type="curve"/>
			<point x="366.584" y="419"/>
			<point x="354.899" y="446"/>
			<point x="343.074" y="480" type="curve" smooth="yes"/>
			<point x="266.104" y="692" type="line" smooth="yes"/>
			<point x="258.683" y="713"/>
			<point x="243.647" y="729"/>
			<point x="214.647" y="729" type="curve" smooth="yes"/>
			<point x="65.647" y="729" type="line"/>
			<point x="274.149" y="277" type="line"/>
		</contour>
		<contour>
			<point x="204.912" y="666" type="line"/>
			<point x="278.912" y="666" type="line"/>
			<point x="286.647" y="729" type="line"/>
			<point x="212.647" y="729" type="line"/>
		</contour>
		<contour>
			<point x="534.912" y="666" type="line"/>
			<point x="608.912" y="666" type="line"/>
			<point x="616.647" y="729" type="line"/>
			<point x="542.647" y="729" type="line"/>
		</contour>
		<contour>
			<point x="162.647" y="729" type="line"/>
			<point x="65.647" y="729" type="line"/>
			<point x="56.93" y="658" type="line" smooth="yes"/>
			<point x="54.106" y="635"/>
			<point x="67.878" y="625"/>
			<point x="91.264" y="620" type="curve" smooth="yes"/>
			<point x="134.159" y="611" type="line"/>
		</contour>
		<contour>
			<point x="352.647" y="729" type="line"/>
			<point x="255.647" y="729" type="line"/>
			<point x="255.159" y="611" type="line"/>
			<point x="300.264" y="620" type="line" smooth="yes"/>
			<point x="324.878" y="625"/>
			<point x="341.106" y="635"/>
			<point x="343.93" y="658" type="curve" smooth="yes"/>
		</contour>
		<contour>
			<point x="572.647" y="729" type="line"/>
			<point x="475.647" y="729" type="line"/>
			<point x="466.93" y="658" type="line" smooth="yes"/>
			<point x="464.106" y="635"/>
			<point x="477.878" y="625"/>
			<point x="501.264" y="620" type="curve" smooth="yes"/>
			<point x="544.159" y="611" type="line"/>
		</contour>
		<contour>
			<point x="762.647" y="729" type="line"/>
			<point x="665.647" y="729" type="line"/>
			<point x="665.159" y="611" type="line"/>
			<point x="710.264" y="620" type="line" smooth="yes"/>
			<point x="734.878" y="625"/>
			<point x="751.106" y="635"/>
			<point x="753.93" y="658" type="curve" smooth="yes"/>
		</contour>
		<contour>
			<point x="163.137" y="0" type="line"/>
			<point x="260.137" y="0" type="line"/>
			<point x="260.626" y="118" type="line"/>
			<point x="215.521" y="109" type="line" smooth="yes"/>
			<point x="190.907" y="104"/>
			<point x="174.679" y="94"/>
			<point x="171.855" y="71" type="curve" smooth="yes"/>
		</contour>
		<contour>
			<point x="389.137" y="0" type="line"/>
			<point x="486.137" y="0" type="line"/>
			<point x="494.855" y="71" type="line" smooth="yes"/>
			<point x="497.679" y="94"/>
			<point x="483.907" y="104"/>
			<point x="460.521" y="109" type="curve" smooth="yes"/>
			<point x="417.626" y="118" type="line"/>
		</contour>
	</outline>
</glyph>
<glyph name="Z" format="2">
	<advance width="635"/>
	<unicode hex="005A"/>
	<anchor x="328.954" y="365" name="center"/>
	<anchor x="284.137" y="0" name="bottom"/>
	<anchor x="373.647" y="729" name="top"/>
	<note>
		Z
	</note>
	<outline>
		<contour>
			<point x="-0.863" y="0" type="line"/>
			<point x="561.137" y="0" type="line"/>
			<point x="577.099" y="130" type="line"/>
			<point x="230.099" y="130" type="line"/>
			<point x="632.141" y="619" type="line" smooth="yes"/>
			<point x="643.983" y="634"/>
			<point x="652.07" y="651"/>
			<point x="654.157" y="668" type="curve" smooth="yes"/>
			<point x="661.647" y="729" type="line"/>
			<point x="116.647" y="729" type="line"/>
			<point x="100.685" y="599" type="line"/>
			<point x="430.685" y="599" type="line"/>
			<point x="27.521" y="109" type="line" smooth="yes"/>
			<point x="16.925" y="96"/>
			<point x="9.083" y="81"/>
			<point x="7.118" y="65" type="curve" smooth="yes"/>
		</contour>
		<contour>
			<point x="465.398" y="108" type="line"/>
			<point x="577.099" y="130" type="line"/>
			<point x="587.659" y="216" type="line"/>
			<point x="531.659" y="216" type="line" smooth="yes"/>
			<point x="508.659" y="216"/>
			<point x="496.817" y="201"/>
			<point x="488.87" y="177" type="curve" smooth="yes"/>
		</contour>
		<contour>
			<point x="212.387" y="621" type="line"/>
			<point x="100.685" y="599" type="line"/>
			<point x="90.126" y="513" type="line"/>
			<point x="146.126" y="513" type="line" smooth="yes"/>
			<point x="169.126" y="513"/>
			<point x="180.968" y="528"/>
			<point x="188.914" y="552" type="curve" smooth="yes"/>
		</contour>
	</outline>
</glyph>
<glyph name="bracketleft" format="2">
	<advance width="350"/>
	<unicode hex="005B"/>
	<note>
		bracketleft
	</note>
	<outline>
		<contour>
			<point x="251.246" y="-162" type="line"/>
			<point x="258.491" y="-103" type="line" smooth="yes"/>
			<point x="260.946" y="-83"/>
			<point x="247.034" y="-66"/>
			<point x="223.034" y="-66" type="curve" smooth="yes"/>
			<point x="168.034" y="-66" type="line"/>
			<point x="259.876" y="682" type="line"/>
			<point x="314.876" y="682" type="line" smooth="yes"/>
			<point x="338.876" y="682"/>
			<point x="356.964" y="699"/>
			<point x="359.542" y="720" type="curve" smooth="yes"/>
			<point x="366.787" y="779" type="line"/>
			<point x="142.787" y="779" type="line"/>
			<point x="27.246" y="-162" type="line"/>
			<point x="251.246" y="-162" type="line"/>
		</contour>
	</outline>
</glyph>
<glyph name="backslash" format="2">
	<advance width="477"/>
	<unicode hex="005C"/>
	<note>
		backslash
	</note>
	<outline>
		<contour>
			<point x="274.874" y="6" type="line"/>
			<point x="283.454" y="-30"/>
			<point x="316.998" y="-50"/>
			<point x="348.998" y="-50" type="curve" smooth="yes"/>
			<point x="414.998" y="-50" type="line"/>
			<point x="222.595" y="696" type="line" smooth="yes"/>
			<point x="213.893" y="731"/>
			<point x="187.103" y="749"/>
			<point x="151.103" y="749" type="curve" smooth="yes"/>
			<point x="85.103" y="749" type="line"/>
			<point x="274.874" y="6" type="line"/>
		</contour>
	</outline>
</glyph>
<glyph name="bracketright" format="2">
	<advance width="350"/>
	<unicode hex="005D"/>
	<note>
		bracketright
	</note>
	<outline>
		<contour>
			<point x="-4.754" y="-162" type="line"/>
			<point x="219.246" y="-162" type="line"/>
			<point x="334.787" y="779" type="line"/>
			<point x="110.787" y="779" type="line"/>
			<point x="103.542" y="720" type="line"/>
			<point x="100.964" y="699"/>
			<point x="115.876" y="682"/>
			<point x="138.876" y="682" type="curve" smooth="yes"/>
			<point x="193.876" y="682" type="line"/>
			<point x="102.034" y="-66" type="line"/>
			<point x="47.034" y="-66" type="line" smooth="yes"/>
			<point x="24.034" y="-66"/>
			<point x="4.946" y="-83"/>
			<point x="2.491" y="-103" type="curve" smooth="yes"/>
		</contour>
	</outline>
</glyph>
<glyph name="asciicircum" format="2">
	<advance width="559"/>
	<unicode hex="005E"/>
	<note>
		asciicircum
	</note>
	<outline>
		<contour>
			<point x="51.287" y="384" type="line"/>
			<point x="171.287" y="384" type="line" smooth="yes"/>
			<point x="191.287" y="384"/>
			<point x="204.637" y="395"/>
			<point x="213.234" y="408" type="curve" smooth="yes"/>
			<point x="287.845" y="527" type="line" smooth="yes"/>
			<point x="302.423" y="548"/>
			<point x="312.756" y="567"/>
			<point x="322.089" y="586" type="curve"/>
			<point x="324.861" y="576"/>
			<point x="331.528" y="557"/>
			<point x="342.845" y="527" type="curve" smooth="yes"/>
			<point x="390.234" y="408" type="line" smooth="yes"/>
			<point x="396.637" y="395"/>
			<point x="407.287" y="384"/>
			<point x="424.287" y="384" type="curve" smooth="yes"/>
			<point x="538.287" y="384" type="line"/>
			<point x="387.647" y="729" type="line"/>
			<point x="286.647" y="729" type="line"/>
		</contour>
	</outline>
</glyph>
<glyph name="underscore" format="2">
	<advance width="482"/>
	<unicode hex="005F"/>
	<note>
		underscore
	</note>
	<outline>
		<contour>
			<point x="5.507" y="-54" type="line"/>
			<point x="-6.403" y="-151" type="line"/>
			<point x="387.597" y="-151" type="line"/>
			<point x="399.507" y="-54" type="line"/>
			<point x="5.507" y="-54" type="line"/>
		</contour>
	</outline>
</glyph>
<glyph name="a" format="2">
	<advance width="611"/>
	<unicode hex="0061"/>
	<anchor x="462.137" y="0" name="ogonek"/>
	<anchor x="270.137" y="0" name="bottom"/>
	<anchor x="333.863" y="519" name="top"/>
	<note>
		a
	</note>
	<outline>
		<contour>
			<point x="174.155" y="-8" type="curve"/>
			<point x="242.155" y="-8"/>
			<point x="296.716" y="21"/>
			<point x="344.241" y="66" type="curve"/>
			<point x="351.33" y="26" type="line" smooth="yes"/>
			<point x="354.242" y="9"/>
			<point x="367.137" y="0"/>
			<point x="386.137" y="0" type="curve" smooth="yes"/>
			<point x="482.137" y="0" type="line"/>
			<point x="545.863" y="519" type="line"/>
			<point x="449.863" y="519" type="line" smooth="yes"/>
			<point x="430.863" y="519"/>
			<point x="416.758" y="510"/>
			<point x="408.67" y="493" type="curve" smooth="yes"/>
			<point x="399.092" y="472" type="line"/>
			<point x="370.512" y="508"/>
			<point x="332.09" y="529"/>
			<point x="274.09" y="529" type="curve" smooth="yes"/>
			<point x="138.09" y="529"/>
			<point x="37.479" y="410"/>
			<point x="18.816" y="258" type="curve" smooth="yes"/>
			<point x="-0.339" y="102"/>
			<point x="57.155" y="-8"/>
		</contour>
		<contour>
			<point x="242.766" y="111" type="curve"/>
			<point x="185.766" y="111"/>
			<point x="167.029" y="162"/>
			<point x="178.816" y="258" type="curve" smooth="yes"/>
			<point x="191.217" y="359"/>
			<point x="232.093" y="415"/>
			<point x="297.093" y="415" type="curve" smooth="yes"/>
			<point x="326.093" y="415"/>
			<point x="352.865" y="405"/>
			<point x="373.796" y="380" type="curve"/>
			<point x="346.783" y="160" type="line"/>
			<point x="317.977" y="129"/>
			<point x="284.766" y="111"/>
		</contour>
		<contour>
			<point x="462.137" y="0" type="line"/>
			<point x="559.137" y="0" type="line"/>
			<point x="567.855" y="71" type="line" smooth="yes"/>
			<point x="570.679" y="94"/>
			<point x="556.907" y="104"/>
			<point x="533.521" y="109" type="curve" smooth="yes"/>
			<point x="490.626" y="118" type="line"/>
		</contour>
	</outline>
</glyph>
<glyph name="b" format="2">
	<advance width="594"/>
	<unicode hex="0062"/>
	<anchor x="363.979" y="805" name="top"/>
	<anchor x="265.137" y="0" name="bottom"/>
	<note>
		b
	</note>
	<outline>
		<contour>
			<point x="266.155" y="-8" type="curve" smooth="yes"/>
			<point x="467.155" y="-8"/>
			<point x="556.889" y="112"/>
			<point x="575.553" y="264" type="curve" smooth="yes"/>
			<point x="594.584" y="419"/>
			<point x="536.845" y="527"/>
			<point x="419.845" y="527" type="curve" smooth="yes"/>
			<point x="354.845" y="527"/>
			<point x="303.652" y="501"/>
			<point x="260.109" y="464" type="curve"/>
			<point x="295.103" y="749" type="line"/>
			<point x="140.103" y="749" type="line"/>
			<point x="50.593" y="20" type="line"/>
			<point x="113.646" y="-4"/>
			<point x="206.155" y="-8"/>
		</contour>
		<contour>
			<point x="297.153" y="106" type="curve" smooth="yes"/>
			<point x="268.153" y="106"/>
			<point x="253.153" y="106"/>
			<point x="217.258" y="115" type="curve"/>
			<point x="247.463" y="361" type="line"/>
			<point x="279.515" y="394"/>
			<point x="305.479" y="410"/>
			<point x="351.479" y="410" type="curve" smooth="yes"/>
			<point x="408.479" y="410"/>
			<point x="427.34" y="360"/>
			<point x="415.553" y="264" type="curve" smooth="yes"/>
			<point x="402.906" y="161"/>
			<point x="362.153" y="106"/>
		</contour>
		<contour>
			<point x="160.103" y="749" type="line"/>
			<point x="63.103" y="749" type="line"/>
			<point x="54.385" y="678" type="line" smooth="yes"/>
			<point x="51.561" y="655"/>
			<point x="65.333" y="645"/>
			<point x="88.72" y="640" type="curve" smooth="yes"/>
			<point x="131.614" y="631" type="line"/>
		</contour>
	</outline>
</glyph>
<glyph name="c" format="2">
	<advance width="485"/>
	<unicode hex="0063"/>
	<anchor x="292.863" y="519" name="top"/>
	<anchor x="226.137" y="0" name="bottom"/>
	<note>
		c
	</note>
	<outline>
		<contour>
			<point x="224.155" y="-8" type="curve" smooth="yes"/>
			<point x="297.155" y="-8"/>
			<point x="377.242" y="9"/>
			<point x="450.083" y="81" type="curve"/>
			<point x="411.959" y="137" type="line" smooth="yes"/>
			<point x="405.941" y="145"/>
			<point x="398.555" y="150"/>
			<point x="385.555" y="150" type="curve" smooth="yes"/>
			<point x="353.555" y="150"/>
			<point x="319.153" y="106"/>
			<point x="267.153" y="106" type="curve" smooth="yes"/>
			<point x="200.153" y="106"/>
			<point x="165.906" y="161"/>
			<point x="178.184" y="261" type="curve" smooth="yes"/>
			<point x="189.358" y="352"/>
			<point x="228.847" y="413"/>
			<point x="306.847" y="413" type="curve" smooth="yes"/>
			<point x="346.847" y="413"/>
			<point x="366.988" y="406"/>
			<point x="391.409" y="385" type="curve"/>
			<point x="466.497" y="402" type="line"/>
			<point x="477.179" y="489" type="line"/>
			<point x="423.371" y="515"/>
			<point x="368.845" y="527"/>
			<point x="310.845" y="527" type="curve" smooth="yes"/>
			<point x="145.845" y="527"/>
			<point x="38.093" y="415"/>
			<point x="19.184" y="261" type="curve" smooth="yes"/>
			<point x="-0.83" y="98"/>
			<point x="90.155" y="-8"/>
		</contour>
		<contour>
			<point x="362.058" y="431" type="line"/>
			<point x="367.708" y="363" type="line" smooth="yes"/>
			<point x="369.761" y="339"/>
			<point x="377.92" y="324"/>
			<point x="400.92" y="324" type="curve" smooth="yes"/>
			<point x="456.92" y="324" type="line"/>
			<point x="466.497" y="402" type="line"/>
			<point x="362.058" y="431" type="line"/>
		</contour>
	</outline>
</glyph>
<glyph name="d" format="2">
	<advance width="611"/>
	<unicode hex="0064"/>
	<anchor x="441.061" y="260" name="center"/>
	<anchor x="342.103" y="749" name="top"/>
	<anchor x="477.02" y="561" name="topright"/>
	<anchor x="255.137" y="0" name="bottom"/>
	<note>
		d
	</note>
	<outline>
		<contour>
			<point x="174.155" y="-8" type="curve" smooth="yes"/>
			<point x="241.155" y="-8"/>
			<point x="298.716" y="21"/>
			<point x="344.241" y="66" type="curve"/>
			<point x="351.33" y="26" type="line" smooth="yes"/>
			<point x="354.242" y="9"/>
			<point x="367.137" y="0"/>
			<point x="386.137" y="0" type="curve" smooth="yes"/>
			<point x="482.137" y="0" type="line"/>
			<point x="574.103" y="749" type="line"/>
			<point x="419.103" y="749" type="line"/>
			<point x="386.811" y="486" type="line"/>
			<point x="360.88" y="511"/>
			<point x="327.09" y="529"/>
			<point x="274.09" y="529" type="curve" smooth="yes"/>
			<point x="139.09" y="529"/>
			<point x="37.356" y="409"/>
			<point x="18.816" y="258" type="curve" smooth="yes"/>
			<point x="-0.339" y="102"/>
			<point x="59.155" y="-8"/>
		</contour>
		<contour>
			<point x="242.766" y="111" type="curve"/>
			<point x="186.766" y="111"/>
			<point x="167.029" y="162"/>
			<point x="178.816" y="258" type="curve" smooth="yes"/>
			<point x="191.217" y="359"/>
			<point x="233.093" y="415"/>
			<point x="297.093" y="415" type="curve" smooth="yes"/>
			<point x="328.093" y="415"/>
			<point x="352.865" y="405"/>
			<point x="373.796" y="380" type="curve"/>
			<point x="346.783" y="160" type="line"/>
			<point x="316.977" y="129"/>
			<point x="286.766" y="111"/>
		</contour>
		<contour>
			<point x="439.103" y="749" type="line"/>
			<point x="342.103" y="749" type="line"/>
			<point x="333.385" y="678" type="line" smooth="yes"/>
			<point x="330.561" y="655"/>
			<point x="344.333" y="645"/>
			<point x="367.72" y="640" type="curve" smooth="yes"/>
			<point x="410.614" y="631" type="line"/>
		</contour>
		<contour>
			<point x="462.137" y="0" type="line"/>
			<point x="559.137" y="0" type="line"/>
			<point x="567.855" y="71" type="line" smooth="yes"/>
			<point x="570.679" y="94"/>
			<point x="556.907" y="104"/>
			<point x="533.521" y="109" type="curve" smooth="yes"/>
			<point x="490.626" y="118" type="line"/>
		</contour>
	</outline>
</glyph>
<glyph name="e" format="2">
	<advance width="499"/>
	<unicode hex="0065"/>
	<anchor x="231.92" y="0" name="ogonek"/>
	<anchor x="224.92" y="0" name="bottom"/>
	<anchor x="288.92" y="519" name="top"/>
	<note>
		e
	</note>
	<outline>
		<contour>
			<point x="224.92" y="-8" type="curve" smooth="yes"/>
			<point x="323.92" y="-8"/>
			<point x="386.92" y="25"/>
			<point x="459.92" y="96" type="curve"/>
			<point x="419.92" y="143" type="line" smooth="yes"/>
			<point x="412.92" y="152"/>
			<point x="401.92" y="156"/>
			<point x="392.92" y="156" type="curve" smooth="yes"/>
			<point x="370.92" y="156"/>
			<point x="355.92" y="144"/>
			<point x="337.92" y="132" type="curve" smooth="yes"/>
			<point x="318.92" y="119"/>
			<point x="290.92" y="108"/>
			<point x="255.92" y="108" type="curve" smooth="yes"/>
			<point x="204.92" y="108"/>
			<point x="176.92" y="131"/>
			<point x="168.92" y="183" type="curve" smooth="yes"/>
			<point x="167.92" y="191"/>
			<point x="166.92" y="200"/>
			<point x="166.92" y="210" type="curve"/>
			<point x="285.92" y="222"/>
			<point x="360.92" y="243"/>
			<point x="407.92" y="274" type="curve" smooth="yes"/>
			<point x="454.92" y="305"/>
			<point x="470.92" y="344"/>
			<point x="470.92" y="391" type="curve" smooth="yes"/>
			<point x="470.92" y="463"/>
			<point x="398.92" y="526"/>
			<point x="297.92" y="526" type="curve" smooth="yes"/>
			<point x="241.92" y="526"/>
			<point x="190.92" y="509"/>
			<point x="149.92" y="481" type="curve" smooth="yes"/>
			<point x="128.92" y="467"/>
			<point x="110.92" y="450"/>
			<point x="93.92" y="431" type="curve" smooth="yes"/>
			<point x="60.92" y="392"/>
			<point x="36.92" y="345"/>
			<point x="24.92" y="293" type="curve" smooth="yes"/>
			<point x="18.92" y="266"/>
			<point x="15.92" y="239"/>
			<point x="15.92" y="212" type="curve" smooth="yes"/>
			<point x="15.92" y="82"/>
			<point x="99.92" y="-8"/>
		</contour>
		<contour>
			<point x="177.92" y="306" type="curve"/>
			<point x="196.92" y="378"/>
			<point x="236.92" y="421"/>
			<point x="288.92" y="421" type="curve" smooth="yes"/>
			<point x="317.92" y="421"/>
			<point x="330.92" y="402"/>
			<point x="330.92" y="385" type="curve" smooth="yes"/>
			<point x="330.92" y="366"/>
			<point x="320.92" y="351"/>
			<point x="300.92" y="340" type="curve" smooth="yes"/>
			<point x="275.92" y="325"/>
			<point x="234.92" y="315"/>
		</contour>
	</outline>
</glyph>
<glyph name="f" format="2">
	<advance width="397"/>
	<unicode hex="0066"/>
	<anchor x="261.103" y="749" name="top"/>
	<anchor x="127.896" y="-173" name="bottom"/>
	<note>
		f
	</note>
	<outline>
		<contour>
			<point x="71.137" y="0" type="line"/>
			<point x="239.766" y="111" type="line"/>
			<point x="276.725" y="412" type="line"/>
			<point x="393.725" y="412" type="line"/>
			<point x="406.74" y="518" type="line"/>
			<point x="284.74" y="518" type="line"/>
			<point x="287.687" y="542" type="line" smooth="yes"/>
			<point x="295.79" y="608"/>
			<point x="326.492" y="630"/>
			<point x="383.492" y="630" type="curve" smooth="yes"/>
			<point x="383.492" y="630"/>
			<point x="384.492" y="630"/>
			<point x="390.492" y="630" type="curve" smooth="yes"/>
			<point x="402.492" y="630"/>
			<point x="422.474" y="638"/>
			<point x="425.93" y="658" type="curve" smooth="yes"/>
			<point x="438.138" y="733" type="line"/>
			<point x="415.998" y="740"/>
			<point x="395.366" y="743"/>
			<point x="370.366" y="743" type="curve" smooth="yes"/>
			<point x="243.366" y="743"/>
			<point x="153.035" y="667"/>
			<point x="138.301" y="547" type="curve" smooth="yes"/>
			<point x="134.74" y="518" type="line"/>
			<point x="61.74" y="518" type="line"/>
			<point x="54.25" y="457" type="line" smooth="yes"/>
			<point x="51.426" y="434"/>
			<point x="66.198" y="424"/>
			<point x="88.584" y="419" type="curve" smooth="yes"/>
			<point x="121.725" y="412" type="line"/>
		</contour>
		<contour>
			<point x="36.036" y="-180" type="curve" smooth="yes"/>
			<point x="80.036" y="-180"/>
			<point x="206" y="-164"/>
			<point x="227.365" y="10" type="curve" smooth="yes"/>
			<point x="264.446" y="312" type="line"/>
			<point x="109.446" y="312" type="line"/>
			<point x="71.015" y="-1" type="line" smooth="yes"/>
			<point x="64.63" y="-53"/>
			<point x="49.788" y="-68"/>
			<point x="7.788" y="-68" type="curve" smooth="yes"/>
			<point x="-22.212" y="-68"/>
			<point x="-27.949" y="-74"/>
			<point x="-30.913" y="-90" type="curve" smooth="yes"/>
			<point x="-45.736" y="-170" type="line"/>
			<point x="-23.35" y="-175"/>
			<point x="9.036" y="-180"/>
		</contour>
	</outline>
</glyph>
<glyph name="h" format="2">
	<advance width="670"/>
	<unicode hex="0068"/>
	<anchor x="233.861" y="576" name="center"/>
	<anchor x="301.137" y="0" name="bottom"/>
	<anchor x="393.103" y="749" name="top"/>
	<note>
		h
	</note>
	<outline>
		<contour>
			<point x="71.137" y="0" type="line"/>
			<point x="226.137" y="0" type="line"/>
			<point x="271.568" y="370" type="line"/>
			<point x="302.515" y="394"/>
			<point x="334.479" y="410"/>
			<point x="367.479" y="410" type="curve" smooth="yes"/>
			<point x="412.479" y="410"/>
			<point x="432.918" y="381"/>
			<point x="426.656" y="330" type="curve" smooth="yes"/>
			<point x="386.137" y="0" type="line"/>
			<point x="541.137" y="0" type="line"/>
			<point x="581.656" y="330" type="line" smooth="yes"/>
			<point x="595.531" y="443"/>
			<point x="542.845" y="527"/>
			<point x="429.845" y="527" type="curve" smooth="yes"/>
			<point x="369.845" y="527"/>
			<point x="325.144" y="505"/>
			<point x="284.215" y="473" type="curve"/>
			<point x="318.103" y="749" type="line"/>
			<point x="163.103" y="749" type="line"/>
		</contour>
		<contour>
			<point x="521.137" y="0" type="line"/>
			<point x="618.137" y="0" type="line"/>
			<point x="626.855" y="71" type="line" smooth="yes"/>
			<point x="629.679" y="94"/>
			<point x="615.907" y="104"/>
			<point x="592.521" y="109" type="curve" smooth="yes"/>
			<point x="549.626" y="118" type="line"/>
		</contour>
		<contour>
			<point x="183.103" y="749" type="line"/>
			<point x="86.103" y="749" type="line"/>
			<point x="77.385" y="678" type="line" smooth="yes"/>
			<point x="74.561" y="655"/>
			<point x="88.333" y="645"/>
			<point x="111.72" y="640" type="curve" smooth="yes"/>
			<point x="154.614" y="631" type="line"/>
		</contour>
	</outline>
</glyph>
<glyph name="i" format="2">
	<advance width="355"/>
	<unicode hex="0069"/>
	<anchor x="150.137" y="0" name="ogonek"/>
	<anchor x="149.137" y="0" name="bottom"/>
	<anchor x="212.863" y="519" name="top"/>
	<note>
		i
	</note>
	<outline>
		<contour>
			<point x="71.137" y="0" type="line"/>
			<point x="226.137" y="0" type="line"/>
			<point x="289.863" y="519" type="line"/>
			<point x="134.863" y="519" type="line"/>
		</contour>
		<contour>
			<point x="206.137" y="0" type="line"/>
			<point x="303.137" y="0" type="line"/>
			<point x="311.855" y="71" type="line" smooth="yes"/>
			<point x="314.679" y="94"/>
			<point x="300.907" y="104"/>
			<point x="277.521" y="109" type="curve" smooth="yes"/>
			<point x="234.626" y="118" type="line"/>
		</contour>
		<contour>
			<point x="154.863" y="519" type="line"/>
			<point x="57.863" y="519" type="line"/>
			<point x="49.145" y="448" type="line" smooth="yes"/>
			<point x="46.321" y="425"/>
			<point x="60.093" y="415"/>
			<point x="83.479" y="410" type="curve" smooth="yes"/>
			<point x="126.374" y="401" type="line"/>
		</contour>
		<contour>
			<point x="217.247" y="571" type="curve" smooth="yes"/>
			<point x="268.247" y="571"/>
			<point x="317.159" y="611"/>
			<point x="323.298" y="661" type="curve" smooth="yes"/>
			<point x="329.56" y="712"/>
			<point x="291.471" y="752"/>
			<point x="239.471" y="752" type="curve" smooth="yes"/>
			<point x="190.471" y="752"/>
			<point x="142.437" y="711"/>
			<point x="136.298" y="661" type="curve" smooth="yes"/>
			<point x="130.159" y="611"/>
			<point x="168.247" y="571"/>
		</contour>
	</outline>
</glyph>
<glyph name="j" format="2">
	<advance width="286"/>
	<unicode hex="006A"/>
	<anchor x="175.863" y="519" name="top"/>
	<note>
		j
	</note>
	<outline>
		<contour>
			<point x="-0.964" y="-180" type="curve" smooth="yes"/>
			<point x="43.036" y="-180"/>
			<point x="169" y="-164"/>
			<point x="190.365" y="10" type="curve" smooth="yes"/>
			<point x="252.863" y="519" type="line"/>
			<point x="97.863" y="519" type="line"/>
			<point x="34.015" y="-1" type="line" smooth="yes"/>
			<point x="27.63" y="-53"/>
			<point x="12.788" y="-68"/>
			<point x="-29.212" y="-68" type="curve" smooth="yes"/>
			<point x="-59.212" y="-68"/>
			<point x="-64.949" y="-74"/>
			<point x="-67.913" y="-90" type="curve" smooth="yes"/>
			<point x="-82.736" y="-170" type="line"/>
			<point x="-60.35" y="-175"/>
			<point x="-27.964" y="-180"/>
		</contour>
		<contour>
			<point x="117.863" y="519" type="line"/>
			<point x="20.863" y="519" type="line"/>
			<point x="12.145" y="448" type="line" smooth="yes"/>
			<point x="9.321" y="425"/>
			<point x="23.093" y="415"/>
			<point x="46.479" y="410" type="curve" smooth="yes"/>
			<point x="89.374" y="401" type="line"/>
		</contour>
		<contour>
			<point x="180.247" y="571" type="curve" smooth="yes"/>
			<point x="231.247" y="571"/>
			<point x="280.159" y="611"/>
			<point x="286.298" y="661" type="curve" smooth="yes"/>
			<point x="292.56" y="712"/>
			<point x="254.471" y="752"/>
			<point x="202.471" y="752" type="curve" smooth="yes"/>
			<point x="153.471" y="752"/>
			<point x="105.437" y="711"/>
			<point x="99.298" y="661" type="curve" smooth="yes"/>
			<point x="93.159" y="611"/>
			<point x="131.247" y="571"/>
		</contour>
	</outline>
</glyph>
<glyph name="k" format="2">
	<advance width="635"/>
	<unicode hex="006B"/>
	<anchor x="378.103" y="749" name="top"/>
	<anchor x="286.137" y="0" name="bottom"/>
	<note>
		k
	</note>
	<outline>
		<contour>
			<point x="71.137" y="0" type="line"/>
			<point x="226.137" y="0" type="line"/>
			<point x="254.378" y="230" type="line"/>
			<point x="284.378" y="230" type="line" smooth="yes"/>
			<point x="304.378" y="230"/>
			<point x="311.887" y="226"/>
			<point x="318.922" y="210" type="curve" smooth="yes"/>
			<point x="394.33" y="26" type="line" smooth="yes"/>
			<point x="401.997" y="7"/>
			<point x="419.137" y="0"/>
			<point x="442.137" y="0" type="curve" smooth="yes"/>
			<point x="582.137" y="0" type="line"/>
			<point x="466.588" y="248" type="line" smooth="yes"/>
			<point x="457.921" y="267"/>
			<point x="446.763" y="282"/>
			<point x="433.113" y="293" type="curve"/>
			<point x="451.464" y="304"/>
			<point x="469.06" y="317"/>
			<point x="483.147" y="334" type="curve" smooth="yes"/>
			<point x="639.863" y="519" type="line"/>
			<point x="497.863" y="519" type="line" smooth="yes"/>
			<point x="473.863" y="519"/>
			<point x="459.003" y="512"/>
			<point x="444.793" y="494" type="curve" smooth="yes"/>
			<point x="328.866" y="348" type="line" smooth="yes"/>
			<point x="317.147" y="334"/>
			<point x="309.534" y="329"/>
			<point x="289.534" y="329" type="curve" smooth="yes"/>
			<point x="266.534" y="329" type="line"/>
			<point x="318.103" y="749" type="line"/>
			<point x="163.103" y="749" type="line"/>
		</contour>
		<contour>
			<point x="507.515" y="394" type="line"/>
			<point x="547.497" y="402" type="line"/>
			<point x="584.863" y="519" type="line"/>
			<point x="413.863" y="519" type="line"/>
			<point x="408.828" y="478" type="line"/>
		</contour>
		<contour>
			<point x="488.137" y="0" type="line"/>
			<point x="521.503" y="117" type="line"/>
			<point x="448.222" y="131" type="line"/>
		</contour>
		<contour>
			<point x="183.103" y="749" type="line"/>
			<point x="86.103" y="749" type="line"/>
			<point x="77.385" y="678" type="line" smooth="yes"/>
			<point x="74.561" y="655"/>
			<point x="88.333" y="645"/>
			<point x="111.72" y="640" type="curve" smooth="yes"/>
			<point x="154.614" y="631" type="line"/>
		</contour>
		<contour>
			<point x="639.863" y="519" type="line"/>
			<point x="542.863" y="519" type="line"/>
			<point x="542.374" y="401" type="line"/>
			<point x="587.479" y="410" type="line" smooth="yes"/>
			<point x="612.093" y="415"/>
			<point x="628.321" y="425"/>
			<point x="631.145" y="448" type="curve" smooth="yes"/>
		</contour>
		<contour>
			<point x="449.863" y="519" type="line"/>
			<point x="352.863" y="519" type="line"/>
			<point x="344.145" y="448" type="line" smooth="yes"/>
			<point x="341.321" y="425"/>
			<point x="355.093" y="415"/>
			<point x="378.479" y="410" type="curve" smooth="yes"/>
			<point x="421.374" y="401" type="line"/>
		</contour>
		<contour>
			<point x="488.137" y="0" type="line"/>
			<point x="585.137" y="0" type="line"/>
			<point x="593.855" y="71" type="line" smooth="yes"/>
			<point x="596.679" y="94"/>
			<point x="582.907" y="104"/>
			<point x="559.521" y="109" type="curve" smooth="yes"/>
			<point x="516.626" y="118" type="line"/>
		</contour>
	</outline>
</glyph>
<glyph name="l" format="2">
	<advance width="355"/>
	<unicode hex="006C"/>
	<anchor x="198.62" y="403" name="center"/>
	<anchor x="241.103" y="749" name="top"/>
	<anchor x="363.103" y="749" name="topright"/>
	<anchor x="149.137" y="0" name="bottom"/>
	<note>
		l
	</note>
	<outline>
		<contour>
			<point x="71.137" y="0" type="line"/>
			<point x="226.137" y="0" type="line"/>
			<point x="318.103" y="749" type="line"/>
			<point x="163.103" y="749" type="line"/>
		</contour>
		<contour>
			<point x="206.137" y="0" type="line"/>
			<point x="303.137" y="0" type="line"/>
			<point x="311.855" y="71" type="line" smooth="yes"/>
			<point x="314.679" y="94"/>
			<point x="300.907" y="104"/>
			<point x="277.521" y="109" type="curve" smooth="yes"/>
			<point x="234.626" y="118" type="line"/>
		</contour>
		<contour>
			<point x="183.103" y="749" type="line"/>
			<point x="86.103" y="749" type="line"/>
			<point x="77.385" y="678" type="line" smooth="yes"/>
			<point x="74.561" y="655"/>
			<point x="88.333" y="645"/>
			<point x="111.72" y="640" type="curve" smooth="yes"/>
			<point x="154.614" y="631" type="line"/>
		</contour>
	</outline>
</glyph>
<glyph name="m" format="2">
	<advance width="951"/>
	<unicode hex="006D"/>
	<anchor x="507.863" y="519" name="top"/>
	<anchor x="444.137" y="0" name="bottom"/>
	<note>
		m
	</note>
	<outline>
		<contour>
			<point x="71.137" y="0" type="line"/>
			<point x="226.137" y="0" type="line"/>
			<point x="272.182" y="375" type="line"/>
			<point x="297.76" y="396"/>
			<point x="323.479" y="410"/>
			<point x="351.479" y="410" type="curve" smooth="yes"/>
			<point x="396.479" y="410"/>
			<point x="417.901" y="389"/>
			<point x="410.656" y="330" type="curve" smooth="yes"/>
			<point x="370.137" y="0" type="line"/>
			<point x="525.137" y="0" type="line"/>
			<point x="565.656" y="330" type="line" smooth="yes"/>
			<point x="572.041" y="382"/>
			<point x="607.479" y="410"/>
			<point x="648.479" y="410" type="curve" smooth="yes"/>
			<point x="694.479" y="410"/>
			<point x="714.164" y="383"/>
			<point x="707.656" y="330" type="curve" smooth="yes"/>
			<point x="667.137" y="0" type="line"/>
			<point x="822.137" y="0" type="line"/>
			<point x="862.656" y="330" type="line" smooth="yes"/>
			<point x="877.759" y="453"/>
			<point x="822.845" y="527"/>
			<point x="702.845" y="527" type="curve" smooth="yes"/>
			<point x="636.845" y="527"/>
			<point x="566.53" y="500"/>
			<point x="525.917" y="438" type="curve"/>
			<point x="511.425" y="491"/>
			<point x="474.845" y="527"/>
			<point x="411.845" y="527" type="curve" smooth="yes"/>
			<point x="354.845" y="527"/>
			<point x="310.53" y="500"/>
			<point x="271.232" y="465" type="curve"/>
			<point x="265.67" y="493" type="line" smooth="yes"/>
			<point x="261.758" y="510"/>
			<point x="250.863" y="519"/>
			<point x="230.863" y="519" type="curve" smooth="yes"/>
			<point x="134.863" y="519" type="line"/>
		</contour>
		<contour>
			<point x="154.863" y="519" type="line"/>
			<point x="57.863" y="519" type="line"/>
			<point x="49.145" y="448" type="line" smooth="yes"/>
			<point x="46.321" y="425"/>
			<point x="60.093" y="415"/>
			<point x="83.479" y="410" type="curve" smooth="yes"/>
			<point x="126.374" y="401" type="line"/>
		</contour>
		<contour>
			<point x="802.137" y="0" type="line"/>
			<point x="899.137" y="0" type="line"/>
			<point x="907.855" y="71" type="line" smooth="yes"/>
			<point x="910.679" y="94"/>
			<point x="896.907" y="104"/>
			<point x="873.521" y="109" type="curve" smooth="yes"/>
			<point x="830.626" y="118" type="line"/>
		</contour>
	</outline>
</glyph>
<glyph name="o" format="2">
	<advance width="568"/>
	<unicode hex="006F"/>
	<anchor x="284.061" y="260" name="center"/>
	<anchor x="262.137" y="0" name="ogonek"/>
	<anchor x="315.863" y="519" name="top"/>
	<anchor x="579.863" y="519" name="topright"/>
	<anchor x="252.137" y="0" name="bottom"/>
	<note>
		o
	</note>
	<outline>
		<contour>
			<point x="317.845" y="527" type="curve"/>
			<point x="317.845" y="527" type="line"/>
			<point x="158.845" y="527"/>
			<point x="39.075" y="423"/>
			<point x="19.184" y="261" type="curve" smooth="yes"/>
			<point x="-0.83" y="98"/>
			<point x="93.155" y="-8"/>
			<point x="252.155" y="-8" type="curve" smooth="yes"/>
			<point x="412.155" y="-8"/>
			<point x="529.17" y="98"/>
			<point x="549.184" y="261" type="curve" smooth="yes"/>
			<point x="569.075" y="423"/>
			<point x="476.845" y="527"/>
		</contour>
		<contour>
			<point x="266.275" y="107" type="curve"/>
			<point x="193.275" y="107"/>
			<point x="166.415" y="157"/>
			<point x="179.061" y="260" type="curve" smooth="yes"/>
			<point x="191.708" y="363"/>
			<point x="230.725" y="412"/>
			<point x="303.725" y="412" type="curve" smooth="yes"/>
			<point x="375.725" y="412"/>
			<point x="401.708" y="363"/>
			<point x="389.061" y="260" type="curve" smooth="yes"/>
			<point x="376.415" y="157"/>
			<point x="338.275" y="107"/>
		</contour>
	</outline>
</glyph>
<glyph name="p" format="2">
	<advance width="617"/>
	<unicode hex="0070"/>
	<anchor x="363.863" y="519" name="top"/>
	<anchor x="300.137" y="0" name="bottom"/>
	<note>
		p
	</note>
	<outline>
		<contour>
			<point x="50.878" y="-165" type="line"/>
			<point x="205.878" y="-165" type="line"/>
			<point x="230.435" y="35" type="line"/>
			<point x="258.12" y="8"/>
			<point x="290.155" y="-8"/>
			<point x="343.155" y="-8" type="curve" smooth="yes"/>
			<point x="478.155" y="-8"/>
			<point x="579.889" y="112"/>
			<point x="598.553" y="264" type="curve" smooth="yes"/>
			<point x="617.584" y="419"/>
			<point x="560.09" y="529"/>
			<point x="443.09" y="529" type="curve" smooth="yes"/>
			<point x="375.09" y="529"/>
			<point x="319.407" y="499"/>
			<point x="273.004" y="455" type="curve"/>
			<point x="265.67" y="493" type="line" smooth="yes"/>
			<point x="262.758" y="510"/>
			<point x="250.863" y="519"/>
			<point x="230.863" y="519" type="curve" smooth="yes"/>
			<point x="134.863" y="519" type="line"/>
		</contour>
		<contour>
			<point x="320.153" y="106" type="curve" smooth="yes"/>
			<point x="291.153" y="106"/>
			<point x="264.38" y="116"/>
			<point x="243.45" y="141" type="curve"/>
			<point x="270.463" y="361" type="line"/>
			<point x="302.515" y="394"/>
			<point x="328.479" y="410"/>
			<point x="374.479" y="410" type="curve" smooth="yes"/>
			<point x="431.479" y="410"/>
			<point x="450.34" y="360"/>
			<point x="438.553" y="264" type="curve" smooth="yes"/>
			<point x="425.906" y="161"/>
			<point x="385.153" y="106"/>
		</contour>
		<contour>
			<point x="154.863" y="519" type="line"/>
			<point x="57.863" y="519" type="line"/>
			<point x="49.145" y="448" type="line" smooth="yes"/>
			<point x="46.321" y="425"/>
			<point x="60.093" y="415"/>
			<point x="83.479" y="410" type="curve" smooth="yes"/>
			<point x="126.374" y="401" type="line"/>
		</contour>
		<contour>
			<point x="-26.122" y="-165" type="line"/>
			<point x="70.878" y="-165" type="line"/>
			<point x="71.367" y="-47" type="line"/>
			<point x="26.261" y="-56" type="line" smooth="yes"/>
			<point x="1.648" y="-61"/>
			<point x="-14.58" y="-71"/>
			<point x="-17.404" y="-94" type="curve" smooth="yes"/>
		</contour>
		<contour>
			<point x="185.878" y="-165" type="line"/>
			<point x="282.878" y="-165" type="line"/>
			<point x="291.596" y="-94" type="line" smooth="yes"/>
			<point x="294.42" y="-71"/>
			<point x="280.648" y="-61"/>
			<point x="257.261" y="-56" type="curve" smooth="yes"/>
			<point x="214.367" y="-47" type="line"/>
		</contour>
	</outline>
</glyph>
<glyph name="q" format="2">
	<advance width="611"/>
	<unicode hex="0071"/>
	<note>
		q
	</note>
	<outline>
		<contour>
			<point x="306.878" y="-165" type="line"/>
			<point x="461.878" y="-165" type="line"/>
			<point x="543.775" y="502" type="line"/>
			<point x="480.722" y="526"/>
			<point x="388.213" y="530"/>
			<point x="328.213" y="530" type="curve" smooth="yes"/>
			<point x="127.213" y="530"/>
			<point x="37.479" y="410"/>
			<point x="18.693" y="257" type="curve" smooth="yes"/>
			<point x="-0.216" y="103"/>
			<point x="57.401" y="-6"/>
			<point x="174.401" y="-6" type="curve" smooth="yes"/>
			<point x="239.401" y="-6"/>
			<point x="290.593" y="20"/>
			<point x="334.136" y="57" type="curve"/>
		</contour>
		<contour>
			<point x="242.766" y="111" type="curve" smooth="yes"/>
			<point x="185.766" y="111"/>
			<point x="166.906" y="161"/>
			<point x="178.693" y="257" type="curve" smooth="yes"/>
			<point x="191.34" y="360"/>
			<point x="232.216" y="416"/>
			<point x="297.216" y="416" type="curve" smooth="yes"/>
			<point x="326.216" y="416"/>
			<point x="341.216" y="416"/>
			<point x="376.988" y="406" type="curve"/>
			<point x="346.783" y="160" type="line"/>
			<point x="314.731" y="127"/>
			<point x="288.766" y="111"/>
		</contour>
		<contour>
			<point x="229.878" y="-165" type="line"/>
			<point x="326.878" y="-165" type="line"/>
			<point x="327.367" y="-47" type="line"/>
			<point x="282.261" y="-56" type="line" smooth="yes"/>
			<point x="257.648" y="-61"/>
			<point x="241.42" y="-71"/>
			<point x="238.596" y="-94" type="curve" smooth="yes"/>
		</contour>
		<contour>
			<point x="441.878" y="-165" type="line"/>
			<point x="538.878" y="-165" type="line"/>
			<point x="547.596" y="-94" type="line" smooth="yes"/>
			<point x="550.42" y="-71"/>
			<point x="536.648" y="-61"/>
			<point x="513.261" y="-56" type="curve" smooth="yes"/>
			<point x="470.367" y="-47" type="line"/>
		</contour>
	</outline>
</glyph>
<glyph name="r" format="2">
	<advance width="450"/>
	<unicode hex="0072"/>
	<anchor x="281.863" y="519" name="top"/>
	<anchor x="159.137" y="0" name="bottom"/>
	<note>
		r
	</note>
	<outline>
		<contour>
			<point x="71.137" y="0" type="line"/>
			<point x="226.137" y="0" type="line"/>
			<point x="265.183" y="318" type="line"/>
			<point x="293.463" y="361"/>
			<point x="328.164" y="383"/>
			<point x="369.164" y="383" type="curve" smooth="yes"/>
			<point x="387.164" y="383"/>
			<point x="413.673" y="379"/>
			<point x="417.673" y="379" type="curve" smooth="yes"/>
			<point x="430.673" y="379"/>
			<point x="439.164" y="383"/>
			<point x="444.006" y="398" type="curve" smooth="yes"/>
			<point x="478.003" y="512" type="line"/>
			<point x="465.354" y="523"/>
			<point x="447.09" y="529"/>
			<point x="423.09" y="529" type="curve" smooth="yes"/>
			<point x="367.09" y="529"/>
			<point x="314.67" y="493"/>
			<point x="270.426" y="434" type="curve"/>
			<point x="267.32" y="482" type="line" smooth="yes"/>
			<point x="265.635" y="509"/>
			<point x="257.863" y="519"/>
			<point x="226.863" y="519" type="curve" smooth="yes"/>
			<point x="134.863" y="519" type="line"/>
		</contour>
		<contour>
			<point x="154.863" y="519" type="line"/>
			<point x="57.863" y="519" type="line"/>
			<point x="49.145" y="448" type="line" smooth="yes"/>
			<point x="46.321" y="425"/>
			<point x="60.093" y="415"/>
			<point x="83.479" y="410" type="curve" smooth="yes"/>
			<point x="126.374" y="401" type="line"/>
		</contour>
	</outline>
</glyph>
<glyph name="s" format="2">
	<advance width="444"/>
	<unicode hex="0073"/>
	<anchor x="270.863" y="519" name="top"/>
	<anchor x="176.137" y="0" name="bottom"/>
	<note>
		s
	</note>
	<outline>
		<contour>
			<point x="170.155" y="-8" type="curve"/>
			<point x="305.155" y="-8"/>
			<point x="396.382" y="59"/>
			<point x="409.888" y="169" type="curve" smooth="yes"/>
			<point x="419.711" y="249"/>
			<point x="370.763" y="282"/>
			<point x="307.709" y="306" type="curve" smooth="yes"/>
			<point x="257.042" y="325"/>
			<point x="190.516" y="337"/>
			<point x="195.182" y="375" type="curve" smooth="yes"/>
			<point x="198.497" y="402"/>
			<point x="222.461" y="418"/>
			<point x="261.461" y="418" type="curve" smooth="yes"/>
			<point x="299.461" y="418"/>
			<point x="322.742" y="404"/>
			<point x="343.76" y="396" type="curve"/>
			<point x="417.093" y="415" type="line"/>
			<point x="425.074" y="480" type="line"/>
			<point x="387.021" y="504"/>
			<point x="341.845" y="527"/>
			<point x="271.845" y="527" type="curve" smooth="yes"/>
			<point x="145.845" y="527"/>
			<point x="58.373" y="458"/>
			<point x="46.708" y="363" type="curve" smooth="yes"/>
			<point x="35.78" y="274"/>
			<point x="84.115" y="236"/>
			<point x="150.168" y="212" type="curve" smooth="yes"/>
			<point x="199.835" y="193"/>
			<point x="266.607" y="183"/>
			<point x="261.573" y="142" type="curve" smooth="yes"/>
			<point x="258.135" y="114"/>
			<point x="233.048" y="97"/>
			<point x="191.048" y="97" type="curve" smooth="yes"/>
			<point x="149.048" y="97"/>
			<point x="98.275" y="107"/>
			<point x="87.117" y="122" type="curve"/>
			<point x="13.766" y="111" type="line"/>
			<point x="2.47" y="19" type="line"/>
			<point x="44.629" y="4"/>
			<point x="102.155" y="-8"/>
		</contour>
		<contour>
			<point x="313.022" y="447" type="line"/>
			<point x="318.673" y="379" type="line" smooth="yes"/>
			<point x="320.726" y="355"/>
			<point x="328.884" y="340"/>
			<point x="351.884" y="340" type="curve" smooth="yes"/>
			<point x="407.884" y="340" type="line"/>
			<point x="417.461" y="418" type="line"/>
			<point x="313.022" y="447" type="line"/>
		</contour>
		<contour>
			<point x="116.487" y="68" type="line"/>
			<point x="110.836" y="136" type="line" smooth="yes"/>
			<point x="108.783" y="160"/>
			<point x="100.625" y="175"/>
			<point x="77.625" y="175" type="curve" smooth="yes"/>
			<point x="21.625" y="175" type="line"/>
			<point x="12.048" y="97" type="line"/>
			<point x="116.487" y="68" type="line"/>
		</contour>
	</outline>
</glyph>
<glyph name="t" format="2">
	<advance width="396"/>
	<unicode hex="0074"/>
	<anchor x="196.236" y="294" name="center"/>
	<anchor x="235.157" y="668" name="top"/>
	<anchor x="407.863" y="519" name="topright"/>
	<anchor x="205.137" y="0" name="bottom"/>
	<note>
		t
	</note>
	<outline>
		<contour>
			<point x="201.155" y="-8" type="curve"/>
			<point x="254.155" y="-8"/>
			<point x="308.12" y="8"/>
			<point x="351.68" y="37" type="curve"/>
			<point x="313.766" y="111" type="line" smooth="yes"/>
			<point x="308.872" y="120"/>
			<point x="304.363" y="124"/>
			<point x="295.363" y="124" type="curve" smooth="yes"/>
			<point x="281.363" y="124"/>
			<point x="275.012" y="113"/>
			<point x="253.012" y="113" type="curve" smooth="yes"/>
			<point x="232.012" y="113"/>
			<point x="221.099" y="130"/>
			<point x="224.046" y="154" type="curve" smooth="yes"/>
			<point x="255.725" y="412" type="line"/>
			<point x="381.725" y="412" type="line"/>
			<point x="394.74" y="518" type="line"/>
			<point x="268.74" y="518" type="line"/>
			<point x="287.28" y="669" type="line"/>
			<point x="206.28" y="669" type="line" smooth="yes"/>
			<point x="187.28" y="669"/>
			<point x="175.298" y="661"/>
			<point x="169.333" y="645" type="curve" smooth="yes"/>
			<point x="123.863" y="519" type="line"/>
			<point x="38.898" y="503" type="line"/>
			<point x="31.408" y="442" type="line" smooth="yes"/>
			<point x="28.952" y="422"/>
			<point x="40.725" y="412"/>
			<point x="56.725" y="412" type="curve" smooth="yes"/>
			<point x="100.725" y="412" type="line"/>
			<point x="67.818" y="144" type="line" smooth="yes"/>
			<point x="56.399" y="51"/>
			<point x="104.155" y="-8"/>
		</contour>
	</outline>
</glyph>
<glyph name="u" format="2">
	<advance width="647"/>
	<unicode hex="0075"/>
	<anchor x="501.506" y="3" name="ogonek"/>
	<anchor x="337.863" y="519" name="top"/>
	<anchor x="562.863" y="519" name="topright"/>
	<anchor x="256.137" y="0" name="bottom"/>
	<note>
		u
	</note>
	<outline>
		<contour>
			<point x="223.155" y="-8" type="curve" smooth="yes"/>
			<point x="287.155" y="-8"/>
			<point x="336.348" y="18"/>
			<point x="382.013" y="56" type="curve"/>
			<point x="387.33" y="26" type="line" smooth="yes"/>
			<point x="390.12" y="8"/>
			<point x="403.137" y="0"/>
			<point x="422.137" y="0" type="curve" smooth="yes"/>
			<point x="518.137" y="0" type="line"/>
			<point x="581.863" y="519" type="line"/>
			<point x="426.863" y="519" type="line"/>
			<point x="381.432" y="149" type="line"/>
			<point x="350.363" y="124"/>
			<point x="320.521" y="109"/>
			<point x="285.521" y="109" type="curve" smooth="yes"/>
			<point x="240.521" y="109"/>
			<point x="220.082" y="138"/>
			<point x="226.466" y="190" type="curve" smooth="yes"/>
			<point x="266.863" y="519" type="line"/>
			<point x="111.863" y="519" type="line"/>
			<point x="71.466" y="190" type="line" smooth="yes"/>
			<point x="57.469" y="76"/>
			<point x="111.155" y="-8"/>
		</contour>
		<contour>
			<point x="498.137" y="0" type="line"/>
			<point x="595.137" y="0" type="line"/>
			<point x="603.855" y="71" type="line" smooth="yes"/>
			<point x="606.679" y="94"/>
			<point x="592.907" y="104"/>
			<point x="569.521" y="109" type="curve" smooth="yes"/>
			<point x="526.626" y="118" type="line"/>
		</contour>
		<contour>
			<point x="131.863" y="519" type="line"/>
			<point x="34.863" y="519" type="line"/>
			<point x="26.145" y="448" type="line" smooth="yes"/>
			<point x="23.321" y="425"/>
			<point x="37.093" y="415"/>
			<point x="60.479" y="410" type="curve" smooth="yes"/>
			<point x="103.374" y="401" type="line"/>
		</contour>
		<contour>
			<point x="446.863" y="519" type="line"/>
			<point x="349.863" y="519" type="line"/>
			<point x="341.145" y="448" type="line" smooth="yes"/>
			<point x="338.321" y="425"/>
			<point x="352.093" y="415"/>
			<point x="375.479" y="410" type="curve" smooth="yes"/>
			<point x="418.374" y="401" type="line"/>
		</contour>
	</outline>
</glyph>
<glyph name="v" format="2">
	<advance width="605"/>
	<unicode hex="0076"/>
	<anchor x="334.863" y="519" name="top"/>
	<anchor x="271.137" y="0" name="bottom"/>
	<note>
		v
	</note>
	<outline>
		<contour>
			<point x="200.137" y="0" type="line"/>
			<point x="341.137" y="0" type="line"/>
			<point x="605.863" y="519" type="line"/>
			<point x="482.863" y="519" type="line" smooth="yes"/>
			<point x="462.863" y="519"/>
			<point x="445.389" y="507"/>
			<point x="438.547" y="492" type="curve" smooth="yes"/>
			<point x="334.939" y="259" type="line" smooth="yes"/>
			<point x="318.396" y="222"/>
			<point x="302.975" y="186"/>
			<point x="291.555" y="150" type="curve"/>
			<point x="287.975" y="186"/>
			<point x="281.396" y="222"/>
			<point x="274.939" y="259" type="curve" smooth="yes"/>
			<point x="231.547" y="492" type="line" smooth="yes"/>
			<point x="228.389" y="507"/>
			<point x="214.863" y="519"/>
			<point x="191.863" y="519" type="curve" smooth="yes"/>
			<point x="62.863" y="519" type="line"/>
		</contour>
		<contour>
			<point x="168.197" y="481" type="line"/>
			<point x="242.197" y="481" type="line"/>
			<point x="246.863" y="519" type="line"/>
			<point x="172.863" y="519" type="line"/>
		</contour>
		<contour>
			<point x="425.197" y="481" type="line"/>
			<point x="499.197" y="481" type="line"/>
			<point x="503.863" y="519" type="line"/>
			<point x="429.863" y="519" type="line"/>
		</contour>
		<contour>
			<point x="138.863" y="519" type="line"/>
			<point x="41.863" y="519" type="line"/>
			<point x="33.145" y="448" type="line" smooth="yes"/>
			<point x="30.321" y="425"/>
			<point x="44.093" y="415"/>
			<point x="67.479" y="410" type="curve" smooth="yes"/>
			<point x="110.374" y="401" type="line"/>
		</contour>
		<contour>
			<point x="299.863" y="519" type="line"/>
			<point x="202.863" y="519" type="line"/>
			<point x="202.374" y="401" type="line"/>
			<point x="247.479" y="410" type="line" smooth="yes"/>
			<point x="272.093" y="415"/>
			<point x="288.321" y="425"/>
			<point x="291.145" y="448" type="curve" smooth="yes"/>
		</contour>
		<contour>
			<point x="465.863" y="519" type="line"/>
			<point x="368.863" y="519" type="line"/>
			<point x="360.145" y="448" type="line" smooth="yes"/>
			<point x="357.321" y="425"/>
			<point x="371.093" y="415"/>
			<point x="394.479" y="410" type="curve" smooth="yes"/>
			<point x="437.374" y="401" type="line"/>
		</contour>
		<contour>
			<point x="626.863" y="519" type="line"/>
			<point x="529.863" y="519" type="line"/>
			<point x="529.374" y="401" type="line"/>
			<point x="574.479" y="410" type="line" smooth="yes"/>
			<point x="599.093" y="415"/>
			<point x="615.321" y="425"/>
			<point x="618.145" y="448" type="curve" smooth="yes"/>
		</contour>
	</outline>
</glyph>
<glyph name="w" format="2">
	<advance width="886"/>
	<unicode hex="0077"/>
	<anchor x="474.863" y="519" name="top"/>
	<anchor x="411.137" y="0" name="bottom"/>
	<note>
		w
	</note>
	<outline>
		<contour>
			<point x="165.137" y="0" type="line"/>
			<point x="285.137" y="0" type="line" smooth="yes"/>
			<point x="302.137" y="0"/>
			<point x="314.242" y="9"/>
			<point x="321.33" y="26" type="curve" smooth="yes"/>
			<point x="428.008" y="284" type="line" smooth="yes"/>
			<point x="439.201" y="310"/>
			<point x="445.165" y="326"/>
			<point x="454.48" y="353" type="curve"/>
			<point x="455.656" y="330"/>
			<point x="458.955" y="308"/>
			<point x="463.131" y="285" type="curve" smooth="yes"/>
			<point x="505.33" y="26" type="line" smooth="yes"/>
			<point x="507.997" y="7"/>
			<point x="517.137" y="0"/>
			<point x="530.137" y="0" type="curve" smooth="yes"/>
			<point x="656.137" y="0" type="line"/>
			<point x="880.863" y="519" type="line"/>
			<point x="762.863" y="519" type="line" smooth="yes"/>
			<point x="742.863" y="519"/>
			<point x="724.512" y="508"/>
			<point x="718.547" y="492" type="curve" smooth="yes"/>
			<point x="634.939" y="259" type="line" smooth="yes"/>
			<point x="628.728" y="241"/>
			<point x="605.502" y="174"/>
			<point x="600.415" y="157" type="curve"/>
			<point x="598.502" y="174"/>
			<point x="587.851" y="242"/>
			<point x="584.939" y="259" type="curve" smooth="yes"/>
			<point x="551.547" y="492" type="line" smooth="yes"/>
			<point x="549.512" y="508"/>
			<point x="534.863" y="519"/>
			<point x="511.863" y="519" type="curve" smooth="yes"/>
			<point x="442.863" y="519" type="line" smooth="yes"/>
			<point x="422.863" y="519"/>
			<point x="404.512" y="508"/>
			<point x="398.547" y="492" type="curve" smooth="yes"/>
			<point x="304.939" y="259" type="line" smooth="yes"/>
			<point x="297.728" y="241"/>
			<point x="268.134" y="171"/>
			<point x="262.537" y="158" type="curve"/>
			<point x="261.589" y="191"/>
			<point x="258.641" y="224"/>
			<point x="254.939" y="259" type="curve" smooth="yes"/>
			<point x="231.547" y="492" type="line" smooth="yes"/>
			<point x="229.512" y="508"/>
			<point x="214.863" y="519"/>
			<point x="191.863" y="519" type="curve" smooth="yes"/>
			<point x="67.863" y="519" type="line"/>
		</contour>
		<contour>
			<point x="168.197" y="481" type="line"/>
			<point x="242.197" y="481" type="line"/>
			<point x="246.863" y="519" type="line"/>
			<point x="172.863" y="519" type="line"/>
		</contour>
		<contour>
			<point x="706.197" y="481" type="line"/>
			<point x="780.197" y="481" type="line"/>
			<point x="784.863" y="519" type="line"/>
			<point x="710.863" y="519" type="line"/>
		</contour>
		<contour>
			<point x="138.863" y="519" type="line"/>
			<point x="41.863" y="519" type="line"/>
			<point x="33.145" y="448" type="line" smooth="yes"/>
			<point x="30.321" y="425"/>
			<point x="44.093" y="415"/>
			<point x="67.479" y="410" type="curve" smooth="yes"/>
			<point x="110.374" y="401" type="line"/>
		</contour>
		<contour>
			<point x="299.863" y="519" type="line"/>
			<point x="202.863" y="519" type="line"/>
			<point x="202.374" y="401" type="line"/>
			<point x="247.479" y="410" type="line" smooth="yes"/>
			<point x="272.093" y="415"/>
			<point x="288.321" y="425"/>
			<point x="291.145" y="448" type="curve" smooth="yes"/>
		</contour>
		<contour>
			<point x="746.863" y="519" type="line"/>
			<point x="649.863" y="519" type="line"/>
			<point x="641.145" y="448" type="line" smooth="yes"/>
			<point x="638.321" y="425"/>
			<point x="652.093" y="415"/>
			<point x="675.479" y="410" type="curve" smooth="yes"/>
			<point x="718.374" y="401" type="line"/>
		</contour>
		<contour>
			<point x="907.863" y="519" type="line"/>
			<point x="810.863" y="519" type="line"/>
			<point x="810.374" y="401" type="line"/>
			<point x="855.479" y="410" type="line" smooth="yes"/>
			<point x="880.093" y="415"/>
			<point x="896.321" y="425"/>
			<point x="899.145" y="448" type="curve" smooth="yes"/>
		</contour>
	</outline>
</glyph>
<glyph name="x" format="2">
	<advance width="589"/>
	<unicode hex="0078"/>
	<anchor x="326.863" y="519" name="top"/>
	<anchor x="263.137" y="0" name="bottom"/>
	<note>
		x
	</note>
	<outline>
		<contour>
			<point x="-13.863" y="0" type="line"/>
			<point x="-13.863" y="0" type="line"/>
			<point x="124.137" y="0" type="line" smooth="yes"/>
			<point x="144.137" y="0"/>
			<point x="158.856" y="14"/>
			<point x="168.453" y="27" type="curve" smooth="yes"/>
			<point x="260.292" y="156" type="line" smooth="yes"/>
			<point x="266.397" y="165"/>
			<point x="272.625" y="175"/>
			<point x="277.975" y="186" type="curve"/>
			<point x="350.453" y="27" type="line" smooth="yes"/>
			<point x="357.611" y="12"/>
			<point x="369.137" y="0"/>
			<point x="390.137" y="0" type="curve" smooth="yes"/>
			<point x="539.137" y="0" type="line"/>
			<point x="398.903" y="275" type="line"/>
			<point x="595.863" y="519" type="line"/>
			<point x="453.863" y="519" type="line" smooth="yes"/>
			<point x="438.863" y="519"/>
			<point x="428.126" y="513"/>
			<point x="417.284" y="498" type="curve" smooth="yes"/>
			<point x="337.041" y="382" type="line" smooth="yes"/>
			<point x="328.568" y="370"/>
			<point x="321.217" y="359"/>
			<point x="315.744" y="347" type="curve"/>
			<point x="241.53" y="500" type="line" smooth="yes"/>
			<point x="235.126" y="513"/>
			<point x="228.863" y="519"/>
			<point x="205.863" y="519" type="curve" smooth="yes"/>
			<point x="56.863" y="519" type="line"/>
			<point x="193.044" y="268" type="line"/>
		</contour>
		<contour>
			<point x="183.197" y="481" type="line"/>
			<point x="257.197" y="481" type="line"/>
			<point x="261.863" y="519" type="line"/>
			<point x="187.863" y="519" type="line"/>
		</contour>
		<contour>
			<point x="394.197" y="481" type="line"/>
			<point x="468.197" y="481" type="line"/>
			<point x="472.863" y="519" type="line"/>
			<point x="398.863" y="519" type="line"/>
		</contour>
		<contour>
			<point x="412.803" y="38" type="line"/>
			<point x="338.803" y="38" type="line"/>
			<point x="334.137" y="0" type="line"/>
			<point x="408.137" y="0" type="line"/>
		</contour>
		<contour>
			<point x="187.803" y="38" type="line"/>
			<point x="113.803" y="38" type="line"/>
			<point x="109.137" y="0" type="line"/>
			<point x="183.137" y="0" type="line"/>
		</contour>
		<contour>
			<point x="153.863" y="519" type="line"/>
			<point x="56.863" y="519" type="line"/>
			<point x="48.145" y="448" type="line" smooth="yes"/>
			<point x="45.321" y="425"/>
			<point x="59.093" y="415"/>
			<point x="82.479" y="410" type="curve" smooth="yes"/>
			<point x="125.374" y="401" type="line"/>
		</contour>
		<contour>
			<point x="314.863" y="519" type="line"/>
			<point x="217.863" y="519" type="line"/>
			<point x="217.374" y="401" type="line"/>
			<point x="262.479" y="410" type="line" smooth="yes"/>
			<point x="287.093" y="415"/>
			<point x="303.321" y="425"/>
			<point x="306.145" y="448" type="curve" smooth="yes"/>
		</contour>
		<contour>
			<point x="438.863" y="519" type="line"/>
			<point x="341.863" y="519" type="line"/>
			<point x="333.145" y="448" type="line" smooth="yes"/>
			<point x="330.321" y="425"/>
			<point x="344.093" y="415"/>
			<point x="367.479" y="410" type="curve" smooth="yes"/>
			<point x="410.374" y="401" type="line"/>
		</contour>
		<contour>
			<point x="595.863" y="519" type="line"/>
			<point x="498.863" y="519" type="line"/>
			<point x="498.374" y="401" type="line"/>
			<point x="543.479" y="410" type="line" smooth="yes"/>
			<point x="568.093" y="415"/>
			<point x="584.321" y="425"/>
			<point x="587.145" y="448" type="curve" smooth="yes"/>
		</contour>
		<contour>
			<point x="442.137" y="0" type="line"/>
			<point x="539.137" y="0" type="line"/>
			<point x="547.855" y="71" type="line" smooth="yes"/>
			<point x="550.679" y="94"/>
			<point x="536.907" y="104"/>
			<point x="513.521" y="109" type="curve" smooth="yes"/>
			<point x="470.626" y="118" type="line"/>
		</contour>
		<contour>
			<point x="147.137" y="0" type="line"/>
			<point x="244.137" y="0" type="line"/>
			<point x="252.855" y="71" type="line" smooth="yes"/>
			<point x="255.679" y="94"/>
			<point x="241.907" y="104"/>
			<point x="218.521" y="109" type="curve" smooth="yes"/>
			<point x="175.626" y="118" type="line"/>
		</contour>
		<contour>
			<point x="-13.863" y="0" type="line"/>
			<point x="83.137" y="0" type="line"/>
			<point x="83.626" y="118" type="line"/>
			<point x="38.521" y="109" type="line" smooth="yes"/>
			<point x="13.907" y="104"/>
			<point x="-2.321" y="94"/>
			<point x="-5.145" y="71" type="curve" smooth="yes"/>
		</contour>
		<contour>
			<point x="281.137" y="0" type="line"/>
			<point x="378.137" y="0" type="line"/>
			<point x="378.626" y="118" type="line"/>
			<point x="333.521" y="109" type="line" smooth="yes"/>
			<point x="308.907" y="104"/>
			<point x="292.679" y="94"/>
			<point x="289.855" y="71" type="curve" smooth="yes"/>
		</contour>
	</outline>
</glyph>
<glyph name="y" format="2">
	<advance width="589"/>
	<unicode hex="0079"/>
	<anchor x="328.863" y="519" name="top"/>
	<anchor x="360.945" y="-26" name="bottom"/>
	<note>
		y
	</note>
	<outline>
		<contour>
			<point x="74.878" y="-165" type="line"/>
			<point x="190.878" y="-165" type="line" smooth="yes"/>
			<point x="219.878" y="-165"/>
			<point x="232.528" y="-155.195"/>
			<point x="243.561" y="-135" type="curve" smooth="yes"/>
			<point x="600.863" y="519" type="line"/>
			<point x="475.863" y="519" type="line" smooth="yes"/>
			<point x="458.863" y="519"/>
			<point x="438.544" y="506.946"/>
			<point x="431.547" y="492" type="curve" smooth="yes"/>
			<point x="327.166" y="269" type="line" smooth="yes"/>
			<point x="322.547" y="259.131"/>
			<point x="301.536" y="215"/>
			<point x="297.431" y="206" type="curve"/>
			<point x="295.01" y="227"/>
			<point x="290.437" y="246.99"/>
			<point x="285.044" y="268" type="curve" smooth="yes"/>
			<point x="227.547" y="492" type="line" smooth="yes"/>
			<point x="223.67" y="507.105"/>
			<point x="212.863" y="519"/>
			<point x="188.863" y="519" type="curve" smooth="yes"/>
			<point x="51.863" y="519" type="line"/>
			<point x="200.785" y="46" type="line"/>
		</contour>
		<contour>
			<point x="168.197" y="481" type="line"/>
			<point x="242.197" y="481" type="line"/>
			<point x="246.863" y="519" type="line"/>
			<point x="172.863" y="519" type="line"/>
		</contour>
		<contour>
			<point x="419.197" y="481" type="line"/>
			<point x="493.197" y="481" type="line"/>
			<point x="497.863" y="519" type="line"/>
			<point x="423.863" y="519" type="line"/>
		</contour>
		<contour>
			<point x="138.863" y="519" type="line"/>
			<point x="41.863" y="519" type="line"/>
			<point x="33.145" y="448" type="line" smooth="yes"/>
			<point x="30.321" y="425"/>
			<point x="44.093" y="415"/>
			<point x="67.479" y="410" type="curve" smooth="yes"/>
			<point x="110.374" y="401" type="line"/>
		</contour>
		<contour>
			<point x="299.863" y="519" type="line"/>
			<point x="202.863" y="519" type="line"/>
			<point x="202.374" y="401" type="line"/>
			<point x="247.479" y="410" type="line" smooth="yes"/>
			<point x="272.093" y="415"/>
			<point x="288.321" y="425"/>
			<point x="291.145" y="448" type="curve" smooth="yes"/>
		</contour>
		<contour>
			<point x="449.863" y="519" type="line"/>
			<point x="352.863" y="519" type="line"/>
			<point x="344.145" y="448" type="line" smooth="yes"/>
			<point x="341.321" y="425"/>
			<point x="355.093" y="415"/>
			<point x="378.479" y="410" type="curve" smooth="yes"/>
			<point x="421.374" y="401" type="line"/>
		</contour>
		<contour>
			<point x="610.863" y="519" type="line"/>
			<point x="513.863" y="519" type="line"/>
			<point x="513.374" y="401" type="line"/>
			<point x="558.479" y="410" type="line" smooth="yes"/>
			<point x="583.093" y="415"/>
			<point x="599.321" y="425"/>
			<point x="602.145" y="448" type="curve" smooth="yes"/>
		</contour>
	</outline>
</glyph>
<glyph name="z" format="2">
	<advance width="490"/>
	<unicode hex="007A"/>
	<anchor x="276.126" y="513" name="top"/>
	<anchor x="213.137" y="0" name="bottom"/>
	<note>
		z
	</note>
	<outline>
		<contour>
			<point x="3.137" y="0" type="line"/>
			<point x="423.137" y="0" type="line"/>
			<point x="437.258" y="115" type="line"/>
			<point x="196.258" y="115" type="line"/>
			<point x="447.374" y="401" type="line" smooth="yes"/>
			<point x="460.216" y="416"/>
			<point x="471.671" y="436"/>
			<point x="474.25" y="457" type="curve" smooth="yes"/>
			<point x="481.863" y="519" type="line"/>
			<point x="80.863" y="519" type="line"/>
			<point x="66.742" y="404" type="line"/>
			<point x="291.742" y="404" type="line"/>
			<point x="37.135" y="114" type="line" smooth="yes"/>
			<point x="22.048" y="97"/>
			<point x="12.469" y="76"/>
			<point x="10.873" y="63" type="curve" smooth="yes"/>
		</contour>
		<contour>
			<point x="178.303" y="433" type="line"/>
			<point x="66.742" y="404" type="line"/>
			<point x="57.165" y="326" type="line"/>
			<point x="113.165" y="326" type="line" smooth="yes"/>
			<point x="136.165" y="326"/>
			<point x="148.007" y="341"/>
			<point x="155.954" y="365" type="curve" smooth="yes"/>
			<point x="178.303" y="433" type="line"/>
		</contour>
		<contour>
			<point x="325.574" y="85" type="line"/>
			<point x="437.135" y="114" type="line"/>
			<point x="446.712" y="192" type="line"/>
			<point x="390.712" y="192" type="line" smooth="yes"/>
			<point x="367.712" y="192"/>
			<point x="355.87" y="177"/>
			<point x="347.923" y="153" type="curve" smooth="yes"/>
			<point x="325.574" y="85" type="line"/>
		</contour>
	</outline>
</glyph>
<glyph name="braceleft" format="2">
	<advance width="352"/>
	<unicode hex="007B"/>
	<note>
		braceleft
	</note>
	<outline>
		<contour>
			<point x="220.246" y="-162" type="curve" smooth="yes"/>
			<point x="246.246" y="-162" type="line"/>
			<point x="254.473" y="-95" type="line" smooth="yes"/>
			<point x="256.806" y="-76"/>
			<point x="239.034" y="-66"/>
			<point x="226.034" y="-66" type="curve" smooth="yes"/>
			<point x="225.034" y="-66" type="line" smooth="yes"/>
			<point x="184.034" y="-66"/>
			<point x="168.472" y="-38"/>
			<point x="174.12" y="8" type="curve" smooth="yes"/>
			<point x="180.996" y="64"/>
			<point x="205.432" y="149"/>
			<point x="211.326" y="197" type="curve" smooth="yes"/>
			<point x="217.588" y="248"/>
			<point x="194.99" y="292"/>
			<point x="144.955" y="308" type="curve"/>
			<point x="198.92" y="324"/>
			<point x="232.568" y="370"/>
			<point x="238.707" y="420" type="curve" smooth="yes"/>
			<point x="244.601" y="468"/>
			<point x="241.037" y="553"/>
			<point x="247.913" y="609" type="curve" smooth="yes"/>
			<point x="253.439" y="654"/>
			<point x="275.754" y="681"/>
			<point x="316.876" y="682" type="curve" smooth="yes"/>
			<point x="317.876" y="682" type="line" smooth="yes"/>
			<point x="330.876" y="682"/>
			<point x="351.35" y="694"/>
			<point x="353.56" y="712" type="curve" smooth="yes"/>
			<point x="361.787" y="779" type="line"/>
			<point x="335.787" y="779" type="line" smooth="yes"/>
			<point x="202.787" y="779"/>
			<point x="125.683" y="713"/>
			<point x="111.685" y="599" type="curve" smooth="yes"/>
			<point x="105.178" y="546"/>
			<point x="113.846" y="470"/>
			<point x="107.461" y="418" type="curve" smooth="yes"/>
			<point x="102.673" y="379"/>
			<point x="86.358" y="352"/>
			<point x="46.358" y="352" type="curve"/>
			<point x="35.675" y="265" type="line"/>
			<point x="75.675" y="265"/>
			<point x="85.483" y="239"/>
			<point x="80.572" y="199" type="curve" smooth="yes"/>
			<point x="74.187" y="147"/>
			<point x="46.855" y="71"/>
			<point x="40.348" y="18" type="curve" smooth="yes"/>
			<point x="26.105" y="-98"/>
			<point x="87.246" y="-162"/>
		</contour>
	</outline>
</glyph>
<glyph name="bar" format="2">
	<advance width="272"/>
	<unicode hex="007C"/>
	<note>
		bar
	</note>
	<outline>
		<contour>
			<point x="23.878" y="-165" type="line"/>
			<point x="143.878" y="-165" type="line"/>
			<point x="259.787" y="779" type="line"/>
			<point x="139.787" y="779" type="line"/>
			<point x="23.878" y="-165" type="line"/>
		</contour>
	</outline>
</glyph>
<glyph name="braceright" format="2">
	<advance width="352"/>
	<unicode hex="007D"/>
	<note>
		braceright
	</note>
	<outline>
		<contour>
			<point x="143.787" y="779" type="curve" smooth="yes"/>
			<point x="117.787" y="779" type="line"/>
			<point x="109.56" y="712" type="line" smooth="yes"/>
			<point x="107.227" y="693"/>
			<point x="125" y="683"/>
			<point x="138" y="683" type="curve" smooth="yes"/>
			<point x="139" y="683" type="line" smooth="yes"/>
			<point x="180" y="683"/>
			<point x="195.561" y="655"/>
			<point x="189.913" y="609" type="curve" smooth="yes"/>
			<point x="183.037" y="553"/>
			<point x="158.601" y="468"/>
			<point x="152.707" y="420" type="curve" smooth="yes"/>
			<point x="146.445" y="369"/>
			<point x="169.042" y="325"/>
			<point x="219.078" y="309" type="curve"/>
			<point x="165.113" y="293"/>
			<point x="131.465" y="247"/>
			<point x="125.326" y="197" type="curve" smooth="yes"/>
			<point x="119.432" y="149"/>
			<point x="122.996" y="64"/>
			<point x="116.12" y="8" type="curve" smooth="yes"/>
			<point x="110.594" y="-37"/>
			<point x="88.279" y="-64"/>
			<point x="47.156" y="-65" type="curve" smooth="yes"/>
			<point x="46.156" y="-65" type="line" smooth="yes"/>
			<point x="33.156" y="-65"/>
			<point x="12.683" y="-77"/>
			<point x="10.473" y="-95" type="curve" smooth="yes"/>
			<point x="2.246" y="-162" type="line"/>
			<point x="28.246" y="-162" type="line" smooth="yes"/>
			<point x="161.246" y="-162"/>
			<point x="238.35" y="-96"/>
			<point x="252.348" y="18" type="curve" smooth="yes"/>
			<point x="258.855" y="71"/>
			<point x="250.187" y="147"/>
			<point x="256.572" y="199" type="curve" smooth="yes"/>
			<point x="261.36" y="238"/>
			<point x="277.675" y="265"/>
			<point x="317.675" y="265" type="curve"/>
			<point x="328.358" y="352" type="line"/>
			<point x="288.358" y="352"/>
			<point x="278.55" y="378"/>
			<point x="283.461" y="418" type="curve" smooth="yes"/>
			<point x="289.846" y="470"/>
			<point x="317.178" y="546"/>
			<point x="323.685" y="599" type="curve" smooth="yes"/>
			<point x="337.928" y="715"/>
			<point x="276.787" y="779"/>
		</contour>
	</outline>
</glyph>
<glyph name="asciitilde" format="2">
	<advance width="586"/>
	<unicode hex="007E"/>
	<note>
		asciitilde
	</note>
	<outline>
		<contour>
			<point x="379.761" y="339" type="curve"/>
			<point x="379.761" y="339" type="line"/>
			<point x="340.761" y="339"/>
			<point x="287.304" y="376"/>
			<point x="224.304" y="376" type="curve" smooth="yes"/>
			<point x="120.304" y="376"/>
			<point x="50.587" y="305"/>
			<point x="36.835" y="193" type="curve"/>
			<point x="161.835" y="193" type="line"/>
			<point x="166.746" y="233"/>
			<point x="187.325" y="254"/>
			<point x="219.325" y="254" type="curve" smooth="yes"/>
			<point x="255.325" y="254"/>
			<point x="328.659" y="216"/>
			<point x="374.659" y="216" type="curve" smooth="yes"/>
			<point x="480.659" y="216"/>
			<point x="548.499" y="288"/>
			<point x="562.251" y="400" type="curve"/>
			<point x="437.251" y="400" type="line"/>
			<point x="432.34" y="360"/>
			<point x="411.761" y="339"/>
		</contour>
	</outline>
</glyph>
<glyph name="exclamdown" format="2">
	<advance width="302"/>
	<unicode hex="00A1"/>
	<note>
		exclamdown
	</note>
	<outline>
		<contour>
			<point x="172.878" y="-165" type="line"/>
			<point x="205.293" y="99" type="line" smooth="yes"/>
			<point x="212.783" y="160"/>
			<point x="212.15" y="220"/>
			<point x="207.885" y="283" type="curve"/>
			<point x="102.885" y="283" type="line"/>
			<point x="83.15" y="220"/>
			<point x="67.783" y="160"/>
			<point x="60.293" y="99" type="curve" smooth="yes"/>
			<point x="27.878" y="-165" type="line"/>
			<point x="172.878" y="-165" type="line"/>
		</contour>
		<contour>
			<point x="85.285" y="441" type="curve"/>
			<point x="85.285" y="441" type="line"/>
			<point x="79.392" y="393"/>
			<point x="113.849" y="356"/>
			<point x="162.849" y="356" type="curve" smooth="yes"/>
			<point x="212.849" y="356"/>
			<point x="255.392" y="393"/>
			<point x="261.285" y="441" type="curve" smooth="yes"/>
			<point x="267.302" y="490"/>
			<point x="234.845" y="527"/>
			<point x="183.845" y="527" type="curve" smooth="yes"/>
			<point x="134.845" y="527"/>
			<point x="91.302" y="490"/>
		</contour>
	</outline>
</glyph>
<glyph name="cent" format="2">
	<advance width="485"/>
	<unicode hex="00A2"/>
	<anchor x="292.863" y="519" name="top"/>
	<anchor x="226.137" y="0" name="bottom"/>
	<note>
		cent
	</note>
	<outline>
		<contour>
			<point x="145.122" y="-106" type="line"/>
			<point x="202.122" y="-106" type="line" smooth="yes"/>
			<point x="226.122" y="-106"/>
			<point x="243.332" y="-88"/>
			<point x="247.665" y="-69" type="curve" smooth="yes"/>
			<point x="404.737" y="632" type="line"/>
			<point x="347.737" y="632" type="line" smooth="yes"/>
			<point x="324.737" y="632"/>
			<point x="306.527" y="614"/>
			<point x="302.194" y="595" type="curve" smooth="yes"/>
		</contour>
		<contour>
			<point x="224.155" y="-8" type="curve" smooth="yes"/>
			<point x="297.155" y="-8"/>
			<point x="377.242" y="9"/>
			<point x="450.083" y="81" type="curve"/>
			<point x="411.959" y="137" type="line" smooth="yes"/>
			<point x="405.941" y="145"/>
			<point x="398.555" y="150"/>
			<point x="385.555" y="150" type="curve" smooth="yes"/>
			<point x="353.555" y="150"/>
			<point x="319.153" y="106"/>
			<point x="267.153" y="106" type="curve" smooth="yes"/>
			<point x="200.153" y="106"/>
			<point x="165.906" y="161"/>
			<point x="178.184" y="261" type="curve" smooth="yes"/>
			<point x="189.358" y="352"/>
			<point x="228.847" y="413"/>
			<point x="306.847" y="413" type="curve" smooth="yes"/>
			<point x="346.847" y="413"/>
			<point x="366.988" y="406"/>
			<point x="391.409" y="385" type="curve"/>
			<point x="466.497" y="402" type="line"/>
			<point x="477.179" y="489" type="line"/>
			<point x="423.371" y="515"/>
			<point x="368.845" y="527"/>
			<point x="310.845" y="527" type="curve" smooth="yes"/>
			<point x="145.845" y="527"/>
			<point x="38.093" y="415"/>
			<point x="19.184" y="261" type="curve" smooth="yes"/>
			<point x="-0.83" y="98"/>
			<point x="90.155" y="-8"/>
		</contour>
		<contour>
			<point x="362.058" y="431" type="line"/>
			<point x="367.708" y="363" type="line" smooth="yes"/>
			<point x="369.761" y="339"/>
			<point x="377.92" y="324"/>
			<point x="400.92" y="324" type="curve" smooth="yes"/>
			<point x="456.92" y="324" type="line"/>
			<point x="466.497" y="402" type="line"/>
			<point x="362.058" y="431" type="line"/>
		</contour>
	</outline>
</glyph>
<glyph name="sterling" format="2">
	<advance width="636"/>
	<unicode hex="00A3"/>
	<note>
		sterling
	</note>
	<outline>
		<contour>
			<point x="26.137" y="0" type="line"/>
			<point x="569.137" y="0" type="line"/>
			<point x="584.854" y="128" type="line"/>
			<point x="333.854" y="128" type="line" smooth="yes"/>
			<point x="302.854" y="128"/>
			<point x="272.363" y="124"/>
			<point x="242.503" y="117" type="curve"/>
			<point x="270.941" y="145"/>
			<point x="290.87" y="177"/>
			<point x="295.782" y="217" type="curve" smooth="yes"/>
			<point x="305.359" y="295" type="line"/>
			<point x="452.359" y="295" type="line" smooth="yes"/>
			<point x="477.359" y="295"/>
			<point x="497.446" y="312"/>
			<point x="500.025" y="333" type="curve" smooth="yes"/>
			<point x="507.269" y="392" type="line"/>
			<point x="317.269" y="392" type="line"/>
			<point x="330.652" y="501" type="line" smooth="yes"/>
			<point x="339.37" y="572"/>
			<point x="371.036" y="610"/>
			<point x="424.036" y="610" type="curve" smooth="yes"/>
			<point x="453.036" y="610"/>
			<point x="469.44" y="597"/>
			<point x="491.37" y="572" type="curve" smooth="yes"/>
			<point x="502.774" y="559"/>
			<point x="516.037" y="553"/>
			<point x="531.037" y="553" type="curve" smooth="yes"/>
			<point x="542.037" y="553"/>
			<point x="554.406" y="556"/>
			<point x="567.265" y="563" type="curve" smooth="yes"/>
			<point x="589.861" y="576"/>
			<point x="611.458" y="589"/>
			<point x="634.054" y="602" type="curve"/>
			<point x="603.876" y="682"/>
			<point x="543.63" y="737"/>
			<point x="439.63" y="737" type="curve" smooth="yes"/>
			<point x="284.63" y="737"/>
			<point x="187.86" y="633"/>
			<point x="171.53" y="500" type="curve" smooth="yes"/>
			<point x="158.269" y="392" type="line"/>
			<point x="116.269" y="392" type="line" smooth="yes"/>
			<point x="83.269" y="392"/>
			<point x="62.568" y="370"/>
			<point x="59.253" y="343" type="curve" smooth="yes"/>
			<point x="53.359" y="295" type="line"/>
			<point x="146.359" y="295" type="line"/>
			<point x="131.747" y="176" type="line" smooth="yes"/>
			<point x="125.854" y="128"/>
			<point x="83.539" y="101"/>
			<point x="37.556" y="93" type="curve"/>
		</contour>
		<contour>
			<point x="473.153" y="106" type="line"/>
			<point x="584.854" y="128" type="line"/>
			<point x="595.413" y="214" type="line"/>
			<point x="539.413" y="214" type="line" smooth="yes"/>
			<point x="516.413" y="214"/>
			<point x="504.572" y="199"/>
			<point x="496.625" y="175" type="curve" smooth="yes"/>
		</contour>
	</outline>
</glyph>
<glyph name="currency" format="2">
	<advance width="577"/>
	<unicode hex="00A4"/>
	<note>
		currency
	</note>
	<outline>
		<contour>
			<point x="107.516" y="337" type="curve"/>
			<point x="107.516" y="337" type="line"/>
			<point x="103.464" y="304"/>
			<point x="108.535" y="272"/>
			<point x="120.097" y="244" type="curve"/>
			<point x="34.888" y="169" type="line"/>
			<point x="102.679" y="94" type="line"/>
			<point x="188.888" y="169" type="line"/>
			<point x="214.292" y="156"/>
			<point x="242.31" y="148"/>
			<point x="274.31" y="148" type="curve" smooth="yes"/>
			<point x="307.31" y="148"/>
			<point x="339.292" y="156"/>
			<point x="369.134" y="171" type="curve"/>
			<point x="435.048" y="97" type="line"/>
			<point x="522.256" y="172" type="line"/>
			<point x="454.588" y="248" type="line"/>
			<point x="472.903" y="275"/>
			<point x="483.587" y="305"/>
			<point x="487.516" y="337" type="curve" smooth="yes"/>
			<point x="491.813" y="372"/>
			<point x="486.497" y="402"/>
			<point x="474.935" y="430" type="curve"/>
			<point x="560.144" y="505" type="line"/>
			<point x="492.352" y="580" type="line"/>
			<point x="407.021" y="504" type="line"/>
			<point x="381.863" y="519"/>
			<point x="352.722" y="526"/>
			<point x="320.722" y="526" type="curve" smooth="yes"/>
			<point x="287.722" y="526"/>
			<point x="255.74" y="518"/>
			<point x="225.898" y="503" type="curve"/>
			<point x="159.984" y="577" type="line"/>
			<point x="72.898" y="503" type="line"/>
			<point x="140.566" y="427" type="line"/>
			<point x="124.251" y="400"/>
			<point x="111.568" y="370"/>
		</contour>
		<contour>
			<point x="221.516" y="337" type="curve"/>
			<point x="221.516" y="337" type="line"/>
			<point x="226.796" y="380"/>
			<point x="265.461" y="418"/>
			<point x="307.461" y="418" type="curve" smooth="yes"/>
			<point x="350.461" y="418"/>
			<point x="379.918" y="381"/>
			<point x="374.516" y="337" type="curve" smooth="yes"/>
			<point x="369.113" y="293"/>
			<point x="330.816" y="258"/>
			<point x="287.816" y="258" type="curve" smooth="yes"/>
			<point x="245.816" y="258"/>
			<point x="216.236" y="294"/>
		</contour>
	</outline>
</glyph>
<glyph name="section" format="2">
	<advance width="517"/>
	<unicode hex="00A7"/>
	<note>
		section
	</note>
	<outline>
		<contour>
			<point x="181.893" y="-59" type="curve" smooth="yes"/>
			<point x="315.893" y="-59"/>
			<point x="408.12" y="8"/>
			<point x="421.626" y="118" type="curve" smooth="yes"/>
			<point x="427.274" y="164"/>
			<point x="412.08" y="195"/>
			<point x="386.027" y="219" type="curve"/>
			<point x="444.465" y="247"/>
			<point x="473.359" y="295"/>
			<point x="479.744" y="347" type="curve" smooth="yes"/>
			<point x="489.075" y="423"/>
			<point x="429.355" y="466"/>
			<point x="364.039" y="496" type="curve" smooth="yes"/>
			<point x="305.231" y="522"/>
			<point x="233.932" y="544"/>
			<point x="238.23" y="579" type="curve" smooth="yes"/>
			<point x="241.668" y="607"/>
			<point x="267.123" y="627"/>
			<point x="315.123" y="627" type="curve" smooth="yes"/>
			<point x="364.123" y="627"/>
			<point x="392.44" y="597"/>
			<point x="422.44" y="597" type="curve" smooth="yes"/>
			<point x="437.44" y="597"/>
			<point x="445.054" y="602"/>
			<point x="454.527" y="614" type="curve" smooth="yes"/>
			<point x="496.28" y="669" type="line"/>
			<point x="462.946" y="707"/>
			<point x="401.507" y="736"/>
			<point x="325.507" y="736" type="curve" smooth="yes"/>
			<point x="199.507" y="736"/>
			<point x="112.035" y="667"/>
			<point x="100.37" y="572" type="curve" smooth="yes"/>
			<point x="94.599" y="525"/>
			<point x="106.179" y="489"/>
			<point x="135.496" y="459" type="curve"/>
			<point x="77.303" y="433"/>
			<point x="47.778" y="388"/>
			<point x="41.639" y="338" type="curve" smooth="yes"/>
			<point x="31.079" y="252"/>
			<point x="90.168" y="212"/>
			<point x="159.73" y="184" type="curve" smooth="yes"/>
			<point x="216.783" y="160"/>
			<point x="289.818" y="144"/>
			<point x="283.556" y="93" type="curve" smooth="yes"/>
			<point x="279.75" y="62"/>
			<point x="252.785" y="46"/>
			<point x="208.785" y="46" type="curve" smooth="yes"/>
			<point x="159.785" y="46"/>
			<point x="121.451" y="84"/>
			<point x="88.451" y="84" type="curve" smooth="yes"/>
			<point x="70.451" y="84"/>
			<point x="58.592" y="77"/>
			<point x="46.873" y="63" type="curve" smooth="yes"/>
			<point x="3.874" y="6" type="line"/>
			<point x="40.208" y="-32"/>
			<point x="115.893" y="-59"/>
		</contour>
		<contour>
			<point x="308.921" y="267" type="curve"/>
			<point x="284.272" y="278"/>
			<point x="256.499" y="288"/>
			<point x="232.973" y="300" type="curve" smooth="yes"/>
			<point x="201.937" y="316"/>
			<point x="178.27" y="335"/>
			<point x="181.585" y="362" type="curve" smooth="yes"/>
			<point x="184.164" y="383"/>
			<point x="194.637" y="395"/>
			<point x="214.234" y="408" type="curve"/>
			<point x="242.515" y="394"/>
			<point x="275.918" y="381"/>
			<point x="300.322" y="368" type="curve" smooth="yes"/>
			<point x="325.603" y="354"/>
			<point x="343.516" y="337"/>
			<point x="340.569" y="313" type="curve" smooth="yes"/>
			<point x="338.236" y="294"/>
			<point x="328.149" y="277"/>
		</contour>
	</outline>
</glyph>
<glyph name="dieresis" format="2">
	<advance width="396"/>
	<unicode hex="00A8"/>
	<note>
		dieresis
	</note>
	<outline>
		<contour>
			<point x="229.702" y="648" type="curve"/>
			<point x="229.702" y="648" type="line"/>
			<point x="235.104" y="692"/>
			<point x="202.402" y="727"/>
			<point x="157.402" y="727" type="curve" smooth="yes"/>
			<point x="115.402" y="727"/>
			<point x="73.982" y="691"/>
			<point x="68.702" y="648" type="curve" smooth="yes"/>
			<point x="63.545" y="606"/>
			<point x="96.247" y="571"/>
			<point x="138.247" y="571" type="curve" smooth="yes"/>
			<point x="183.247" y="571"/>
			<point x="224.422" y="605"/>
		</contour>
		<contour>
			<point x="422.702" y="648" type="curve"/>
			<point x="422.702" y="648" type="line"/>
			<point x="428.104" y="692"/>
			<point x="397.402" y="727"/>
			<point x="351.402" y="727" type="curve" smooth="yes"/>
			<point x="308.402" y="727"/>
			<point x="267.104" y="692"/>
			<point x="261.702" y="648" type="curve" smooth="yes"/>
			<point x="256.422" y="605"/>
			<point x="289.247" y="571"/>
			<point x="332.247" y="571" type="curve" smooth="yes"/>
			<point x="378.247" y="571"/>
			<point x="417.422" y="605"/>
		</contour>
	</outline>
</glyph>
<glyph name="copyright" format="2">
	<advance width="775"/>
	<unicode hex="00A9"/>
	<note>
		copyright
	</note>
	<outline>
		<contour>
			<point x="194.831" y="364" type="curve" smooth="yes"/>
			<point x="187.832" y="307"/>
			<point x="200.079" y="252"/>
			<point x="233.168" y="212" type="curve" smooth="yes"/>
			<point x="261.993" y="178"/>
			<point x="309.169" y="155"/>
			<point x="376.169" y="155" type="curve" smooth="yes"/>
			<point x="441.169" y="155"/>
			<point x="496.87" y="177"/>
			<point x="535.518" y="223" type="curve"/>
			<point x="491.903" y="275" type="line" smooth="yes"/>
			<point x="487.517" y="280"/>
			<point x="482.885" y="283"/>
			<point x="476.885" y="283" type="curve" smooth="yes"/>
			<point x="468.885" y="283"/>
			<point x="460.272" y="278"/>
			<point x="454.78" y="274" type="curve" smooth="yes"/>
			<point x="435.061" y="260"/>
			<point x="418.693" y="257"/>
			<point x="399.693" y="257" type="curve" smooth="yes"/>
			<point x="342.693" y="257"/>
			<point x="314.096" y="301"/>
			<point x="322.077" y="366" type="curve" smooth="yes"/>
			<point x="330.18" y="432"/>
			<point x="371.337" y="474"/>
			<point x="436.337" y="474" type="curve" smooth="yes"/>
			<point x="444.337" y="474"/>
			<point x="466.337" y="474"/>
			<point x="485.969" y="471" type="curve"/>
			<point x="489.636" y="452" type="line" smooth="yes"/>
			<point x="492.549" y="435"/>
			<point x="497.321" y="425"/>
			<point x="514.321" y="425" type="curve" smooth="yes"/>
			<point x="555.321" y="425" type="line"/>
			<point x="570.178" y="546" type="line"/>
			<point x="538.897" y="560"/>
			<point x="499.107" y="578"/>
			<point x="443.107" y="578" type="curve" smooth="yes"/>
			<point x="380.107" y="578"/>
			<point x="320.283" y="555"/>
			<point x="275.617" y="517" type="curve" smooth="yes"/>
			<point x="229.828" y="478"/>
			<point x="202.444" y="426"/>
		</contour>
		<contour>
			<point x="354.278" y="-7" type="curve" smooth="yes"/>
			<point x="557.278" y="-7"/>
			<point x="747.292" y="156"/>
			<point x="772.954" y="365" type="curve" smooth="yes"/>
			<point x="798.247" y="571"/>
			<point x="650.63" y="737"/>
			<point x="445.63" y="737" type="curve" smooth="yes"/>
			<point x="240.63" y="737"/>
			<point x="53.002" y="569"/>
			<point x="27.954" y="365" type="curve" smooth="yes"/>
			<point x="2.906" y="161"/>
			<point x="150.278" y="-7"/>
		</contour>
		<contour>
			<point x="362.873" y="63" type="curve" smooth="yes"/>
			<point x="200.124" y="63"/>
			<point x="90.35" y="197.199"/>
			<point x="110.954" y="365" type="curve" smooth="yes"/>
			<point x="131.595" y="533.108"/>
			<point x="275.174" y="669"/>
			<point x="437.28" y="669" type="curve" smooth="yes"/>
			<point x="599.28" y="669"/>
			<point x="712.827" y="535"/>
			<point x="691.954" y="365" type="curve" smooth="yes"/>
			<point x="670.958" y="194"/>
			<point x="524.873" y="63"/>
		</contour>
	</outline>
</glyph>
<glyph name="ordfeminine" format="2">
	<advance width="365.7"/>
	<unicode hex="00AA"/>
	<anchor x="257.96" y="1" name="ogonek"/>
	<anchor x="132.837" y="0" name="bottom"/>
	<anchor x="177.637" y="316" name="top"/>
	<note>
		ordfeminine
	</note>
	<outline>
		<contour>
			<point x="132.425" y="412" type="curve" smooth="yes"/>
			<point x="172.425" y="412"/>
			<point x="201.266" y="427"/>
			<point x="229.968" y="449" type="curve"/>
			<point x="234.74" y="439" type="line" smooth="yes"/>
			<point x="241.652" y="422"/>
			<point x="248.039" y="417"/>
			<point x="272.039" y="417" type="curve" smooth="yes"/>
			<point x="325.039" y="417" type="line"/>
			<point x="348.859" y="611" type="line" smooth="yes"/>
			<point x="357.945" y="685"/>
			<point x="312.575" y="739"/>
			<point x="233.575" y="739" type="curve" smooth="yes"/>
			<point x="180.575" y="739"/>
			<point x="125.611" y="723"/>
			<point x="81.436" y="689" type="curve"/>
			<point x="98.016" y="653" type="line" smooth="yes"/>
			<point x="102.665" y="642"/>
			<point x="111.683" y="634"/>
			<point x="129.314" y="631" type="curve" smooth="yes"/>
			<point x="160.701" y="626"/>
			<point x="168.77" y="651"/>
			<point x="207.77" y="651" type="curve" smooth="yes"/>
			<point x="228.77" y="651"/>
			<point x="240.665" y="642"/>
			<point x="236.859" y="611" type="curve" smooth="yes"/>
			<point x="236.122" y="605" type="line"/>
			<point x="164.876" y="603"/>
			<point x="117.035" y="588"/>
			<point x="87.579" y="568" type="curve" smooth="yes"/>
			<point x="59.123" y="548"/>
			<point x="46.931" y="522"/>
			<point x="44.352" y="501" type="curve" smooth="yes"/>
			<point x="37.477" y="445"/>
			<point x="70.425" y="412"/>
		</contour>
		<contour>
			<point x="178.879" y="489" type="curve"/>
			<point x="160.879" y="489"/>
			<point x="153.125" y="491"/>
			<point x="155.089" y="507" type="curve" smooth="yes"/>
			<point x="157.054" y="523"/>
			<point x="174.527" y="535"/>
			<point x="227.773" y="537" type="curve"/>
			<point x="224.089" y="507" type="line"/>
			<point x="207.247" y="492"/>
			<point x="194.879" y="489"/>
		</contour>
		<contour>
			<point x="311.039" y="417" type="line"/>
			<point x="371.039" y="417" type="line"/>
			<point x="377.546" y="470" type="line" smooth="yes"/>
			<point x="379.388" y="485"/>
			<point x="372.37" y="493"/>
			<point x="352.107" y="499" type="curve" smooth="yes"/>
			<point x="331.844" y="505" type="line"/>
		</contour>
	</outline>
</glyph>
<glyph name="guillemotleft" format="2">
	<advance width="506"/>
	<unicode hex="00AB"/>
	<note>
		guillemotleft
	</note>
	<outline>
		<contour>
			<point x="161.75" y="62" type="line"/>
			<point x="215.574" y="85" type="line" smooth="yes"/>
			<point x="232.393" y="91.667"/>
			<point x="241.743" y="102.667"/>
			<point x="243.38" y="116" type="curve" smooth="yes"/>
			<point x="244.363" y="124"/>
			<point x="242.719" y="132.333"/>
			<point x="238.45" y="141" type="curve" smooth="yes"/>
			<point x="191.711" y="249" type="line" smooth="yes"/>
			<point x="186.939" y="259"/>
			<point x="181.88" y="266.667"/>
			<point x="176.535" y="272" type="curve"/>
			<point x="183.939" y="278"/>
			<point x="190.921" y="286"/>
			<point x="197.482" y="296" type="curve" smooth="yes"/>
			<point x="270.62" y="403" type="line" smooth="yes"/>
			<point x="277.099" y="412.333"/>
			<point x="280.83" y="421"/>
			<point x="281.812" y="429" type="curve" smooth="yes"/>
			<point x="283.449" y="442.333"/>
			<point x="276.8" y="453.333"/>
			<point x="261.618" y="460" type="curve" smooth="yes"/>
			<point x="213.442" y="483" type="line"/>
			<point x="57.763" y="282" type="line"/>
			<point x="55.43" y="263" type="line"/>
			<point x="161.75" y="62" type="line"/>
		</contour>
		<contour>
			<point x="341.75" y="62" type="line"/>
			<point x="395.574" y="85" type="line" smooth="yes"/>
			<point x="412.393" y="91.667"/>
			<point x="421.743" y="102.667"/>
			<point x="423.38" y="116" type="curve" smooth="yes"/>
			<point x="424.363" y="124"/>
			<point x="422.719" y="132.333"/>
			<point x="418.45" y="141" type="curve" smooth="yes"/>
			<point x="371.711" y="249" type="line" smooth="yes"/>
			<point x="366.939" y="259"/>
			<point x="361.88" y="266.667"/>
			<point x="356.535" y="272" type="curve"/>
			<point x="363.939" y="278"/>
			<point x="370.921" y="286"/>
			<point x="377.482" y="296" type="curve" smooth="yes"/>
			<point x="450.62" y="403" type="line" smooth="yes"/>
			<point x="457.099" y="412.333"/>
			<point x="460.83" y="421"/>
			<point x="461.812" y="429" type="curve" smooth="yes"/>
			<point x="463.449" y="442.333"/>
			<point x="456.8" y="453.333"/>
			<point x="441.618" y="460" type="curve" smooth="yes"/>
			<point x="393.442" y="483" type="line"/>
			<point x="237.763" y="282" type="line"/>
			<point x="235.43" y="263" type="line"/>
			<point x="341.75" y="62" type="line"/>
		</contour>
	</outline>
</glyph>
<glyph name="logicalnot" format="2">
	<advance width="563"/>
	<unicode hex="00AC"/>
	<note>
		logicalnot
	</note>
	<outline>
		<contour>
			<point x="51.64" y="281" type="line"/>
			<point x="375.64" y="281" type="line"/>
			<point x="358.45" y="141" type="line"/>
			<point x="489.45" y="141" type="line"/>
			<point x="520.269" y="392" type="line"/>
			<point x="65.269" y="392" type="line"/>
			<point x="51.64" y="281" type="line"/>
		</contour>
	</outline>
</glyph>
<glyph name="registered" format="2">
	<advance width="775"/>
	<unicode hex="00AE"/>
	<anchor x="-131.521" y="410" name="top"/>
	<anchor x="337.137" y="0" name="bottom"/>
	<note>
		registered
	</note>
	<outline>
		<contour>
			<point x="187.52" y="166" type="line"/>
			<point x="385.52" y="166" type="line"/>
			<point x="391.291" y="213" type="line" smooth="yes"/>
			<point x="393.132" y="228"/>
			<point x="383.869" y="234"/>
			<point x="367.36" y="238" type="curve" smooth="yes"/>
			<point x="350.851" y="242" type="line"/>
			<point x="359.078" y="309" type="line"/>
			<point x="376.078" y="309" type="line" smooth="yes"/>
			<point x="393.078" y="309"/>
			<point x="397.464" y="304"/>
			<point x="401.113" y="293" type="curve" smooth="yes"/>
			<point x="439.975" y="186" type="line" smooth="yes"/>
			<point x="445.134" y="171"/>
			<point x="462.52" y="166"/>
			<point x="477.52" y="166" type="curve" smooth="yes"/>
			<point x="573.52" y="166" type="line"/>
			<point x="579.291" y="213" type="line" smooth="yes"/>
			<point x="580.887" y="226"/>
			<point x="572.869" y="234"/>
			<point x="555.36" y="238" type="curve" smooth="yes"/>
			<point x="543.728" y="241" type="line"/>
			<point x="521.973" y="300" type="line" smooth="yes"/>
			<point x="515.937" y="316"/>
			<point x="504.165" y="326"/>
			<point x="489.025" y="333" type="curve"/>
			<point x="542.094" y="358"/>
			<point x="571.374" y="401"/>
			<point x="577.513" y="451" type="curve" smooth="yes"/>
			<point x="588.318" y="539"/>
			<point x="519.861" y="576"/>
			<point x="421.861" y="576" type="curve" smooth="yes"/>
			<point x="237.861" y="576" type="line"/>
			<point x="231.968" y="528" type="line" smooth="yes"/>
			<point x="230.126" y="513"/>
			<point x="239.512" y="508"/>
			<point x="255.021" y="504" type="curve" smooth="yes"/>
			<point x="271.53" y="500" type="line"/>
			<point x="239.851" y="242" type="line"/>
			<point x="222.36" y="238" type="line" smooth="yes"/>
			<point x="205.869" y="234"/>
			<point x="195.132" y="228"/>
			<point x="193.291" y="213" type="curve" smooth="yes"/>
		</contour>
		<contour>
			<point x="368.532" y="386" type="line"/>
			<point x="381.547" y="492" type="line"/>
			<point x="411.547" y="492" type="line" smooth="yes"/>
			<point x="453.547" y="492"/>
			<point x="470.092" y="472"/>
			<point x="466.408" y="442" type="curve" smooth="yes"/>
			<point x="462.356" y="409"/>
			<point x="441.532" y="386"/>
			<point x="399.532" y="386" type="curve" smooth="yes"/>
		</contour>
		<contour>
			<point x="354.278" y="-7" type="curve" smooth="yes"/>
			<point x="557.278" y="-7"/>
			<point x="747.292" y="156"/>
			<point x="772.954" y="365" type="curve" smooth="yes"/>
			<point x="798.247" y="571"/>
			<point x="650.63" y="737"/>
			<point x="445.63" y="737" type="curve" smooth="yes"/>
			<point x="240.63" y="737"/>
			<point x="53.002" y="569"/>
			<point x="27.954" y="365" type="curve" smooth="yes"/>
			<point x="2.906" y="161"/>
			<point x="150.278" y="-7"/>
		</contour>
		<contour>
			<point x="362.873" y="63" type="curve" smooth="yes"/>
			<point x="200.124" y="63"/>
			<point x="90.35" y="197.199"/>
			<point x="110.954" y="365" type="curve" smooth="yes"/>
			<point x="131.595" y="533.108"/>
			<point x="275.174" y="669"/>
			<point x="437.28" y="669" type="curve" smooth="yes"/>
			<point x="599.28" y="669"/>
			<point x="712.827" y="535"/>
			<point x="691.954" y="365" type="curve" smooth="yes"/>
			<point x="670.958" y="194"/>
			<point x="524.873" y="63"/>
		</contour>
	</outline>
</glyph>
<glyph name="degree" format="2">
	<advance width="391"/>
	<unicode hex="00B0"/>
	<note>
		degree
	</note>
	<outline>
		<contour>
			<point x="49.897" y="560" type="curve"/>
			<point x="49.897" y="560" type="line"/>
			<point x="37.864" y="462"/>
			<point x="109.164" y="383"/>
			<point x="210.164" y="383" type="curve" smooth="yes"/>
			<point x="313.164" y="383"/>
			<point x="402.864" y="462"/>
			<point x="414.897" y="560" type="curve" smooth="yes"/>
			<point x="427.052" y="659"/>
			<point x="356.752" y="738"/>
			<point x="253.752" y="738" type="curve" smooth="yes"/>
			<point x="151.752" y="738"/>
			<point x="62.052" y="659"/>
		</contour>
		<contour>
			<point x="156.774" y="559" type="curve"/>
			<point x="156.774" y="559" type="line"/>
			<point x="162.299" y="604"/>
			<point x="197.597" y="639"/>
			<point x="241.597" y="639" type="curve" smooth="yes"/>
			<point x="285.597" y="639"/>
			<point x="312.299" y="604"/>
			<point x="306.774" y="559" type="curve" smooth="yes"/>
			<point x="301.371" y="515"/>
			<point x="266.074" y="480"/>
			<point x="222.074" y="480" type="curve" smooth="yes"/>
			<point x="179.074" y="480"/>
			<point x="151.249" y="514"/>
		</contour>
	</outline>
</glyph>
<glyph name="plusminus" format="2">
	<advance width="594"/>
	<unicode hex="00B1"/>
	<note>
		plusminus
	</note>
	<outline>
		<contour>
			<point x="279.228" y="636" type="line"/>
			<point x="258.601" y="468" type="line"/>
			<point x="74.601" y="468" type="line"/>
			<point x="60.971" y="357" type="line"/>
			<point x="244.971" y="357" type="line"/>
			<point x="225.326" y="197" type="line"/>
			<point x="351.326" y="197" type="line"/>
			<point x="370.971" y="357" type="line"/>
			<point x="555.971" y="357" type="line"/>
			<point x="569.601" y="468" type="line"/>
			<point x="384.601" y="468" type="line"/>
			<point x="405.228" y="636" type="line"/>
			<point x="279.228" y="636" type="line"/>
		</contour>
		<contour>
			<point x="22.049" y="40" type="line"/>
			<point x="517.049" y="40" type="line"/>
			<point x="530.678" y="151" type="line"/>
			<point x="35.678" y="151" type="line"/>
			<point x="22.049" y="40" type="line"/>
		</contour>
	</outline>
</glyph>
<glyph name="twosuperior" format="2">
	<advance width="341.3"/>
	<unicode hex="00B2"/>
	<note>
		twosuperior
	</note>
	<outline>
		<contour>
			<point x="52.79" y="450" type="line"/>
			<point x="331.79" y="450" type="line"/>
			<point x="344.437" y="553" type="line"/>
			<point x="290.437" y="553" type="line" smooth="yes"/>
			<point x="271.437" y="553"/>
			<point x="248.823" y="548"/>
			<point x="223.841" y="540" type="curve"/>
			<point x="276.858" y="589" type="line" smooth="yes"/>
			<point x="319.646" y="628"/>
			<point x="355.312" y="666"/>
			<point x="361.697" y="718" type="curve" smooth="yes"/>
			<point x="369.678" y="783"/>
			<point x="327.817" y="833"/>
			<point x="246.817" y="833" type="curve" smooth="yes"/>
			<point x="172.817" y="833"/>
			<point x="108.906" y="793"/>
			<point x="88.206" y="714" type="curve"/>
			<point x="141.978" y="704"/>
			<point x="154.732" y="702"/>
			<point x="163.732" y="702" type="curve" smooth="yes"/>
			<point x="182.732" y="702"/>
			<point x="191.592" y="709"/>
			<point x="207.293" y="731" type="curve" smooth="yes"/>
			<point x="211.03" y="737"/>
			<point x="222.398" y="740"/>
			<point x="228.398" y="740" type="curve" smooth="yes"/>
			<point x="247.398" y="740"/>
			<point x="246.17" y="730"/>
			<point x="244.206" y="714" type="curve" smooth="yes"/>
			<point x="240.645" y="685"/>
			<point x="225.452" y="659"/>
			<point x="190.646" y="628" type="curve" smooth="yes"/>
			<point x="81.736" y="531" type="line"/>
			<point x="67.263" y="519"/>
			<point x="59.298" y="503"/>
			<point x="57.333" y="487" type="curve" smooth="yes"/>
		</contour>
		<contour>
			<point x="263.859" y="532" type="line"/>
			<point x="344.437" y="553" type="line"/>
			<point x="348.858" y="589" type="line"/>
			<point x="307.858" y="589" type="line" smooth="yes"/>
			<point x="291.858" y="589"/>
			<point x="283.507" y="578"/>
			<point x="277.42" y="561" type="curve" smooth="yes"/>
			<point x="263.859" y="532" type="line"/>
		</contour>
	</outline>
</glyph>
<glyph name="threesuperior" format="2">
	<advance width="322.6"/>
	<unicode hex="00B3"/>
	<note>
		threesuperior
	</note>
	<outline>
		<contour>
			<point x="184" y="446" type="curve" smooth="yes"/>
			<point x="256" y="446"/>
			<point x="326.033" y="487"/>
			<point x="336.225" y="570" type="curve" smooth="yes"/>
			<point x="341.013" y="609"/>
			<point x="325.714" y="631"/>
			<point x="288.188" y="643" type="curve"/>
			<point x="327.275" y="660"/>
			<point x="344.959" y="690"/>
			<point x="349.993" y="731" type="curve" smooth="yes"/>
			<point x="356.501" y="784"/>
			<point x="312.026" y="829"/>
			<point x="236.026" y="829" type="curve" smooth="yes"/>
			<point x="162.026" y="829"/>
			<point x="103.36" y="791"/>
			<point x="80.66" y="712" type="curve"/>
			<point x="149.432" y="702" type="line" smooth="yes"/>
			<point x="166.064" y="699"/>
			<point x="175.923" y="706"/>
			<point x="186.888" y="722" type="curve" smooth="yes"/>
			<point x="197.852" y="738"/>
			<point x="206.344" y="742"/>
			<point x="219.344" y="742" type="curve" smooth="yes"/>
			<point x="240.344" y="742"/>
			<point x="243.625" y="728"/>
			<point x="241.537" y="711" type="curve" smooth="yes"/>
			<point x="238.099" y="683"/>
			<point x="222.994" y="674"/>
			<point x="174.994" y="674" type="curve"/>
			<point x="166.399" y="604" type="line"/>
			<point x="214.399" y="604"/>
			<point x="229.154" y="602"/>
			<point x="224.733" y="566" type="curve" smooth="yes"/>
			<point x="222.401" y="547"/>
			<point x="208.804" y="534"/>
			<point x="188.804" y="534" type="curve" smooth="yes"/>
			<point x="173.804" y="534"/>
			<point x="165.664" y="541"/>
			<point x="158.383" y="555" type="curve" smooth="yes"/>
			<point x="147.716" y="574"/>
			<point x="134.452" y="580"/>
			<point x="113.47" y="572" type="curve" smooth="yes"/>
			<point x="51.769" y="550" type="line"/>
			<point x="69.946" y="470"/>
			<point x="112" y="446"/>
		</contour>
	</outline>
</glyph>
<glyph name="acute" format="2">
	<advance width="333"/>
	<unicode hex="00B4"/>
	<note>
		acute
	</note>
	<outline>
		<contour>
			<point x="211.63" y="737" type="line"/>
			<point x="180.63" y="737"/>
			<point x="167.279" y="726"/>
			<point x="152.946" y="707" type="curve"/>
			<point x="69.844" y="584" type="line"/>
			<point x="162.844" y="584" type="line" smooth="yes"/>
			<point x="186.844" y="584"/>
			<point x="198.58" y="590"/>
			<point x="215.422" y="605" type="curve" smooth="yes"/>
			<point x="361.63" y="737" type="line"/>
			<point x="211.63" y="737" type="line"/>
		</contour>
	</outline>
</glyph>
<glyph name="mu" format="2">
	<advance width="647"/>
	<unicode hex="00B5"/>
	<anchor x="501.506" y="3" name="ogonek"/>
	<anchor x="337.863" y="519" name="top"/>
	<anchor x="562.863" y="519" name="topright"/>
	<anchor x="256.137" y="0" name="bottom"/>
	<note>
		mu
	</note>
	<outline>
		<contour>
			<point x="65.878" y="-165" type="curve" smooth="yes"/>
			<point x="142.878" y="-165" type="line"/>
			<point x="155.77" y="-60" type="line" smooth="yes"/>
			<point x="159.372" y="-30.667"/>
			<point x="161.582" y="6.333"/>
			<point x="154.68" y="37" type="curve" smooth="yes"/>
			<point x="81.863" y="519" type="line"/>
			<point x="5.491" y="-103" type="line" smooth="yes"/>
			<point x="0.579" y="-143"/>
			<point x="23.211" y="-165"/>
		</contour>
		<contour>
			<point x="223.155" y="-8" type="curve" smooth="yes"/>
			<point x="287.155" y="-8"/>
			<point x="336.348" y="18"/>
			<point x="382.013" y="56" type="curve"/>
			<point x="387.33" y="26" type="line" smooth="yes"/>
			<point x="390.12" y="8"/>
			<point x="403.137" y="0"/>
			<point x="422.137" y="0" type="curve" smooth="yes"/>
			<point x="518.137" y="0" type="line"/>
			<point x="581.863" y="519" type="line"/>
			<point x="426.863" y="519" type="line"/>
			<point x="381.432" y="149" type="line"/>
			<point x="350.363" y="124"/>
			<point x="320.521" y="109"/>
			<point x="285.521" y="109" type="curve" smooth="yes"/>
			<point x="240.521" y="109"/>
			<point x="220.082" y="138"/>
			<point x="226.466" y="190" type="curve" smooth="yes"/>
			<point x="266.863" y="519" type="line"/>
			<point x="111.863" y="519" type="line"/>
			<point x="71.466" y="190" type="line" smooth="yes"/>
			<point x="57.469" y="76"/>
			<point x="111.155" y="-8"/>
		</contour>
		<contour>
			<point x="498.137" y="0" type="line"/>
			<point x="595.137" y="0" type="line"/>
			<point x="603.855" y="71" type="line" smooth="yes"/>
			<point x="606.679" y="94"/>
			<point x="592.907" y="104"/>
			<point x="569.521" y="109" type="curve" smooth="yes"/>
			<point x="526.626" y="118" type="line"/>
		</contour>
		<contour>
			<point x="131.863" y="519" type="line"/>
			<point x="34.863" y="519" type="line"/>
			<point x="26.145" y="448" type="line" smooth="yes"/>
			<point x="23.321" y="425"/>
			<point x="37.093" y="415"/>
			<point x="60.479" y="410" type="curve" smooth="yes"/>
			<point x="103.374" y="401" type="line"/>
		</contour>
		<contour>
			<point x="446.863" y="519" type="line"/>
			<point x="349.863" y="519" type="line"/>
			<point x="341.145" y="448" type="line" smooth="yes"/>
			<point x="338.321" y="425"/>
			<point x="352.093" y="415"/>
			<point x="375.479" y="410" type="curve" smooth="yes"/>
			<point x="418.374" y="401" type="line"/>
		</contour>
	</outline>
</glyph>
<glyph name="paragraph" format="2">
	<advance width="817"/>
	<unicode hex="00B6"/>
	<note>
		paragraph
	</note>
	<outline>
		<contour>
			<point x="219.877" y="-108" type="line"/>
			<point x="354.877" y="-108" type="line"/>
			<point x="442.176" y="603" type="line"/>
			<point x="540.176" y="603" type="line"/>
			<point x="452.877" y="-108" type="line"/>
			<point x="587.877" y="-108" type="line"/>
			<point x="675.176" y="603" type="line"/>
			<point x="780.176" y="603" type="line"/>
			<point x="795.647" y="729" type="line"/>
			<point x="322.647" y="729" type="line"/>
			<point x="185.647" y="729"/>
			<point x="80.842" y="641"/>
			<point x="65.249" y="514" type="curve" smooth="yes"/>
			<point x="50.76" y="396"/>
			<point x="136.341" y="303"/>
			<point x="270.341" y="303" type="curve"/>
		</contour>
	</outline>
</glyph>
<glyph name="periodcentered" format="2">
	<advance width="325"/>
	<unicode hex="00B7"/>
	<note>
		periodcentered
	</note>
	<outline>
		<contour>
			<point x="54.727" y="298" type="curve"/>
			<point x="54.727" y="298" type="line"/>
			<point x="47.36" y="238"/>
			<point x="92.466" y="190"/>
			<point x="153.466" y="190" type="curve" smooth="yes"/>
			<point x="217.466" y="190"/>
			<point x="272.36" y="238"/>
			<point x="279.727" y="298" type="curve" smooth="yes"/>
			<point x="287.217" y="359"/>
			<point x="244.111" y="407"/>
			<point x="180.111" y="407" type="curve" smooth="yes"/>
			<point x="119.111" y="407"/>
			<point x="62.217" y="359"/>
		</contour>
	</outline>
</glyph>
<glyph name="onesuperior" format="2">
	<advance width="335.2"/>
	<unicode hex="00B9"/>
	<note>
		onesuperior
	</note>
	<outline>
		<contour>
			<point x="98.39" y="450" type="line"/>
			<point x="326.39" y="450" type="line"/>
			<point x="332.039" y="496" type="line" smooth="yes"/>
			<point x="333.88" y="511"/>
			<point x="327.108" y="521"/>
			<point x="312.477" y="524" type="curve" smooth="yes"/>
			<point x="286.582" y="533" type="line"/>
			<point x="322.803" y="828" type="line"/>
			<point x="227.803" y="828" type="line"/>
			<point x="92.525" y="728" type="line"/>
			<point x="122.631" y="680" type="line" smooth="yes"/>
			<point x="130.035" y="667"/>
			<point x="151.421" y="662"/>
			<point x="173.017" y="675" type="curve" smooth="yes"/>
			<point x="192.49" y="687" type="line"/>
			<point x="189.894" y="674"/>
			<point x="188.544" y="663"/>
			<point x="187.193" y="652" type="curve" smooth="yes"/>
			<point x="172.582" y="533" type="line"/>
			<point x="130.354" y="523" type="line" smooth="yes"/>
			<point x="114.985" y="520"/>
			<point x="105.88" y="511"/>
			<point x="104.039" y="496" type="curve" smooth="yes"/>
		</contour>
	</outline>
</glyph>
